CrimsonText_New_Draft_39_CAPS_Regular_80%.ufo
<glyph name="numbersign" format="1">
  <advance width="480"/>
  <unicode hex="0023"/>
  <outline>
    <contour>
      <point x="239" y="0" type="line"/>
      <point x="287" y="0" type="line"/>
      <point x="398" y="528" type="line"/>
      <point x="350" y="528" type="line"/>
    </contour>
    <contour>
      <point x="32" y="152" type="line"/>
      <point x="432" y="152" type="line"/>
      <point x="432" y="200" type="line"/>
      <point x="32" y="200" type="line"/>
    </contour>
    <contour>
      <point x="82" y="0" type="line"/>
      <point x="130" y="0" type="line"/>
      <point x="241" y="528" type="line"/>
      <point x="193" y="528" type="line"/>
    </contour>
    <contour>
      <point x="48" y="328" type="line"/>
      <point x="448" y="328" type="line"/>
      <point x="448" y="376" type="line"/>
      <point x="48" y="376" type="line"/>
    </contour>
  </outline>
</glyph>
<glyph name="dollar" format="1">
  <advance width="423"/>
  <unicode hex="0024"/>
  <outline>
    <contour>
      <point x="203" y="-8" type="curve" smooth="yes"/>
      <point x="318" y="-8"/>
      <point x="399" y="56"/>
      <point x="399" y="147" type="curve" smooth="yes"/>
      <point x="399" y="214"/>
      <point x="362" y="256"/>
      <point x="258" y="299" type="curve" smooth="yes"/>
      <point x="171" y="337"/>
      <point x="141" y="364"/>
      <point x="141" y="412" type="curve" smooth="yes"/>
      <point x="141" y="459"/>
      <point x="179" y="490"/>
      <point x="235" y="490" type="curve" smooth="yes"/>
      <point x="261" y="490"/>
      <point x="284" y="485"/>
      <point x="304" y="473" type="curve"/>
      <point x="315" y="450"/>
      <point x="322" y="424"/>
      <point x="330" y="393" type="curve"/>
      <point x="372" y="397" type="line"/>
      <point x="364" y="515" type="line"/>
      <point x="333" y="529"/>
      <point x="287" y="537"/>
      <point x="244" y="537" type="curve" smooth="yes"/>
      <point x="130" y="537"/>
      <point x="51" y="475"/>
      <point x="51" y="385" type="curve" smooth="yes"/>
      <point x="51" y="315"/>
      <point x="90" y="272"/>
      <point x="195" y="226" type="curve" smooth="yes"/>
      <point x="284" y="186"/>
      <point x="308" y="162"/>
      <point x="308" y="116" type="curve" smooth="yes"/>
      <point x="308" y="69"/>
      <point x="271" y="41"/>
      <point x="215" y="41" type="curve" smooth="yes"/>
      <point x="180" y="41"/>
      <point x="144" y="51"/>
      <point x="116" y="69" type="curve"/>
      <point x="107" y="96"/>
      <point x="99" y="123"/>
      <point x="90" y="155" type="curve"/>
      <point x="47" y="150" type="line"/>
      <point x="47" y="112"/>
      <point x="49" y="73"/>
      <point x="52" y="29" type="curve"/>
      <point x="89" y="7"/>
      <point x="151" y="-8"/>
    </contour>
    <contour>
      <point x="204" y="-104" type="line"/>
      <point x="249" y="-104" type="line"/>
      <point x="249" y="632" type="line"/>
      <point x="204" y="632" type="line"/>
    </contour>
  </outline>
</glyph>
<glyph name="percent" format="1">
  <advance width="696"/>
  <unicode hex="0025"/>
  <outline>
    <contour>
      <point x="161" y="-12" type="line"/>
      <point x="580" y="501" type="line"/>
      <point x="537" y="540" type="line"/>
      <point x="118" y="27" type="line"/>
    </contour>
    <contour>
      <point x="182" y="257" type="curve" smooth="yes"/>
      <point x="260" y="257"/>
      <point x="326" y="317"/>
      <point x="326" y="396" type="curve" smooth="yes"/>
      <point x="326" y="478"/>
      <point x="264" y="535"/>
      <point x="182" y="535" type="curve" smooth="yes"/>
      <point x="104" y="535"/>
      <point x="37" y="474"/>
      <point x="37" y="396" type="curve" smooth="yes"/>
      <point x="37" y="314"/>
      <point x="98" y="257"/>
    </contour>
    <contour>
      <point x="182" y="317" type="curve" smooth="yes"/>
      <point x="137" y="317"/>
      <point x="104" y="349"/>
      <point x="104" y="397" type="curve" smooth="yes"/>
      <point x="104" y="444"/>
      <point x="137" y="476"/>
      <point x="182" y="476" type="curve" smooth="yes"/>
      <point x="226" y="476"/>
      <point x="261" y="445"/>
      <point x="261" y="397" type="curve" smooth="yes"/>
      <point x="261" y="349"/>
      <point x="226" y="317"/>
    </contour>
    <contour>
      <point x="515" y="-7" type="curve" smooth="yes"/>
      <point x="593" y="-7"/>
      <point x="659" y="53"/>
      <point x="659" y="132" type="curve" smooth="yes"/>
      <point x="659" y="214"/>
      <point x="597" y="271"/>
      <point x="515" y="271" type="curve" smooth="yes"/>
      <point x="437" y="271"/>
      <point x="370" y="210"/>
      <point x="370" y="132" type="curve" smooth="yes"/>
      <point x="370" y="50"/>
      <point x="431" y="-7"/>
    </contour>
    <contour>
      <point x="515" y="53" type="curve" smooth="yes"/>
      <point x="470" y="53"/>
      <point x="437" y="85"/>
      <point x="437" y="133" type="curve" smooth="yes"/>
      <point x="437" y="180"/>
      <point x="470" y="212"/>
      <point x="515" y="212" type="curve" smooth="yes"/>
      <point x="559" y="212"/>
      <point x="594" y="181"/>
      <point x="594" y="133" type="curve" smooth="yes"/>
      <point x="594" y="85"/>
      <point x="559" y="53"/>
    </contour>
  </outline>
</glyph>
<glyph name="ampersand" format="1">
  <advance width="587"/>
  <unicode hex="0026"/>
  <outline>
    <contour>
      <point x="203" y="-7" type="curve" smooth="yes"/>
      <point x="331" y="-7"/>
      <point x="421" y="70"/>
      <point x="497" y="225" type="curve"/>
      <point x="513" y="229"/>
      <point x="534" y="232"/>
      <point x="551" y="234" type="curve"/>
      <point x="549" y="270" type="line"/>
      <point x="525" y="269"/>
      <point x="490" y="269"/>
      <point x="466" y="269" type="curve" smooth="yes"/>
      <point x="438" y="269"/>
      <point x="405" y="269"/>
      <point x="379" y="269" type="curve"/>
      <point x="377" y="233" type="line"/>
      <point x="393" y="232"/>
      <point x="414" y="229"/>
      <point x="431" y="225" type="curve"/>
      <point x="385" y="106"/>
      <point x="321" y="53"/>
      <point x="230" y="53" type="curve" smooth="yes"/>
      <point x="158" y="53"/>
      <point x="116" y="90"/>
      <point x="116" y="138" type="curve" smooth="yes"/>
      <point x="116" y="182"/>
      <point x="141" y="219"/>
      <point x="210" y="252" type="curve"/>
      <point x="334" y="305"/>
      <point x="381" y="359"/>
      <point x="381" y="426" type="curve" smooth="yes"/>
      <point x="381" y="493"/>
      <point x="333" y="534"/>
      <point x="261" y="534" type="curve" smooth="yes"/>
      <point x="177" y="534"/>
      <point x="116" y="471"/>
      <point x="116" y="385" type="curve" smooth="yes"/>
      <point x="116" y="330"/>
      <point x="143" y="278"/>
      <point x="222" y="165" type="curve" smooth="yes"/>
      <point x="306" y="50"/>
      <point x="375" y="-7"/>
      <point x="473" y="-7" type="curve" smooth="yes"/>
      <point x="527" y="-7"/>
      <point x="572" y="16"/>
      <point x="600" y="58" type="curve"/>
      <point x="582" y="84" type="line"/>
      <point x="556" y="65"/>
      <point x="532" y="56"/>
      <point x="504" y="56" type="curve" smooth="yes"/>
      <point x="431" y="56"/>
      <point x="373" y="107"/>
      <point x="297" y="203" type="curve" smooth="yes"/>
      <point x="222" y="311"/>
      <point x="194" y="361"/>
      <point x="194" y="417" type="curve" smooth="yes"/>
      <point x="194" y="465"/>
      <point x="222" y="491"/>
      <point x="257" y="491" type="curve" smooth="yes"/>
      <point x="286" y="491"/>
      <point x="310" y="470"/>
      <point x="310" y="429" type="curve" smooth="yes"/>
      <point x="310" y="371"/>
      <point x="281" y="334"/>
      <point x="188" y="283" type="curve"/>
      <point x="72" y="245"/>
      <point x="27" y="187"/>
      <point x="27" y="122" type="curve" smooth="yes"/>
      <point x="27" y="51"/>
      <point x="84" y="-7"/>
    </contour>
  </outline>
</glyph>
<glyph name="parenleft" format="1">
  <advance width="298"/>
  <unicode hex="0028"/>
  <outline>
    <contour>
      <point x="271" y="583" type="line"/>
      <point x="143" y="486"/>
      <point x="78" y="354"/>
      <point x="78" y="200" type="curve" smooth="yes"/>
      <point x="78" y="47"/>
      <point x="143" y="-83"/>
      <point x="271" y="-183" type="curve"/>
      <point x="298" y="-159" type="line"/>
      <point x="213" y="-76"/>
      <point x="167" y="51"/>
      <point x="167" y="200" type="curve" smooth="yes"/>
      <point x="167" y="349"/>
      <point x="213" y="476"/>
      <point x="298" y="559" type="curve"/>
    </contour>
  </outline>
</glyph>
<glyph name="asterisk" format="1">
  <advance width="372"/>
  <unicode hex="002A"/>
  <outline>
    <contour>
      <point x="337" y="440" type="curve" smooth="yes"/>
      <point x="330" y="463"/>
      <point x="312" y="475"/>
      <point x="286" y="466" type="curve" smooth="yes"/>
      <point x="261" y="457"/>
      <point x="230" y="433"/>
      <point x="203" y="416" type="curve"/>
      <point x="209" y="448"/>
      <point x="223" y="487"/>
      <point x="223" y="513" type="curve" smooth="yes"/>
      <point x="223" y="544"/>
      <point x="207" y="558"/>
      <point x="186" y="558" type="curve" smooth="yes"/>
      <point x="165" y="558"/>
      <point x="149" y="544"/>
      <point x="149" y="513" type="curve" smooth="yes"/>
      <point x="149" y="487"/>
      <point x="163" y="448"/>
      <point x="169" y="416" type="curve"/>
      <point x="142" y="433"/>
      <point x="111" y="458"/>
      <point x="86" y="466" type="curve" smooth="yes"/>
      <point x="60" y="474"/>
      <point x="42" y="463"/>
      <point x="35" y="440" type="curve" smooth="yes"/>
      <point x="29" y="417"/>
      <point x="37" y="395"/>
      <point x="63" y="386" type="curve" smooth="yes"/>
      <point x="88" y="379"/>
      <point x="125" y="380"/>
      <point x="156" y="377" type="curve"/>
      <point x="132" y="356"/>
      <point x="100" y="335"/>
      <point x="84" y="313" type="curve" smooth="yes"/>
      <point x="68" y="288"/>
      <point x="72" y="266"/>
      <point x="89" y="252" type="curve" smooth="yes"/>
      <point x="106" y="238"/>
      <point x="127" y="239"/>
      <point x="143" y="264" type="curve" smooth="yes"/>
      <point x="160" y="286"/>
      <point x="172" y="329"/>
      <point x="186" y="359" type="curve"/>
      <point x="200" y="329"/>
      <point x="212" y="286"/>
      <point x="229" y="264" type="curve" smooth="yes"/>
      <point x="245" y="239"/>
      <point x="266" y="238"/>
      <point x="283" y="252" type="curve" smooth="yes"/>
      <point x="300" y="266"/>
      <point x="304" y="288"/>
      <point x="288" y="313" type="curve" smooth="yes"/>
      <point x="272" y="335"/>
      <point x="240" y="356"/>
      <point x="216" y="377" type="curve"/>
      <point x="247" y="380"/>
      <point x="284" y="378"/>
      <point x="308" y="386" type="curve" smooth="yes"/>
      <point x="335" y="396"/>
      <point x="343" y="417"/>
    </contour>
  </outline>
</glyph>
<glyph name="hyphen" format="1">
  <advance width="305"/>
  <unicode hex="002D"/>
  <outline>
    <contour>
      <point x="62" y="128" type="line"/>
      <point x="242" y="154" type="line"/>
      <point x="242" y="227" type="line"/>
      <point x="62" y="201" type="line"/>
    </contour>
  </outline>
</glyph>
<glyph name="two" format="1">
  <advance width="436"/>
  <unicode hex="0032"/>
  <outline>
    <contour>
      <point x="40" y="-2" type="line"/>
      <point x="62" y="-1"/>
      <point x="85" y="0"/>
      <point x="107" y="0" type="curve" smooth="yes"/>
      <point x="287" y="0" type="line" smooth="yes"/>
      <point x="321" y="0"/>
      <point x="358" y="-1"/>
      <point x="386" y="-4" type="curve"/>
      <point x="409" y="148" type="line"/>
      <point x="368" y="153" type="line"/>
      <point x="359" y="130"/>
      <point x="350" y="111"/>
      <point x="339" y="81" type="curve"/>
      <point x="329" y="79"/>
      <point x="317" y="78"/>
      <point x="302" y="78" type="curve" smooth="yes"/>
      <point x="122" y="78" type="line"/>
      <point x="119" y="65" type="line"/>
      <point x="276" y="171"/>
      <point x="358" y="279"/>
      <point x="358" y="377" type="curve" smooth="yes"/>
      <point x="358" y="471"/>
      <point x="290" y="536"/>
      <point x="192" y="536" type="curve" smooth="yes"/>
      <point x="114" y="536"/>
      <point x="49" y="491"/>
      <point x="18" y="414" type="curve"/>
      <point x="47" y="392" type="line"/>
      <point x="76" y="438"/>
      <point x="116" y="462"/>
      <point x="164" y="462" type="curve" smooth="yes"/>
      <point x="227" y="462"/>
      <point x="265" y="420"/>
      <point x="265" y="357" type="curve" smooth="yes"/>
      <point x="265" y="265"/>
      <point x="204" y="175"/>
      <point x="37" y="36" type="curve"/>
    </contour>
  </outline>
</glyph>
<glyph name="three" format="1">
  <advance width="392"/>
  <unicode hex="0033"/>
  <outline>
    <contour>
      <point x="191" y="277" type="line"/>
      <point x="271" y="302"/>
      <point x="325" y="350"/>
      <point x="325" y="418" type="curve" smooth="yes"/>
      <point x="325" y="486"/>
      <point x="269" y="536"/>
      <point x="180" y="536" type="curve" smooth="yes"/>
      <point x="108" y="536"/>
      <point x="46" y="496"/>
      <point x="18" y="432" type="curve"/>
      <point x="46" y="411" type="line"/>
      <point x="72" y="446"/>
      <point x="109" y="465"/>
      <point x="150" y="465" type="curve" smooth="yes"/>
      <point x="203" y="465"/>
      <point x="236" y="437"/>
      <point x="236" y="391" type="curve" smooth="yes"/>
      <point x="236" y="335"/>
      <point x="190" y="297"/>
      <point x="103" y="288" type="curve"/>
      <point x="109" y="242" type="line"/>
      <point x="124" y="245"/>
      <point x="141" y="246"/>
      <point x="158" y="246" type="curve" smooth="yes"/>
      <point x="227" y="246"/>
      <point x="271" y="207"/>
      <point x="271" y="145" type="curve" smooth="yes"/>
      <point x="271" y="72"/>
      <point x="209" y="27"/>
      <point x="128" y="41" type="curve"/>
      <point x="166" y="28" type="line"/>
      <point x="108" y="78" type="line" smooth="yes"/>
      <point x="86" y="97"/>
      <point x="74" y="103"/>
      <point x="55" y="103" type="curve" smooth="yes"/>
      <point x="33" y="103"/>
      <point x="17" y="86"/>
      <point x="17" y="64" type="curve" smooth="yes"/>
      <point x="17" y="22"/>
      <point x="71" y="-8"/>
      <point x="147" y="-8" type="curve" smooth="yes"/>
      <point x="268" y="-8"/>
      <point x="359" y="71"/>
      <point x="359" y="159" type="curve" smooth="yes"/>
      <point x="359" y="239"/>
      <point x="298" y="289"/>
      <point x="198" y="292" type="curve"/>
    </contour>
  </outline>
</glyph>
<glyph name="five" format="1">
  <advance width="392"/>
  <unicode hex="0035"/>
  <outline>
    <contour>
      <point x="147" y="-8" type="curve" smooth="yes"/>
      <point x="268" y="-8"/>
      <point x="359" y="69"/>
      <point x="359" y="159" type="curve" smooth="yes"/>
      <point x="359" y="239"/>
      <point x="301" y="294"/>
      <point x="189" y="317" type="curve" smooth="yes"/>
      <point x="158" y="324"/>
      <point x="126" y="328"/>
      <point x="95" y="333" type="curve"/>
      <point x="116" y="297" type="line"/>
      <point x="149" y="446" type="line"/>
      <point x="327" y="446" type="line"/>
      <point x="327" y="528" type="line"/>
      <point x="111" y="528" type="line"/>
      <point x="63" y="254" type="line"/>
      <point x="95" y="250"/>
      <point x="125" y="245"/>
      <point x="154" y="239" type="curve" smooth="yes"/>
      <point x="237" y="222"/>
      <point x="271" y="192"/>
      <point x="271" y="137" type="curve" smooth="yes"/>
      <point x="271" y="72"/>
      <point x="209" y="27"/>
      <point x="128" y="41" type="curve"/>
      <point x="166" y="28" type="line"/>
      <point x="108" y="78" type="line" smooth="yes"/>
      <point x="85" y="98"/>
      <point x="73" y="103"/>
      <point x="55" y="103" type="curve" smooth="yes"/>
      <point x="33" y="103"/>
      <point x="17" y="86"/>
      <point x="17" y="64" type="curve" smooth="yes"/>
      <point x="17" y="22"/>
      <point x="71" y="-8"/>
    </contour>
  </outline>
</glyph>
<glyph name="eight" format="1">
  <advance width="471"/>
  <unicode hex="0038"/>
  <outline>
    <contour>
      <point x="231" y="-8" type="curve" smooth="yes"/>
      <point x="350" y="-8"/>
      <point x="431" y="55"/>
      <point x="431" y="146" type="curve" smooth="yes"/>
      <point x="431" y="209"/>
      <point x="393" y="253"/>
      <point x="278" y="300" type="curve" smooth="yes"/>
      <point x="176" y="340"/>
      <point x="151" y="367"/>
      <point x="151" y="414" type="curve" smooth="yes"/>
      <point x="151" y="461"/>
      <point x="187" y="489"/>
      <point x="236" y="489" type="curve" smooth="yes"/>
      <point x="295" y="489"/>
      <point x="329" y="451"/>
      <point x="329" y="389" type="curve" smooth="yes"/>
      <point x="329" y="348"/>
      <point x="315" y="315"/>
      <point x="279" y="275" type="curve"/>
      <point x="296" y="264" type="line"/>
      <point x="369" y="288"/>
      <point x="412" y="335"/>
      <point x="412" y="398" type="curve" smooth="yes"/>
      <point x="412" y="479"/>
      <point x="345" y="536"/>
      <point x="245" y="536" type="curve" smooth="yes"/>
      <point x="140" y="536"/>
      <point x="64" y="475"/>
      <point x="64" y="391" type="curve" smooth="yes"/>
      <point x="64" y="319"/>
      <point x="104" y="274"/>
      <point x="220" y="226" type="curve" smooth="yes"/>
      <point x="319" y="188"/>
      <point x="343" y="163"/>
      <point x="343" y="118" type="curve" smooth="yes"/>
      <point x="343" y="72"/>
      <point x="305" y="43"/>
      <point x="245" y="43" type="curve" smooth="yes"/>
      <point x="173" y="43"/>
      <point x="131" y="83"/>
      <point x="131" y="139" type="curve" smooth="yes"/>
      <point x="131" y="180"/>
      <point x="153" y="216"/>
      <point x="209" y="252" type="curve"/>
      <point x="186" y="270" type="line"/>
      <point x="96" y="249"/>
      <point x="43" y="201"/>
      <point x="43" y="134" type="curve" smooth="yes"/>
      <point x="43" y="51"/>
      <point x="118" y="-8"/>
    </contour>
  </outline>
</glyph>
<glyph name="semicolon" format="1">
  <advance width="204"/>
  <unicode hex="003B"/>
  <outline>
    <contour>
      <point x="36" y="-160" type="line"/>
      <point x="117" y="-123"/>
      <point x="166" y="-50"/>
      <point x="166" y="30" type="curve" smooth="yes"/>
      <point x="166" y="97"/>
      <point x="133" y="124"/>
      <point x="101" y="124" type="curve" smooth="yes"/>
      <point x="67" y="124"/>
      <point x="43" y="98"/>
      <point x="43" y="65" type="curve" smooth="yes"/>
      <point x="43" y="8"/>
      <point x="97" y="12"/>
      <point x="97" y="-40" type="curve" smooth="yes"/>
      <point x="97" y="-76"/>
      <point x="73" y="-106"/>
      <point x="23" y="-130" type="curve"/>
    </contour>
    <contour>
      <point x="102" y="225" type="curve" smooth="yes"/>
      <point x="136" y="225"/>
      <point x="162" y="253"/>
      <point x="162" y="290" type="curve" smooth="yes"/>
      <point x="162" y="328"/>
      <point x="136" y="357"/>
      <point x="102" y="357" type="curve" smooth="yes"/>
      <point x="68" y="357"/>
      <point x="42" y="328"/>
      <point x="42" y="290" type="curve" smooth="yes"/>
      <point x="42" y="253"/>
      <point x="68" y="225"/>
    </contour>
  </outline>
</glyph>
<glyph name="A" format="1">
  <advance width="529"/>
  <unicode hex="0041"/>
  <outline>
    <contour>
      <point x="2" y="-2" type="line"/>
      <point x="27" y="0"/>
      <point x="56" y="0"/>
      <point x="78" y="0" type="curve" smooth="yes"/>
      <point x="100" y="0"/>
      <point x="129" y="0"/>
      <point x="156" y="-2" type="curve"/>
      <point x="158" y="38" type="line"/>
      <point x="137" y="40"/>
      <point x="112" y="45"/>
      <point x="102" y="48" type="curve"/>
      <point x="150" y="181" type="line"/>
      <point x="160" y="208" type="line"/>
      <point x="252" y="447" type="line"/>
      <point x="228" y="441" type="line"/>
      <point x="324" y="207" type="line"/>
      <point x="334" y="178" type="line"/>
      <point x="387" y="48" type="line"/>
      <point x="378" y="45"/>
      <point x="353" y="40"/>
      <point x="332" y="38" type="curve"/>
      <point x="334" y="-2" type="line"/>
      <point x="361" y="0"/>
      <point x="401" y="1"/>
      <point x="431" y="1" type="curve" smooth="yes"/>
      <point x="460" y="1"/>
      <point x="502" y="0"/>
      <point x="527" y="-2" type="curve"/>
      <point x="529" y="38" type="line"/>
      <point x="511" y="41"/>
      <point x="495" y="44"/>
      <point x="484" y="48" type="curve"/>
      <point x="285" y="544" type="line"/>
      <point x="229" y="509" type="line"/>
      <point x="44" y="48" type="line"/>
      <point x="34" y="44"/>
      <point x="19" y="40"/>
      <point x="0" y="38" type="curve"/>
    </contour>
    <contour>
      <point x="130" y="162" type="line"/>
      <point x="155" y="163"/>
      <point x="191" y="165"/>
      <point x="246" y="165" type="curve" smooth="yes"/>
      <point x="301" y="165"/>
      <point x="337" y="163"/>
      <point x="361" y="162" type="curve"/>
      <point x="361" y="214" type="line"/>
      <point x="339" y="213"/>
      <point x="301" y="211"/>
      <point x="246" y="211" type="curve" smooth="yes"/>
      <point x="191" y="211"/>
      <point x="153" y="213"/>
      <point x="130" y="214" type="curve"/>
    </contour>
    <contour>
      <point x="245" y="0" type="move" name="bottom"/>
    </contour>
    <contour>
      <point x="492" y="0" type="move" name="ogonek"/>
    </contour>
    <contour>
      <point x="257" y="528" type="move" name="top"/>
    </contour>
  </outline>
</glyph>
<glyph name="B" format="1">
  <advance width="498"/>
  <unicode hex="0042"/>
  <outline>
    <contour>
      <point x="87" y="51" type="curve"/>
      <point x="81" y="46"/>
      <point x="54" y="40"/>
      <point x="32" y="38" type="curve"/>
      <point x="34" y="-3" type="line"/>
      <point x="54" y="-1"/>
      <point x="109" y="2"/>
      <point x="153" y="2" type="curve" smooth="yes"/>
      <point x="180" y="2"/>
      <point x="208" y="-1"/>
      <point x="237" y="-1" type="curve" smooth="yes"/>
      <point x="383" y="-1"/>
      <point x="457" y="64"/>
      <point x="457" y="154" type="curve" smooth="yes"/>
      <point x="457" y="230"/>
      <point x="401" y="281"/>
      <point x="286" y="286" type="curve"/>
      <point x="293" y="279" type="line"/>
      <point x="383" y="286"/>
      <point x="430" y="342"/>
      <point x="430" y="402" type="curve" smooth="yes"/>
      <point x="430" y="484"/>
      <point x="371" y="530"/>
      <point x="251" y="530" type="curve" smooth="yes"/>
      <point x="201" y="530"/>
      <point x="158" y="528"/>
      <point x="129" y="528" type="curve" smooth="yes"/>
      <point x="98" y="528"/>
      <point x="68" y="527"/>
      <point x="34" y="529" type="curve"/>
      <point x="32" y="487" type="line"/>
      <point x="54" y="488"/>
      <point x="81" y="483"/>
      <point x="87" y="477" type="curve"/>
      <point x="91" y="471"/>
      <point x="94" y="433"/>
      <point x="94" y="342" type="curve" smooth="yes"/>
      <point x="94" y="185" type="line" smooth="yes"/>
      <point x="94" y="94"/>
      <point x="90" y="57"/>
    </contour>
    <contour>
      <point x="179" y="159" type="curve" smooth="yes"/>
      <point x="179" y="370" type="line" smooth="yes"/>
      <point x="179" y="441"/>
      <point x="180" y="476"/>
      <point x="181" y="483" type="curve"/>
      <point x="191" y="485"/>
      <point x="213" y="488"/>
      <point x="234" y="488" type="curve" smooth="yes"/>
      <point x="297" y="488"/>
      <point x="339" y="457"/>
      <point x="339" y="392" type="curve" smooth="yes"/>
      <point x="339" y="332"/>
      <point x="302" y="294"/>
      <point x="227" y="294" type="curve" smooth="yes"/>
      <point x="208" y="294"/>
      <point x="187" y="294"/>
      <point x="167" y="295" type="curve"/>
      <point x="167" y="245" type="line"/>
      <point x="187" y="247"/>
      <point x="207" y="247"/>
      <point x="239" y="247" type="curve" smooth="yes"/>
      <point x="321" y="247"/>
      <point x="366" y="213"/>
      <point x="366" y="146" type="curve" smooth="yes"/>
      <point x="366" y="79"/>
      <point x="326" y="45"/>
      <point x="248" y="45" type="curve" smooth="yes"/>
      <point x="220" y="45"/>
      <point x="191" y="49"/>
      <point x="181" y="52" type="curve"/>
      <point x="180" y="60"/>
      <point x="179" y="98"/>
    </contour>
    <contour>
      <point x="249" y="0" type="move" name="bottom"/>
    </contour>
    <contour>
      <point x="249" y="528" type="move" name="top"/>
    </contour>
  </outline>
</glyph>
<glyph name="F" format="1">
  <advance width="455"/>
  <unicode hex="0046"/>
  <outline>
    <contour>
      <point x="38" y="-3" type="line"/>
      <point x="63" y="-1"/>
      <point x="114" y="1"/>
      <point x="145" y="1" type="curve" smooth="yes"/>
      <point x="175" y="1"/>
      <point x="227" y="-1"/>
      <point x="255" y="-3" type="curve"/>
      <point x="256" y="39" type="line"/>
      <point x="234" y="42"/>
      <point x="197" y="47"/>
      <point x="184" y="51" type="curve"/>
      <point x="181" y="57"/>
      <point x="178" y="94"/>
      <point x="178" y="164" type="curve" smooth="yes"/>
      <point x="178" y="374" type="line" smooth="yes"/>
      <point x="178" y="421"/>
      <point x="179" y="470"/>
      <point x="180" y="480" type="curve"/>
      <point x="192" y="483"/>
      <point x="216" y="484"/>
      <point x="234" y="484" type="curve" smooth="yes"/>
      <point x="322" y="484" type="line" smooth="yes"/>
      <point x="333" y="484"/>
      <point x="345" y="483"/>
      <point x="356" y="481" type="curve"/>
      <point x="368" y="459"/>
      <point x="377" y="434"/>
      <point x="388" y="402" type="curve"/>
      <point x="430" y="408" type="line"/>
      <point x="411" y="532" type="line"/>
      <point x="382" y="530"/>
      <point x="343" y="528"/>
      <point x="313" y="528" type="curve" smooth="yes"/>
      <point x="137" y="528" type="line" smooth="yes"/>
      <point x="107" y="528"/>
      <point x="62" y="529"/>
      <point x="34" y="530" type="curve"/>
      <point x="32" y="489" type="line"/>
      <point x="54" y="488"/>
      <point x="81" y="482"/>
      <point x="87" y="476" type="curve"/>
      <point x="91" y="470"/>
      <point x="94" y="433"/>
      <point x="94" y="342" type="curve" smooth="yes"/>
      <point x="94" y="185" type="line" smooth="yes"/>
      <point x="94" y="94"/>
      <point x="91" y="57"/>
      <point x="87" y="51" type="curve"/>
      <point x="81" y="46"/>
      <point x="55" y="40"/>
      <point x="36" y="38" type="curve"/>
    </contour>
    <contour>
      <point x="326" y="174" type="curve"/>
      <point x="366" y="174" type="line"/>
      <point x="365" y="205"/>
      <point x="364" y="239"/>
      <point x="364" y="267" type="curve" smooth="yes"/>
      <point x="364" y="294"/>
      <point x="365" y="325"/>
      <point x="366" y="354" type="curve"/>
      <point x="326" y="354" type="line"/>
      <point x="323" y="335"/>
      <point x="319" y="306"/>
      <point x="315" y="293" type="curve"/>
      <point x="307" y="292"/>
      <point x="292" y="290"/>
      <point x="272" y="290" type="curve" smooth="yes"/>
      <point x="203" y="290" type="line" smooth="yes"/>
      <point x="186" y="290"/>
      <point x="169" y="292"/>
      <point x="155" y="293" type="curve"/>
      <point x="155" y="240" type="line"/>
      <point x="169" y="241"/>
      <point x="186" y="242"/>
      <point x="203" y="242" type="curve" smooth="yes"/>
      <point x="272" y="242" type="line" smooth="yes"/>
      <point x="292" y="242"/>
      <point x="307" y="241"/>
      <point x="315" y="239" type="curve"/>
      <point x="319" y="227"/>
      <point x="323" y="194"/>
    </contour>
    <contour>
      <point x="136" y="0" type="move" name="bottom"/>
    </contour>
    <contour>
      <point x="228" y="528" type="move" name="top"/>
    </contour>
  </outline>
</glyph>
<glyph name="G" format="1">
  <advance width="584"/>
  <unicode hex="0047"/>
  <outline>
    <contour>
      <point x="339" y="-8" type="curve" smooth="yes"/>
      <point x="390" y="-8"/>
      <point x="467" y="12"/>
      <point x="515" y="44" type="curve"/>
      <point x="513" y="76"/>
      <point x="512" y="101"/>
      <point x="512" y="134" type="curve" smooth="yes"/>
      <point x="512" y="164"/>
      <point x="514" y="191"/>
      <point x="515" y="198" type="curve"/>
      <point x="522" y="203"/>
      <point x="539" y="208"/>
      <point x="553" y="210" type="curve"/>
      <point x="551" y="250" type="line"/>
      <point x="534" y="249"/>
      <point x="499" y="247"/>
      <point x="467" y="247" type="curve" smooth="yes"/>
      <point x="435" y="247"/>
      <point x="394" y="247"/>
      <point x="365" y="249" type="curve"/>
      <point x="364" y="208" type="line"/>
      <point x="387" y="207"/>
      <point x="415" y="202"/>
      <point x="423" y="197" type="curve"/>
      <point x="426" y="191"/>
      <point x="430" y="164"/>
      <point x="430" y="97" type="curve" smooth="yes"/>
      <point x="430" y="20" type="line"/>
      <point x="450" y="70" type="line"/>
      <point x="420" y="51"/>
      <point x="379" y="43"/>
      <point x="349" y="43" type="curve" smooth="yes"/>
      <point x="236" y="43"/>
      <point x="148" y="127"/>
      <point x="148" y="280" type="curve" smooth="yes"/>
      <point x="148" y="394"/>
      <point x="209" y="486"/>
      <point x="339" y="486" type="curve" smooth="yes"/>
      <point x="370" y="486"/>
      <point x="410" y="479"/>
      <point x="434" y="464" type="curve"/>
      <point x="445" y="438"/>
      <point x="453" y="411"/>
      <point x="461" y="383" type="curve"/>
      <point x="504" y="386" type="line"/>
      <point x="498" y="507" type="line"/>
      <point x="458" y="525"/>
      <point x="397" y="536"/>
      <point x="347" y="536" type="curve" smooth="yes"/>
      <point x="161" y="536"/>
      <point x="45" y="416"/>
      <point x="45" y="257" type="curve" smooth="yes"/>
      <point x="45" y="84"/>
      <point x="172" y="-8"/>
    </contour>
    <contour>
      <point x="316" y="0" type="move" name="bottom"/>
    </contour>
    <contour>
      <point x="316" y="528" type="move" name="top"/>
    </contour>
  </outline>
</glyph>
<glyph name="I" format="1">
  <advance width="271"/>
  <unicode hex="0049"/>
  <outline>
    <contour>
      <point x="33" y="-3" type="line"/>
      <point x="61" y="-1"/>
      <point x="103" y="2"/>
      <point x="136" y="2" type="curve" smooth="yes"/>
      <point x="169" y="2"/>
      <point x="210" y="-1"/>
      <point x="238" y="-3" type="curve"/>
      <point x="240" y="38" type="line"/>
      <point x="218" y="40"/>
      <point x="191" y="46"/>
      <point x="184" y="51" type="curve"/>
      <point x="181" y="57"/>
      <point x="178" y="94"/>
      <point x="178" y="185" type="curve" smooth="yes"/>
      <point x="178" y="342" type="line" smooth="yes"/>
      <point x="178" y="433"/>
      <point x="181" y="470"/>
      <point x="184" y="476" type="curve"/>
      <point x="191" y="482"/>
      <point x="218" y="488"/>
      <point x="240" y="489" type="curve"/>
      <point x="238" y="530" type="line"/>
      <point x="210" y="528"/>
      <point x="169" y="527"/>
      <point x="136" y="527" type="curve" smooth="yes"/>
      <point x="103" y="527"/>
      <point x="61" y="528"/>
      <point x="33" y="530" type="curve"/>
      <point x="31" y="489" type="line"/>
      <point x="53" y="488"/>
      <point x="80" y="482"/>
      <point x="87" y="476" type="curve"/>
      <point x="90" y="470"/>
      <point x="93" y="433"/>
      <point x="93" y="342" type="curve" smooth="yes"/>
      <point x="93" y="185" type="line" smooth="yes"/>
      <point x="93" y="94"/>
      <point x="90" y="57"/>
      <point x="87" y="51" type="curve"/>
      <point x="80" y="46"/>
      <point x="53" y="40"/>
      <point x="31" y="38" type="curve"/>
    </contour>
    <contour>
      <point x="136" y="0" type="move" name="bottom"/>
    </contour>
    <contour>
      <point x="189" y="0" type="move" name="ogonek"/>
    </contour>
    <contour>
      <point x="136" y="528" type="move" name="top"/>
    </contour>
    <contour>
      <point x="16" y="528" type="move" name="topleft"/>
    </contour>
  </outline>
</glyph>
<glyph name="K" format="1">
  <advance width="536"/>
  <unicode hex="004B"/>
  <outline>
    <contour>
      <point x="324" y="-3" type="line"/>
      <point x="351" y="-1"/>
      <point x="397" y="2"/>
      <point x="429" y="2" type="curve" smooth="yes"/>
      <point x="463" y="2"/>
      <point x="506" y="1"/>
      <point x="543" y="-2" type="curve"/>
      <point x="543" y="39" type="line"/>
      <point x="525" y="41"/>
      <point x="511" y="44"/>
      <point x="496" y="48" type="curve"/>
      <point x="483" y="59"/>
      <point x="463" y="78"/>
      <point x="433" y="117" type="curve" smooth="yes"/>
      <point x="261" y="315" type="line"/>
      <point x="259" y="283" type="line"/>
      <point x="473" y="479" type="line"/>
      <point x="489" y="483"/>
      <point x="511" y="486"/>
      <point x="527" y="488" type="curve"/>
      <point x="525" y="529" type="line"/>
      <point x="502" y="528"/>
      <point x="463" y="527"/>
      <point x="438" y="527" type="curve" smooth="yes"/>
      <point x="413" y="527"/>
      <point x="370" y="527"/>
      <point x="344" y="528" type="curve"/>
      <point x="343" y="487" type="line"/>
      <point x="358" y="486"/>
      <point x="382" y="483"/>
      <point x="399" y="479" type="curve"/>
      <point x="212" y="288" type="line"/>
      <point x="168" y="277" type="line"/>
      <point x="168" y="240" type="line"/>
      <point x="201" y="240" type="line"/>
      <point x="339" y="91" type="line" smooth="yes"/>
      <point x="355" y="73"/>
      <point x="366" y="59"/>
      <point x="374" y="47" type="curve"/>
      <point x="366" y="44"/>
      <point x="341" y="39"/>
      <point x="322" y="38" type="curve"/>
    </contour>
    <contour>
      <point x="35" y="-3" type="line"/>
      <point x="62" y="-1"/>
      <point x="103" y="2"/>
      <point x="136" y="2" type="curve" smooth="yes"/>
      <point x="169" y="2"/>
      <point x="209" y="-1"/>
      <point x="234" y="-3" type="curve"/>
      <point x="236" y="38" type="line"/>
      <point x="217" y="40"/>
      <point x="190" y="46"/>
      <point x="183" y="51" type="curve"/>
      <point x="180" y="57"/>
      <point x="178" y="94"/>
      <point x="178" y="185" type="curve" smooth="yes"/>
      <point x="178" y="342" type="line" smooth="yes"/>
      <point x="178" y="433"/>
      <point x="181" y="470"/>
      <point x="184" y="476" type="curve"/>
      <point x="191" y="482"/>
      <point x="218" y="488"/>
      <point x="240" y="489" type="curve"/>
      <point x="238" y="530" type="line"/>
      <point x="210" y="528"/>
      <point x="169" y="526"/>
      <point x="136" y="526" type="curve" smooth="yes"/>
      <point x="103" y="526"/>
      <point x="61" y="528"/>
      <point x="33" y="530" type="curve"/>
      <point x="31" y="489" type="line"/>
      <point x="53" y="488"/>
      <point x="80" y="482"/>
      <point x="87" y="476" type="curve"/>
      <point x="90" y="470"/>
      <point x="93" y="433"/>
      <point x="93" y="342" type="curve" smooth="yes"/>
      <point x="93" y="185" type="line" smooth="yes"/>
      <point x="93" y="94"/>
      <point x="90" y="57"/>
      <point x="87" y="51" type="curve"/>
      <point x="80" y="46"/>
      <point x="54" y="40"/>
      <point x="33" y="38" type="curve"/>
    </contour>
    <contour>
      <point x="278" y="0" type="move" name="bottom"/>
    </contour>
    <contour>
      <point x="278" y="528" type="move" name="top"/>
    </contour>
  </outline>
</glyph>
<glyph name="L" format="1">
  <advance width="460"/>
  <unicode hex="004C"/>
  <outline>
    <contour>
      <point x="419" y="-5" type="curve"/>
      <point x="457" y="140" type="line"/>
      <point x="414" y="150" type="line"/>
      <point x="394" y="110"/>
      <point x="379" y="78"/>
      <point x="367" y="58" type="curve"/>
      <point x="346" y="55"/>
      <point x="330" y="54"/>
      <point x="302" y="54" type="curve" smooth="yes"/>
      <point x="243" y="54" type="line" smooth="yes"/>
      <point x="215" y="54"/>
      <point x="198" y="55"/>
      <point x="183" y="57" type="curve"/>
      <point x="182" y="68"/>
      <point x="180" y="109"/>
      <point x="180" y="185" type="curve" smooth="yes"/>
      <point x="180" y="342" type="line" smooth="yes"/>
      <point x="180" y="433"/>
      <point x="183" y="470"/>
      <point x="186" y="476" type="curve"/>
      <point x="193" y="481"/>
      <point x="222" y="486"/>
      <point x="262" y="489" type="curve"/>
      <point x="260" y="530" type="line"/>
      <point x="224" y="528"/>
      <point x="185" y="527"/>
      <point x="148" y="527" type="curve" smooth="yes"/>
      <point x="118" y="527"/>
      <point x="63" y="528"/>
      <point x="35" y="530" type="curve"/>
      <point x="33" y="489" type="line"/>
      <point x="55" y="488"/>
      <point x="82" y="482"/>
      <point x="89" y="476" type="curve"/>
      <point x="92" y="470"/>
      <point x="95" y="433"/>
      <point x="95" y="342" type="curve" smooth="yes"/>
      <point x="95" y="185" type="line" smooth="yes"/>
      <point x="95" y="94"/>
      <point x="92" y="57"/>
      <point x="89" y="51" type="curve"/>
      <point x="82" y="46"/>
      <point x="55" y="40"/>
      <point x="33" y="38" type="curve"/>
      <point x="35" y="-3" type="line"/>
      <point x="63" y="-1"/>
      <point x="108" y="0"/>
      <point x="138" y="0" type="curve" smooth="yes"/>
      <point x="322" y="0" type="line" smooth="yes"/>
      <point x="353" y="0"/>
      <point x="391" y="-2"/>
    </contour>
    <contour>
      <point x="248" y="0" type="move" name="bottom"/>
    </contour>
    <contour>
      <point x="169" y="272" type="move" name="center"/>
    </contour>
    <contour>
      <point x="312" y="288" type="move" name="dotacc"/>
    </contour>
    <contour>
      <point x="137" y="528" type="move" name="top"/>
    </contour>
    <contour>
      <point x="325" y="528" type="move" name="topright"/>
    </contour>
  </outline>
</glyph>
<glyph name="N" format="1">
  <advance width="592"/>
  <unicode hex="004E"/>
  <outline>
    <contour>
      <point x="447" y="142" type="line"/>
      <point x="466" y="142" type="line"/>
      <point x="161" y="529" type="line"/>
      <point x="146" y="528"/>
      <point x="120" y="527"/>
      <point x="100" y="527" type="curve" smooth="yes"/>
      <point x="80" y="527"/>
      <point x="61" y="527"/>
      <point x="33" y="529" type="curve"/>
      <point x="31" y="488" type="line"/>
      <point x="52" y="488"/>
      <point x="79" y="482"/>
      <point x="86" y="476" type="curve"/>
      <point x="90" y="468"/>
      <point x="93" y="433"/>
      <point x="93" y="354" type="curve" smooth="yes"/>
      <point x="93" y="211" type="line" smooth="yes"/>
      <point x="93" y="100"/>
      <point x="89" y="57"/>
      <point x="86" y="51" type="curve"/>
      <point x="79" y="46"/>
      <point x="51" y="40"/>
      <point x="27" y="38" type="curve"/>
      <point x="29" y="-3" type="line"/>
      <point x="59" y="-1"/>
      <point x="91" y="2"/>
      <point x="116" y="2" type="curve" smooth="yes"/>
      <point x="141" y="2"/>
      <point x="181" y="-1"/>
      <point x="211" y="-3" type="curve"/>
      <point x="213" y="38" type="line"/>
      <point x="189" y="40"/>
      <point x="160" y="46"/>
      <point x="154" y="51" type="curve"/>
      <point x="150" y="57"/>
      <point x="146" y="100"/>
      <point x="147" y="211" type="curve" smooth="yes"/>
      <point x="147" y="431" type="line"/>
      <point x="122" y="431" type="line"/>
      <point x="457" y="-4" type="line"/>
      <point x="499" y="-4" type="line"/>
      <point x="499" y="38"/>
      <point x="499" y="78"/>
      <point x="499" y="121" type="curve" smooth="yes"/>
      <point x="499" y="322" type="line" smooth="yes"/>
      <point x="499" y="428"/>
      <point x="502" y="471"/>
      <point x="505" y="477" type="curve"/>
      <point x="512" y="482"/>
      <point x="541" y="488"/>
      <point x="564" y="489" type="curve"/>
      <point x="562" y="530" type="line"/>
      <point x="532" y="528"/>
      <point x="502" y="527"/>
      <point x="476" y="527" type="curve" smooth="yes"/>
      <point x="451" y="527"/>
      <point x="413" y="528"/>
      <point x="383" y="530" type="curve"/>
      <point x="381" y="489" type="line"/>
      <point x="405" y="488"/>
      <point x="433" y="482"/>
      <point x="440" y="477" type="curve"/>
      <point x="443" y="471"/>
      <point x="447" y="428"/>
      <point x="447" y="322" type="curve" smooth="yes"/>
    </contour>
    <contour>
      <point x="296" y="0" type="move" name="bottom"/>
    </contour>
    <contour>
      <point x="296" y="528" type="move" name="top"/>
    </contour>
  </outline>
</glyph>
<glyph name="Q" format="1">
  <advance width="621"/>
  <unicode hex="0051"/>
  <outline>
    <contour>
      <point x="316" y="-7" type="curve"/>
      <point x="321" y="-5" type="line"/>
      <point x="457" y="-5"/>
      <point x="576" y="101"/>
      <point x="576" y="269" type="curve" smooth="yes"/>
      <point x="576" y="427"/>
      <point x="470" y="536"/>
      <point x="318" y="536" type="curve" smooth="yes"/>
      <point x="162" y="536"/>
      <point x="45" y="419"/>
      <point x="45" y="260" type="curve" smooth="yes"/>
      <point x="45" y="102"/>
      <point x="157" y="-7"/>
    </contour>
    <contour>
      <point x="541" y="-125" type="curve" smooth="yes"/>
      <point x="586" y="-125"/>
      <point x="628" y="-113"/>
      <point x="659" y="-94" type="curve"/>
      <point x="650" y="-54" type="line"/>
      <point x="630" y="-60"/>
      <point x="611" y="-62"/>
      <point x="593" y="-62" type="curve" smooth="yes"/>
      <point x="556" y="-62"/>
      <point x="524" y="-53"/>
      <point x="480" y="-27" type="curve" smooth="yes"/>
      <point x="445" y="-7"/>
      <point x="412" y="5"/>
      <point x="371" y="8" type="curve"/>
      <point x="246" y="8" type="line"/>
      <point x="274" y="-3"/>
      <point x="298" y="-18"/>
      <point x="323" y="-34" type="curve" smooth="yes"/>
      <point x="345" y="-48"/>
      <point x="366" y="-61"/>
      <point x="386" y="-73" type="curve" smooth="yes"/>
      <point x="430" y="-103"/>
      <point x="478" y="-125"/>
    </contour>
    <contour>
      <point x="324" y="46" type="curve" smooth="yes"/>
      <point x="221" y="46"/>
      <point x="147" y="143"/>
      <point x="147" y="280" type="curve" smooth="yes"/>
      <point x="147" y="406"/>
      <point x="207" y="486"/>
      <point x="307" y="486" type="curve" smooth="yes"/>
      <point x="408" y="486"/>
      <point x="476" y="389"/>
      <point x="476" y="247" type="curve" smooth="yes"/>
      <point x="476" y="122"/>
      <point x="418" y="46"/>
    </contour>
    <contour>
      <point x="310" y="0" type="move" name="bottom"/>
    </contour>
    <contour>
      <point x="310" y="528" type="move" name="top"/>
    </contour>
  </outline>
</glyph>
<glyph name="R" format="1">
  <advance width="512"/>
  <unicode hex="0052"/>
  <outline>
    <contour>
      <point x="35" y="-3" type="line"/>
      <point x="62" y="-1"/>
      <point x="103" y="2"/>
      <point x="136" y="2" type="curve" smooth="yes"/>
      <point x="169" y="2"/>
      <point x="209" y="-1"/>
      <point x="235" y="-3" type="curve"/>
      <point x="237" y="38" type="line"/>
      <point x="217" y="40"/>
      <point x="191" y="46"/>
      <point x="182" y="51" type="curve"/>
      <point x="180" y="58"/>
      <point x="178" y="94"/>
      <point x="178" y="185" type="curve" smooth="yes"/>
      <point x="178" y="353" type="line" smooth="yes"/>
      <point x="178" y="432"/>
      <point x="179" y="477"/>
      <point x="180" y="483" type="curve"/>
      <point x="190" y="486"/>
      <point x="209" y="488"/>
      <point x="228" y="488" type="curve" smooth="yes"/>
      <point x="289" y="488"/>
      <point x="329" y="458"/>
      <point x="329" y="392" type="curve" smooth="yes"/>
      <point x="329" y="324"/>
      <point x="283" y="288"/>
      <point x="214" y="288" type="curve" smooth="yes"/>
      <point x="199" y="288"/>
      <point x="186" y="288"/>
      <point x="167" y="289" type="curve"/>
      <point x="167" y="244" type="line"/>
      <point x="223" y="244" type="line" smooth="yes"/>
      <point x="336" y="244"/>
      <point x="418" y="308"/>
      <point x="418" y="397" type="curve" smooth="yes"/>
      <point x="418" y="487"/>
      <point x="357" y="530"/>
      <point x="242" y="530" type="curve" smooth="yes"/>
      <point x="198" y="530"/>
      <point x="157" y="527"/>
      <point x="128" y="527" type="curve" smooth="yes"/>
      <point x="97" y="527"/>
      <point x="67" y="527"/>
      <point x="33" y="529" type="curve"/>
      <point x="31" y="487" type="line"/>
      <point x="53" y="488"/>
      <point x="80" y="483"/>
      <point x="87" y="477" type="curve"/>
      <point x="90" y="471"/>
      <point x="93" y="433"/>
      <point x="93" y="342" type="curve" smooth="yes"/>
      <point x="93" y="185" type="line" smooth="yes"/>
      <point x="93" y="94"/>
      <point x="90" y="57"/>
      <point x="87" y="51" type="curve"/>
      <point x="80" y="46"/>
      <point x="54" y="40"/>
      <point x="33" y="38" type="curve"/>
    </contour>
    <contour>
      <point x="472" y="-10" type="curve" smooth="yes"/>
      <point x="485" y="-10"/>
      <point x="501" y="-8"/>
      <point x="514" y="-6" type="curve"/>
      <point x="515" y="30" type="line"/>
      <point x="473" y="38"/>
      <point x="443" y="63"/>
      <point x="389" y="131" type="curve" smooth="yes"/>
      <point x="291" y="276" type="line"/>
      <point x="217" y="258" type="line"/>
      <point x="276" y="147" type="line" smooth="yes"/>
      <point x="339" y="32"/>
      <point x="388" y="-10"/>
    </contour>
    <contour>
      <point x="277" y="0" type="move" name="bottom"/>
    </contour>
    <contour>
      <point x="240" y="528" type="move" name="top"/>
    </contour>
  </outline>
</glyph>
<glyph name="V" format="1">
  <advance width="528"/>
  <unicode hex="0056"/>
  <outline>
    <contour>
      <point x="247" y="-3" type="line"/>
      <point x="287" y="-3" type="line"/>
      <point x="490" y="478" type="line"/>
      <point x="496" y="482"/>
      <point x="517" y="487"/>
      <point x="534" y="488" type="curve"/>
      <point x="532" y="529" type="line"/>
      <point x="509" y="529"/>
      <point x="486" y="528"/>
      <point x="460" y="528" type="curve" smooth="yes"/>
      <point x="435" y="528"/>
      <point x="395" y="529"/>
      <point x="367" y="529" type="curve"/>
      <point x="365" y="488" type="line"/>
      <point x="388" y="487"/>
      <point x="415" y="482"/>
      <point x="424" y="479" type="curve"/>
      <point x="278" y="99" type="line"/>
      <point x="303" y="99" type="line"/>
      <point x="148" y="479" type="line"/>
      <point x="156" y="482"/>
      <point x="183" y="487"/>
      <point x="207" y="488" type="curve"/>
      <point x="205" y="529" type="line"/>
      <point x="174" y="528"/>
      <point x="131" y="527"/>
      <point x="101" y="527" type="curve" smooth="yes"/>
      <point x="71" y="527"/>
      <point x="31" y="528"/>
      <point x="6" y="529" type="curve"/>
      <point x="4" y="488" type="line"/>
      <point x="20" y="487"/>
      <point x="41" y="482"/>
      <point x="48" y="478" type="curve"/>
    </contour>
    <contour>
      <point x="264" y="0" type="move" name="bottom"/>
    </contour>
    <contour>
      <point x="264" y="528" type="move" name="top"/>
    </contour>
  </outline>
</glyph>
<glyph name="X" format="1">
  <advance width="521"/>
  <unicode hex="0058"/>
  <outline>
    <contour>
      <point x="523" y="-3" type="curve"/>
      <point x="525" y="38" type="line"/>
      <point x="508" y="40"/>
      <point x="487" y="46"/>
      <point x="481" y="51" type="curve"/>
      <point x="306" y="296" type="line"/>
      <point x="279" y="337" type="line"/>
      <point x="175" y="478" type="line"/>
      <point x="182" y="482"/>
      <point x="206" y="488"/>
      <point x="226" y="488" type="curve"/>
      <point x="224" y="529" type="line"/>
      <point x="199" y="528"/>
      <point x="153" y="527"/>
      <point x="118" y="527" type="curve" smooth="yes"/>
      <point x="81" y="527"/>
      <point x="47" y="528"/>
      <point x="25" y="529" type="curve"/>
      <point x="24" y="488" type="line"/>
      <point x="40" y="488"/>
      <point x="62" y="482"/>
      <point x="67" y="477" type="curve"/>
      <point x="220" y="261" type="line"/>
      <point x="250" y="220" type="line"/>
      <point x="372" y="51" type="line"/>
      <point x="365" y="46"/>
      <point x="338" y="40"/>
      <point x="316" y="38" type="curve"/>
      <point x="318" y="-3" type="line"/>
      <point x="346" y="-1"/>
      <point x="400" y="2"/>
      <point x="431" y="2" type="curve" smooth="yes"/>
      <point x="464" y="2"/>
      <point x="501" y="-1"/>
    </contour>
    <contour>
      <point x="380" y="478" type="curve"/>
      <point x="279" y="337" type="line"/>
      <point x="220" y="261" type="line"/>
      <point x="61" y="51" type="line"/>
      <point x="56" y="46"/>
      <point x="34" y="40"/>
      <point x="17" y="38" type="curve"/>
      <point x="19" y="-2" type="line"/>
      <point x="42" y="-1"/>
      <point x="76" y="2"/>
      <point x="95" y="2" type="curve" smooth="yes"/>
      <point x="114" y="2"/>
      <point x="155" y="-1"/>
      <point x="181" y="-2" type="curve"/>
      <point x="183" y="38" type="line"/>
      <point x="162" y="38"/>
      <point x="133" y="48"/>
      <point x="128" y="51" type="curve"/>
      <point x="250" y="220" type="line"/>
      <point x="306" y="296" type="line"/>
      <point x="446" y="478" type="line"/>
      <point x="451" y="482"/>
      <point x="472" y="488"/>
      <point x="489" y="488" type="curve"/>
      <point x="488" y="529" type="line"/>
      <point x="466" y="528"/>
      <point x="442" y="527"/>
      <point x="420" y="527" type="curve" smooth="yes"/>
      <point x="392" y="527"/>
      <point x="351" y="529"/>
      <point x="332" y="529" type="curve"/>
      <point x="331" y="488" type="line"/>
      <point x="350" y="488"/>
      <point x="375" y="482"/>
    </contour>
    <contour>
      <point x="261" y="0" type="move" name="bottom"/>
    </contour>
    <contour>
      <point x="261" y="528" type="move" name="top"/>
    </contour>
  </outline>
</glyph>
<glyph name="Y" format="1">
  <advance width="488"/>
  <unicode hex="0059"/>
  <outline>
    <contour>
      <point x="447" y="479" type="line"/>
      <point x="458" y="483"/>
      <point x="479" y="487"/>
      <point x="491" y="488" type="curve"/>
      <point x="489" y="529" type="line"/>
      <point x="467" y="529"/>
      <point x="443" y="528"/>
      <point x="419" y="528" type="curve" smooth="yes"/>
      <point x="395" y="528"/>
      <point x="355" y="529"/>
      <point x="326" y="529" type="curve"/>
      <point x="324" y="488" type="line"/>
      <point x="342" y="486"/>
      <point x="370" y="482"/>
      <point x="384" y="479" type="curve"/>
      <point x="258" y="270" type="line"/>
      <point x="273" y="270" type="line"/>
      <point x="143" y="479" type="line"/>
      <point x="155" y="482"/>
      <point x="183" y="486"/>
      <point x="203" y="488" type="curve"/>
      <point x="202" y="529" type="line"/>
      <point x="171" y="528"/>
      <point x="125" y="527"/>
      <point x="96" y="527" type="curve" smooth="yes"/>
      <point x="65" y="527"/>
      <point x="27" y="528"/>
      <point x="1" y="529" type="curve"/>
      <point x="-1" y="488" type="line"/>
      <point x="12" y="487"/>
      <point x="32" y="483"/>
      <point x="43" y="479" type="curve"/>
      <point x="222" y="186" type="line"/>
      <point x="202" y="256" type="line"/>
      <point x="202" y="169" type="line" smooth="yes"/>
      <point x="202" y="94"/>
      <point x="199" y="57"/>
      <point x="196" y="51" type="curve"/>
      <point x="189" y="46"/>
      <point x="162" y="40"/>
      <point x="132" y="38" type="curve"/>
      <point x="134" y="-3" type="line"/>
      <point x="170" y="-1"/>
      <point x="212" y="2"/>
      <point x="244" y="2" type="curve" smooth="yes"/>
      <point x="277" y="2"/>
      <point x="318" y="-1"/>
      <point x="354" y="-3" type="curve"/>
      <point x="356" y="38" type="line"/>
      <point x="327" y="40"/>
      <point x="300" y="46"/>
      <point x="293" y="51" type="curve"/>
      <point x="290" y="57"/>
      <point x="287" y="94"/>
      <point x="287" y="169" type="curve" smooth="yes"/>
      <point x="287" y="256" type="line"/>
      <point x="260" y="186" type="line"/>
    </contour>
    <contour>
      <point x="244" y="0" type="move" name="bottom"/>
    </contour>
    <contour>
      <point x="244" y="528" type="move" name="top"/>
    </contour>
    <contour>
      <point x="16" y="528" type="move" name="topleft"/>
    </contour>
  </outline>
</glyph>
<glyph name="Z" format="1">
  <advance width="478"/>
  <unicode hex="005A"/>
  <outline>
    <contour>
      <point x="439" y="-4" type="curve"/>
      <point x="462" y="148" type="line"/>
      <point x="421" y="153" type="line"/>
      <point x="406" y="107"/>
      <point x="394" y="74"/>
      <point x="383" y="51" type="curve"/>
      <point x="372" y="49"/>
      <point x="360" y="48"/>
      <point x="348" y="48" type="curve" smooth="yes"/>
      <point x="147" y="48" type="line"/>
      <point x="147" y="17" type="line"/>
      <point x="434" y="492" type="line"/>
      <point x="434" y="530" type="line"/>
      <point x="411" y="529"/>
      <point x="388" y="528"/>
      <point x="365" y="528" type="curve" smooth="yes"/>
      <point x="117" y="528" type="line" smooth="yes"/>
      <point x="95" y="528"/>
      <point x="67" y="528"/>
      <point x="40" y="529" type="curve"/>
      <point x="41" y="386" type="line"/>
      <point x="83" y="386" type="line"/>
      <point x="87" y="427"/>
      <point x="91" y="454"/>
      <point x="96" y="478" type="curve"/>
      <point x="112" y="480"/>
      <point x="130" y="481"/>
      <point x="158" y="481" type="curve" smooth="yes"/>
      <point x="345" y="481" type="line"/>
      <point x="345" y="514" type="line"/>
      <point x="55" y="35" type="line"/>
      <point x="55" y="-2" type="line"/>
      <point x="78" y="-1"/>
      <point x="101" y="0"/>
      <point x="124" y="0" type="curve" smooth="yes"/>
      <point x="345" y="0" type="line" smooth="yes"/>
      <point x="374" y="0"/>
      <point x="411" y="-2"/>
    </contour>
    <contour>
      <point x="239" y="0" type="move" name="bottom"/>
    </contour>
    <contour>
      <point x="239" y="528" type="move" name="top"/>
    </contour>
  </outline>
</glyph>
<glyph name="a" format="1">
  <advance width="387"/>
  <unicode hex="0061"/>
  <outline>
    <contour>
      <point x="149" y="-6" type="curve" smooth="yes"/>
      <point x="176" y="-6"/>
      <point x="210" y="9"/>
      <point x="250" y="56" type="curve"/>
      <point x="236" y="60" type="line"/>
      <point x="247" y="25" type="line" smooth="yes"/>
      <point x="253" y="6"/>
      <point x="264" y="-6"/>
      <point x="284" y="-6" type="curve" smooth="yes"/>
      <point x="304" y="-6"/>
      <point x="329" y="8"/>
      <point x="370" y="24" type="curve"/>
      <point x="370" y="54" type="line"/>
      <point x="355" y="56"/>
      <point x="329" y="60"/>
      <point x="319" y="65" type="curve"/>
      <point x="316" y="75"/>
      <point x="313" y="92"/>
      <point x="313" y="118" type="curve"/>
      <point x="315" y="238" type="line"/>
      <point x="315" y="311"/>
      <point x="257" y="356"/>
      <point x="175" y="356" type="curve"/>
      <point x="120" y="349"/>
      <point x="40" y="302"/>
      <point x="40" y="262" type="curve" smooth="yes"/>
      <point x="40" y="231"/>
      <point x="74" y="216"/>
      <point x="117" y="227" type="curve"/>
      <point x="119" y="271" type="line" smooth="yes"/>
      <point x="121" y="297"/>
      <point x="127" y="304"/>
      <point x="151" y="304" type="curve" smooth="yes"/>
      <point x="193" y="304"/>
      <point x="234" y="274"/>
      <point x="234" y="237" type="curve" smooth="yes"/>
      <point x="234" y="204" type="line"/>
      <point x="111" y="166" type="line" smooth="yes"/>
      <point x="56" y="149"/>
      <point x="36" y="124"/>
      <point x="36" y="88" type="curve" smooth="yes"/>
      <point x="36" y="47"/>
      <point x="80" y="-6"/>
    </contour>
    <contour>
      <point x="179" y="58" type="curve" smooth="yes"/>
      <point x="151" y="58"/>
      <point x="123" y="81"/>
      <point x="123" y="108" type="curve" smooth="yes"/>
      <point x="123" y="129"/>
      <point x="133" y="141"/>
      <point x="159" y="146" type="curve" smooth="yes"/>
      <point x="234" y="161" type="line"/>
      <point x="234" y="81" type="line"/>
      <point x="216" y="64"/>
      <point x="197" y="58"/>
    </contour>
    <contour>
      <point x="194" y="0" type="move" name="bottom"/>
    </contour>
    <contour>
      <point x="344" y="0" type="move" name="ogonek"/>
    </contour>
    <contour>
      <point x="185" y="349" type="move" name="top"/>
    </contour>
  </outline>
</glyph>
<glyph name="b" format="1">
  <advance width="447"/>
  <unicode hex="0062"/>
  <outline>
    <contour>
      <point x="71" y="23" type="curve"/>
      <point x="112" y="4"/>
      <point x="159" y="-6"/>
      <point x="206" y="-6" type="curve" smooth="yes"/>
      <point x="325" y="-6"/>
      <point x="412" y="81"/>
      <point x="412" y="192" type="curve" smooth="yes"/>
      <point x="412" y="295"/>
      <point x="342" y="356"/>
      <point x="263" y="356" type="curve" smooth="yes"/>
      <point x="218" y="356"/>
      <point x="176" y="330"/>
      <point x="152" y="297" type="curve"/>
      <point x="149" y="298" type="line"/>
      <point x="151" y="424"/>
      <point x="152" y="478"/>
      <point x="156" y="544" type="curve"/>
      <point x="137" y="557" type="line"/>
      <point x="101" y="540"/>
      <point x="58" y="526"/>
      <point x="15" y="516" type="curve"/>
      <point x="16" y="482" type="line"/>
      <point x="30" y="482"/>
      <point x="53" y="480"/>
      <point x="69" y="478" type="curve"/>
      <point x="71" y="456"/>
      <point x="73" y="380"/>
      <point x="73" y="289" type="curve"/>
      <point x="73" y="180" type="line"/>
      <point x="73" y="126"/>
      <point x="73" y="76"/>
    </contour>
    <contour>
      <point x="225" y="50" type="curve" smooth="yes"/>
      <point x="195" y="50"/>
      <point x="170" y="58"/>
      <point x="151" y="71" type="curve"/>
      <point x="151" y="254" type="line"/>
      <point x="170" y="275"/>
      <point x="198" y="287"/>
      <point x="227" y="287" type="curve" smooth="yes"/>
      <point x="281" y="287"/>
      <point x="325" y="252"/>
      <point x="325" y="171" type="curve" smooth="yes"/>
      <point x="324" y="88"/>
      <point x="282" y="50"/>
    </contour>
    <contour>
      <point x="227" y="0" type="move" name="bottom"/>
    </contour>
    <contour>
      <point x="227" y="528" type="move" name="top"/>
    </contour>
  </outline>
</glyph>
<glyph name="d" format="1">
  <advance width="446"/>
  <unicode hex="0064"/>
  <outline>
    <contour>
      <point x="309" y="-10" type="line"/>
      <point x="343" y="3"/>
      <point x="384" y="15"/>
      <point x="429" y="23" type="curve"/>
      <point x="429" y="55" type="line"/>
      <point x="413" y="58"/>
      <point x="385" y="62"/>
      <point x="375" y="67" type="curve"/>
      <point x="373" y="85"/>
      <point x="369" y="120"/>
      <point x="369" y="175" type="curve"/>
      <point x="370" y="361" type="line" smooth="yes"/>
      <point x="370" y="423"/>
      <point x="371" y="478"/>
      <point x="374" y="544" type="curve"/>
      <point x="356" y="557" type="line"/>
      <point x="320" y="540"/>
      <point x="277" y="526"/>
      <point x="233" y="516" type="curve"/>
      <point x="234" y="482" type="line"/>
      <point x="248" y="482"/>
      <point x="271" y="480"/>
      <point x="287" y="478" type="curve"/>
      <point x="289" y="456"/>
      <point x="291" y="381"/>
      <point x="291" y="341" type="curve"/>
      <point x="274" y="350"/>
      <point x="244" y="355"/>
      <point x="218" y="355" type="curve" smooth="yes"/>
      <point x="127" y="355"/>
      <point x="33" y="282"/>
      <point x="33" y="163" type="curve" smooth="yes"/>
      <point x="33" y="61"/>
      <point x="102" y="-7"/>
      <point x="191" y="-7" type="curve" smooth="yes"/>
      <point x="228" y="-7"/>
      <point x="262" y="9"/>
      <point x="291" y="54" type="curve"/>
      <point x="294" y="53" type="line"/>
      <point x="293" y="2" type="line"/>
    </contour>
    <contour>
      <point x="219" y="63" type="curve" smooth="yes"/>
      <point x="164" y="63"/>
      <point x="120" y="108"/>
      <point x="120" y="189" type="curve" smooth="yes"/>
      <point x="120" y="265"/>
      <point x="161" y="311"/>
      <point x="218" y="311" type="curve" smooth="yes"/>
      <point x="244" y="311"/>
      <point x="274" y="302"/>
      <point x="292" y="277" type="curve"/>
      <point x="292" y="100" type="line"/>
      <point x="269" y="73"/>
      <point x="244" y="63"/>
    </contour>
    <contour>
      <point x="235" y="0" type="move" name="bottom"/>
    </contour>
    <contour>
      <point x="223" y="175" type="move" name="center"/>
    </contour>
    <contour>
      <point x="285" y="415" type="move" name="stroke"/>
    </contour>
    <contour>
      <point x="223" y="550" type="move" name="top"/>
    </contour>
    <contour>
      <point x="401" y="550" type="move" name="topright"/>
    </contour>
  </outline>
</glyph>
<glyph name="e" format="1">
  <advance width="379"/>
  <unicode hex="0065"/>
  <outline>
    <contour>
      <point x="203" y="-6" type="curve" smooth="yes"/>
      <point x="264" y="-6"/>
      <point x="316" y="25"/>
      <point x="346" y="87" type="curve"/>
      <point x="323" y="108" type="line"/>
      <point x="294" y="75"/>
      <point x="266" y="63"/>
      <point x="230" y="63" type="curve" smooth="yes"/>
      <point x="162" y="63"/>
      <point x="116" y="113"/>
      <point x="116" y="192" type="curve" smooth="yes"/>
      <point x="116" y="207" type="line" smooth="yes"/>
      <point x="116" y="280"/>
      <point x="155" y="315"/>
      <point x="199" y="315" type="curve" smooth="yes"/>
      <point x="243" y="315"/>
      <point x="269" y="282"/>
      <point x="269" y="228" type="curve" smooth="yes"/>
      <point x="269" y="204" type="line"/>
      <point x="280" y="221" type="line"/>
      <point x="103" y="221" type="line"/>
      <point x="103" y="181" type="line"/>
      <point x="343" y="181" type="line"/>
      <point x="343" y="198" type="line" smooth="yes"/>
      <point x="343" y="292"/>
      <point x="296" y="355"/>
      <point x="205" y="356" type="curve" smooth="yes"/>
      <point x="115" y="356"/>
      <point x="33" y="282"/>
      <point x="33" y="169" type="curve" smooth="yes"/>
      <point x="33" y="67"/>
      <point x="106" y="-6"/>
    </contour>
    <contour>
      <point x="198" y="0" type="move" name="bottom"/>
    </contour>
    <contour>
      <point x="301" y="0" type="move" name="ogonek"/>
    </contour>
    <contour>
      <point x="198" y="349" type="move" name="top"/>
    </contour>
  </outline>
</glyph>
<glyph name="f" format="1">
  <advance width="249"/>
  <unicode hex="0066"/>
  <outline>
    <contour>
      <point x="224" y="-3" type="curve"/>
      <point x="225" y="34" type="line"/>
      <point x="203" y="37"/>
      <point x="170" y="43"/>
      <point x="157" y="48" type="curve"/>
      <point x="155" y="56"/>
      <point x="153" y="90"/>
      <point x="152" y="180" type="curve" smooth="yes"/>
      <point x="150" y="300" type="line"/>
      <point x="148" y="348" type="line"/>
      <point x="148" y="411" type="line" smooth="yes"/>
      <point x="148" y="501"/>
      <point x="177" y="525"/>
      <point x="205" y="525" type="curve"/>
      <point x="180" y="530" type="line"/>
      <point x="220" y="490" type="line" smooth="yes"/>
      <point x="234" y="476"/>
      <point x="245" y="470"/>
      <point x="262" y="470" type="curve" smooth="yes"/>
      <point x="280" y="470"/>
      <point x="292" y="481"/>
      <point x="292" y="502" type="curve" smooth="yes"/>
      <point x="292" y="534"/>
      <point x="257" y="558"/>
      <point x="210" y="558" type="curve" smooth="yes"/>
      <point x="132" y="558"/>
      <point x="71" y="488"/>
      <point x="71" y="379" type="curve" smooth="yes"/>
      <point x="71" y="300" type="line"/>
      <point x="73" y="162" type="line"/>
      <point x="73" y="87"/>
      <point x="71" y="54"/>
      <point x="70" y="48" type="curve"/>
      <point x="63" y="43"/>
      <point x="34" y="37"/>
      <point x="19" y="35" type="curve"/>
      <point x="21" y="-2" type="line"/>
      <point x="47" y="0"/>
      <point x="86" y="2"/>
      <point x="119" y="2" type="curve" smooth="yes"/>
      <point x="150" y="2"/>
      <point x="186" y="0"/>
    </contour>
    <contour>
      <point x="13" y="300" type="line"/>
      <point x="237" y="300" type="line"/>
      <point x="237" y="348" type="line"/>
      <point x="126" y="348" type="line"/>
      <point x="71" y="350" type="line"/>
      <point x="51" y="343"/>
      <point x="33" y="337"/>
      <point x="13" y="334" type="curve"/>
    </contour>
  </outline>
</glyph>
<glyph name="g" format="1">
  <advance width="411"/>
  <unicode hex="0067"/>
  <outline>
    <contour>
      <point x="195" y="-182" type="curve" smooth="yes"/>
      <point x="302" y="-182"/>
      <point x="384" y="-124"/>
      <point x="384" y="-49" type="curve" smooth="yes"/>
      <point x="384" y="5"/>
      <point x="345" y="38"/>
      <point x="267" y="46" type="curve" smooth="yes"/>
      <point x="160" y="58" type="line" smooth="yes"/>
      <point x="138" y="60"/>
      <point x="126" y="68"/>
      <point x="126" y="81" type="curve" smooth="yes"/>
      <point x="126" y="91"/>
      <point x="134" y="101"/>
      <point x="153" y="111" type="curve"/>
      <point x="141" y="126" type="line"/>
      <point x="88" y="106"/>
      <point x="57" y="76"/>
      <point x="57" y="44" type="curve" smooth="yes"/>
      <point x="57" y="13"/>
      <point x="89" y="-10"/>
      <point x="133" y="-10" type="curve"/>
      <point x="143" y="-14" type="line"/>
      <point x="231" y="-22" type="line" smooth="yes"/>
      <point x="290" y="-27"/>
      <point x="312" y="-41"/>
      <point x="312" y="-71" type="curve" smooth="yes"/>
      <point x="312" y="-113"/>
      <point x="266" y="-142"/>
      <point x="201" y="-142" type="curve" smooth="yes"/>
      <point x="141" y="-142"/>
      <point x="107" y="-120"/>
      <point x="107" y="-81" type="curve" smooth="yes"/>
      <point x="107" y="-55"/>
      <point x="125" y="-28"/>
      <point x="156" y="-9" type="curve"/>
      <point x="125" y="-4" type="line"/>
      <point x="60" y="-28"/>
      <point x="29" y="-59"/>
      <point x="29" y="-95" type="curve" smooth="yes"/>
      <point x="29" y="-149"/>
      <point x="92" y="-182"/>
    </contour>
    <contour>
      <point x="201" y="97" type="curve" smooth="yes"/>
      <point x="286" y="97"/>
      <point x="349" y="151"/>
      <point x="349" y="225" type="curve" smooth="yes"/>
      <point x="349" y="299"/>
      <point x="286" y="356"/>
      <point x="202" y="356" type="curve" smooth="yes"/>
      <point x="115" y="356"/>
      <point x="50" y="299"/>
      <point x="50" y="222" type="curve" smooth="yes"/>
      <point x="50" y="148"/>
      <point x="112" y="97"/>
    </contour>
    <contour>
      <point x="206" y="137" type="curve" smooth="yes"/>
      <point x="163" y="137"/>
      <point x="134" y="174"/>
      <point x="134" y="228" type="curve" smooth="yes"/>
      <point x="134" y="280"/>
      <point x="161" y="316"/>
      <point x="201" y="316" type="curve" smooth="yes"/>
      <point x="243" y="316"/>
      <point x="270" y="278"/>
      <point x="270" y="222" type="curve" smooth="yes"/>
      <point x="270" y="170"/>
      <point x="245" y="137"/>
    </contour>
    <contour>
      <point x="396" y="288" type="line"/>
      <point x="396" y="347" type="line"/>
      <point x="265" y="333" type="line"/>
      <point x="300" y="298" type="line"/>
    </contour>
    <contour>
      <point x="206" y="-176" type="move" name="bottom"/>
    </contour>
    <contour>
      <point x="203" y="349" type="move" name="top"/>
    </contour>
  </outline>
</glyph>
<glyph name="k" format="1">
  <advance width="413"/>
  <unicode hex="006B"/>
  <outline>
    <contour>
      <point x="27" y="-2" type="line"/>
      <point x="52" y="0"/>
      <point x="84" y="2"/>
      <point x="113" y="2" type="curve" smooth="yes"/>
      <point x="141" y="2"/>
      <point x="173" y="0"/>
      <point x="196" y="-2" type="curve"/>
      <point x="199" y="34" type="line"/>
      <point x="189" y="36"/>
      <point x="163" y="42"/>
      <point x="153" y="47" type="curve"/>
      <point x="153" y="54"/>
      <point x="151" y="81"/>
      <point x="151" y="125" type="curve"/>
      <point x="152" y="310" type="line"/>
      <point x="152" y="421"/>
      <point x="153" y="478"/>
      <point x="156" y="544" type="curve"/>
      <point x="138" y="557" type="line"/>
      <point x="102" y="540"/>
      <point x="59" y="526"/>
      <point x="16" y="516" type="curve"/>
      <point x="17" y="482" type="line"/>
      <point x="31" y="482"/>
      <point x="54" y="480"/>
      <point x="70" y="478" type="curve"/>
      <point x="72" y="456"/>
      <point x="74" y="380"/>
      <point x="74" y="289" type="curve" smooth="yes"/>
      <point x="74" y="183" type="line" smooth="yes"/>
      <point x="74" y="95"/>
      <point x="71" y="53"/>
      <point x="69" y="47" type="curve"/>
      <point x="61" y="42"/>
      <point x="35" y="36"/>
      <point x="25" y="34" type="curve"/>
    </contour>
    <contour>
      <point x="408" y="-2" type="curve"/>
      <point x="409" y="35" type="line"/>
      <point x="397" y="36"/>
      <point x="386" y="38"/>
      <point x="375" y="41" type="curve"/>
      <point x="367" y="48"/>
      <point x="351" y="66"/>
      <point x="333" y="88" type="curve" smooth="yes"/>
      <point x="219" y="223" type="line"/>
      <point x="208" y="189" type="line"/>
      <point x="348" y="305" type="line"/>
      <point x="364" y="309"/>
      <point x="385" y="312"/>
      <point x="402" y="314" type="curve"/>
      <point x="399" y="350" type="line"/>
      <point x="375" y="349"/>
      <point x="341" y="349"/>
      <point x="317" y="349" type="curve" smooth="yes"/>
      <point x="292" y="349"/>
      <point x="255" y="349"/>
      <point x="231" y="349" type="curve"/>
      <point x="230" y="313" type="line"/>
      <point x="243" y="312"/>
      <point x="265" y="309"/>
      <point x="281" y="305" type="curve"/>
      <point x="169" y="194" type="line"/>
      <point x="140" y="187" type="line"/>
      <point x="140" y="161" type="line"/>
      <point x="161" y="161" type="line"/>
      <point x="261" y="51" type="line" smooth="yes"/>
      <point x="275" y="34"/>
      <point x="286" y="17"/>
      <point x="299" y="0" type="curve"/>
      <point x="334" y="0"/>
      <point x="373" y="0"/>
    </contour>
    <contour>
      <point x="219" y="0" type="move" name="bottom"/>
    </contour>
    <contour>
      <point x="113" y="528" type="move" name="top"/>
    </contour>
  </outline>
</glyph>
<glyph name="l" format="1">
  <advance width="228"/>
  <unicode hex="006C"/>
  <outline>
    <contour>
      <point x="19" y="-2" type="line"/>
      <point x="49" y="0"/>
      <point x="85" y="2"/>
      <point x="114" y="2" type="curve" smooth="yes"/>
      <point x="143" y="2"/>
      <point x="181" y="0"/>
      <point x="211" y="-2" type="curve"/>
      <point x="214" y="34" type="line"/>
      <point x="195" y="36"/>
      <point x="165" y="42"/>
      <point x="157" y="48" type="curve"/>
      <point x="156" y="54"/>
      <point x="153" y="87"/>
      <point x="153" y="187" type="curve"/>
      <point x="154" y="308" type="line"/>
      <point x="154" y="424"/>
      <point x="154" y="478"/>
      <point x="157" y="544" type="curve"/>
      <point x="139" y="557" type="line"/>
      <point x="103" y="540"/>
      <point x="59" y="526"/>
      <point x="16" y="516" type="curve"/>
      <point x="17" y="482" type="line"/>
      <point x="31" y="482"/>
      <point x="54" y="480"/>
      <point x="70" y="478" type="curve"/>
      <point x="72" y="456"/>
      <point x="74" y="380"/>
      <point x="74" y="289" type="curve" smooth="yes"/>
      <point x="74" y="188" type="line" smooth="yes"/>
      <point x="74" y="95"/>
      <point x="71" y="53"/>
      <point x="69" y="48" type="curve"/>
      <point x="61" y="42"/>
      <point x="35" y="36"/>
      <point x="16" y="34" type="curve"/>
    </contour>
    <contour>
      <point x="114" y="0" type="move" name="bottom"/>
    </contour>
    <contour>
      <point x="114" y="275" type="move" name="center"/>
    </contour>
    <contour>
      <point x="242" y="275" type="move" name="dotacc"/>
    </contour>
    <contour>
      <point x="114" y="528" type="move" name="top"/>
    </contour>
    <contour>
      <point x="186" y="550" type="move" name="topright"/>
    </contour>
  </outline>
</glyph>
<glyph name="p" format="1">
  <advance width="443"/>
  <unicode hex="0070"/>
  <outline>
    <contour>
      <point x="20" y="-181" type="line"/>
      <point x="47" y="-178"/>
      <point x="79" y="-176"/>
      <point x="111" y="-176" type="curve" smooth="yes"/>
      <point x="144" y="-176"/>
      <point x="184" y="-178"/>
      <point x="211" y="-181" type="curve"/>
      <point x="214" y="-143" type="line"/>
      <point x="193" y="-141"/>
      <point x="163" y="-135"/>
      <point x="155" y="-130" type="curve"/>
      <point x="153" y="-123"/>
      <point x="151" y="-96"/>
      <point x="151" y="-48" type="curve" smooth="yes"/>
      <point x="151" y="5" type="line"/>
      <point x="172" y="-2"/>
      <point x="198" y="-6"/>
      <point x="219" y="-6" type="curve" smooth="yes"/>
      <point x="330" y="-6"/>
      <point x="408" y="82"/>
      <point x="408" y="187" type="curve" smooth="yes"/>
      <point x="408" y="292"/>
      <point x="342" y="356"/>
      <point x="258" y="356" type="curve" smooth="yes"/>
      <point x="216" y="356"/>
      <point x="178" y="332"/>
      <point x="151" y="294" type="curve"/>
      <point x="148" y="295" type="line"/>
      <point x="153" y="341" type="line"/>
      <point x="137" y="354" type="line"/>
      <point x="101" y="341"/>
      <point x="59" y="329"/>
      <point x="14" y="321" type="curve"/>
      <point x="14" y="288" type="line"/>
      <point x="33" y="285"/>
      <point x="53" y="282"/>
      <point x="66" y="276" type="curve"/>
      <point x="69" y="256"/>
      <point x="73" y="232"/>
      <point x="73" y="192" type="curve"/>
      <point x="71" y="21" type="line" smooth="yes"/>
      <point x="70" y="-96"/>
      <point x="69" y="-124"/>
      <point x="67" y="-130" type="curve"/>
      <point x="59" y="-135"/>
      <point x="33" y="-141"/>
      <point x="18" y="-143" type="curve"/>
    </contour>
    <contour>
      <point x="222" y="46" type="curve" smooth="yes"/>
      <point x="196" y="46"/>
      <point x="169" y="53"/>
      <point x="151" y="65" type="curve"/>
      <point x="151" y="251" type="line"/>
      <point x="171" y="274"/>
      <point x="197" y="287"/>
      <point x="227" y="287" type="curve" smooth="yes"/>
      <point x="279" y="287"/>
      <point x="321" y="247"/>
      <point x="321" y="166" type="curve" smooth="yes"/>
      <point x="320" y="85"/>
      <point x="281" y="46"/>
    </contour>
    <contour>
      <point x="222" y="349" type="move" name="top"/>
    </contour>
  </outline>
</glyph>
<glyph name="r" format="1">
  <advance width="305"/>
  <unicode hex="0072"/>
  <outline>
    <contour>
      <point x="22" y="-3" type="line"/>
      <point x="50" y="-1"/>
      <point x="86" y="2"/>
      <point x="123" y="2" type="curve" smooth="yes"/>
      <point x="153" y="2"/>
      <point x="191" y="-1"/>
      <point x="230" y="-3" type="curve"/>
      <point x="231" y="36" type="line"/>
      <point x="207" y="38"/>
      <point x="168" y="45"/>
      <point x="159" y="48" type="curve"/>
      <point x="157" y="57"/>
      <point x="155" y="93"/>
      <point x="154" y="158" type="curve" smooth="yes"/>
      <point x="153" y="229" type="line"/>
      <point x="167" y="252"/>
      <point x="184" y="272"/>
      <point x="202" y="284" type="curve"/>
      <point x="185" y="287" type="line"/>
      <point x="203" y="269"/>
      <point x="221" y="261"/>
      <point x="244" y="261" type="curve" smooth="yes"/>
      <point x="274" y="261"/>
      <point x="295" y="280"/>
      <point x="295" y="309" type="curve" smooth="yes"/>
      <point x="295" y="339"/>
      <point x="276" y="354"/>
      <point x="246" y="354" type="curve" smooth="yes"/>
      <point x="217" y="354"/>
      <point x="183" y="335"/>
      <point x="151" y="283" type="curve"/>
      <point x="149" y="284" type="line"/>
      <point x="153" y="341" type="line"/>
      <point x="137" y="354" type="line"/>
      <point x="103" y="341"/>
      <point x="61" y="329"/>
      <point x="17" y="321" type="curve"/>
      <point x="17" y="288" type="line"/>
      <point x="36" y="285"/>
      <point x="55" y="282"/>
      <point x="68" y="276" type="curve"/>
      <point x="71" y="256"/>
      <point x="75" y="232"/>
      <point x="75" y="190" type="curve"/>
      <point x="75" y="130" type="line" smooth="yes"/>
      <point x="74" y="82"/>
      <point x="73" y="53"/>
      <point x="71" y="48" type="curve"/>
      <point x="63" y="42"/>
      <point x="36" y="36"/>
      <point x="20" y="34" type="curve"/>
    </contour>
    <contour>
      <point x="115" y="0" type="move" name="bottom"/>
    </contour>
    <contour>
      <point x="139" y="349" type="move" name="top"/>
    </contour>
  </outline>
</glyph>
<glyph name="t" format="1">
  <advance width="290"/>
  <unicode hex="0074"/>
  <outline>
    <contour>
      <point x="293" y="62" type="curve"/>
      <point x="276" y="84" type="line"/>
      <point x="260" y="70"/>
      <point x="239" y="61"/>
      <point x="216" y="61" type="curve" smooth="yes"/>
      <point x="175" y="61"/>
      <point x="151" y="82"/>
      <point x="151" y="129" type="curve"/>
      <point x="152" y="321" type="line"/>
      <point x="153" y="428" type="line"/>
      <point x="132" y="428" type="line"/>
      <point x="94" y="391"/>
      <point x="56" y="357"/>
      <point x="15" y="324" type="curve"/>
      <point x="15" y="300" type="line"/>
      <point x="73" y="300" type="line"/>
      <point x="71" y="118" type="line"/>
      <point x="71" y="35"/>
      <point x="120" y="-7"/>
      <point x="189" y="-7" type="curve" smooth="yes"/>
      <point x="233" y="-7"/>
      <point x="273" y="19"/>
    </contour>
    <contour>
      <point x="110" y="300" type="line"/>
      <point x="269" y="300" type="line"/>
      <point x="269" y="348" type="line"/>
      <point x="110" y="348" type="line"/>
    </contour>
    <contour>
      <point x="165" y="0" type="move" name="bottom"/>
    </contour>
    <contour>
      <point x="111" y="216" type="move" name="stroke"/>
    </contour>
    <contour>
      <point x="143" y="421" type="move" name="top"/>
    </contour>
    <contour>
      <point x="184" y="550" type="move" name="topright"/>
    </contour>
  </outline>
</glyph>
<glyph name="w" format="1">
  <advance width="630"/>
  <unicode hex="0077"/>
  <outline>
    <contour>
      <point x="419" y="-3" type="line"/>
      <point x="447" y="-3" type="line"/>
      <point x="592" y="304" type="line"/>
      <point x="602" y="308"/>
      <point x="617" y="312"/>
      <point x="628" y="314" type="curve"/>
      <point x="626" y="350" type="line"/>
      <point x="610" y="349"/>
      <point x="578" y="349"/>
      <point x="559" y="349" type="curve" smooth="yes"/>
      <point x="540" y="349"/>
      <point x="513" y="349"/>
      <point x="495" y="349" type="curve"/>
      <point x="493" y="313" type="line"/>
      <point x="511" y="311"/>
      <point x="523" y="308"/>
      <point x="537" y="304" type="curve"/>
      <point x="444" y="92" type="line"/>
      <point x="466" y="92" type="line"/>
      <point x="377" y="304" type="line"/>
      <point x="390" y="308"/>
      <point x="404" y="311"/>
      <point x="418" y="313" type="curve"/>
      <point x="417" y="349" type="line"/>
      <point x="399" y="349"/>
      <point x="359" y="349"/>
      <point x="339" y="349" type="curve" smooth="yes"/>
      <point x="314" y="349"/>
      <point x="269" y="349"/>
      <point x="251" y="350" type="curve"/>
      <point x="249" y="313" type="line"/>
      <point x="263" y="311"/>
      <point x="275" y="308"/>
      <point x="288" y="304" type="curve"/>
    </contour>
    <contour>
      <point x="177" y="-3" type="line"/>
      <point x="206" y="-3" type="line"/>
      <point x="330" y="253" type="line"/>
      <point x="305" y="306" type="line"/>
      <point x="203" y="92" type="line"/>
      <point x="228" y="92" type="line"/>
      <point x="134" y="304" type="line"/>
      <point x="147" y="308"/>
      <point x="159" y="311"/>
      <point x="174" y="313" type="curve"/>
      <point x="172" y="349" type="line"/>
      <point x="154" y="349"/>
      <point x="109" y="349"/>
      <point x="88" y="349" type="curve" smooth="yes"/>
      <point x="64" y="349"/>
      <point x="24" y="349"/>
      <point x="4" y="350" type="curve"/>
      <point x="2" y="314" type="line"/>
      <point x="14" y="312"/>
      <point x="30" y="308"/>
      <point x="41" y="304" type="curve"/>
    </contour>
    <contour>
      <point x="312" y="0" type="move" name="bottom"/>
    </contour>
    <contour>
      <point x="333" y="349" type="move" name="top"/>
    </contour>
  </outline>
</glyph>
<glyph name="z" format="1">
  <advance width="347"/>
  <unicode hex="007A"/>
  <outline>
    <contour>
      <point x="116" y="14" type="line"/>
      <point x="312" y="317" type="line"/>
      <point x="312" y="351" type="line"/>
      <point x="289" y="350"/>
      <point x="266" y="349"/>
      <point x="243" y="349" type="curve" smooth="yes"/>
      <point x="103" y="349" type="line" smooth="yes"/>
      <point x="81" y="349"/>
      <point x="53" y="349"/>
      <point x="26" y="351" type="curve"/>
      <point x="26" y="318"/>
      <point x="27" y="274"/>
      <point x="27" y="237" type="curve"/>
      <point x="69" y="237" type="line"/>
      <point x="72" y="263"/>
      <point x="76" y="285"/>
      <point x="80" y="302" type="curve"/>
      <point x="96" y="305"/>
      <point x="114" y="306"/>
      <point x="135" y="306" type="curve" smooth="yes"/>
      <point x="231" y="306" type="line"/>
      <point x="233" y="335" type="line"/>
      <point x="33" y="32" type="line"/>
      <point x="33" y="-2" type="line"/>
      <point x="56" y="-1"/>
      <point x="79" y="0"/>
      <point x="102" y="0" type="curve" smooth="yes"/>
      <point x="240" y="0" type="line" smooth="yes"/>
      <point x="262" y="0"/>
      <point x="291" y="0"/>
      <point x="317" y="-1" type="curve"/>
      <point x="321" y="34"/>
      <point x="326" y="77"/>
      <point x="332" y="117" type="curve"/>
      <point x="288" y="117" type="line"/>
      <point x="281" y="88"/>
      <point x="274" y="64"/>
      <point x="268" y="49" type="curve"/>
      <point x="251" y="46"/>
      <point x="234" y="45"/>
      <point x="216" y="45" type="curve" smooth="yes"/>
      <point x="114" y="45" type="line"/>
    </contour>
    <contour>
      <point x="173" y="0" type="move" name="bottom"/>
    </contour>
    <contour>
      <point x="173" y="349" type="move" name="top"/>
    </contour>
  </outline>
</glyph>
<glyph name="braceleft" format="1">
  <advance width="299"/>
  <unicode hex="007B"/>
  <outline>
    <contour>
      <point x="178" y="-63" type="curve" smooth="yes"/>
      <point x="178" y="-7"/>
      <point x="210" y="35"/>
      <point x="210" y="99" type="curve" smooth="yes"/>
      <point x="210" y="157"/>
      <point x="174" y="202"/>
      <point x="108" y="210" type="curve"/>
      <point x="108" y="199" type="line"/>
      <point x="175" y="207"/>
      <point x="210" y="245"/>
      <point x="210" y="302" type="curve" smooth="yes"/>
      <point x="210" y="366"/>
      <point x="178" y="409"/>
      <point x="178" y="465" type="curve" smooth="yes"/>
      <point x="178" y="514"/>
      <point x="207" y="537"/>
      <point x="261" y="545" type="curve"/>
      <point x="253" y="584" type="line"/>
      <point x="149" y="570"/>
      <point x="91" y="530"/>
      <point x="91" y="452" type="curve" smooth="yes"/>
      <point x="91" y="393"/>
      <point x="133" y="333"/>
      <point x="133" y="284" type="curve" smooth="yes"/>
      <point x="133" y="246"/>
      <point x="110" y="226"/>
      <point x="50" y="224" type="curve"/>
      <point x="50" y="178" type="line"/>
      <point x="110" y="175"/>
      <point x="133" y="156"/>
      <point x="133" y="118" type="curve" smooth="yes"/>
      <point x="133" y="69"/>
      <point x="91" y="9"/>
      <point x="91" y="-51" type="curve" smooth="yes"/>
      <point x="91" y="-128"/>
      <point x="149" y="-169"/>
      <point x="253" y="-182" type="curve"/>
      <point x="261" y="-143" type="line"/>
      <point x="207" y="-136"/>
      <point x="178" y="-112"/>
    </contour>
  </outline>
</glyph>
<glyph name="bar" format="1">
  <advance width="217"/>
  <unicode hex="007C"/>
  <outline>
    <contour>
      <point x="79" y="-176" type="line"/>
      <point x="138" y="-176" type="line"/>
      <point x="138" y="578" type="line"/>
      <point x="79" y="578" type="line"/>
    </contour>
  </outline>
</glyph>
<glyph name="braceright" format="1">
  <advance width="299"/>
  <unicode hex="007D"/>
  <outline>
    <contour>
      <point x="121" y="-63" type="curve" smooth="yes"/>
      <point x="121" y="-112"/>
      <point x="92" y="-136"/>
      <point x="38" y="-143" type="curve"/>
      <point x="46" y="-182" type="line"/>
      <point x="150" y="-169"/>
      <point x="208" y="-128"/>
      <point x="208" y="-51" type="curve" smooth="yes"/>
      <point x="208" y="9"/>
      <point x="166" y="69"/>
      <point x="166" y="118" type="curve" smooth="yes"/>
      <point x="166" y="156"/>
      <point x="189" y="175"/>
      <point x="249" y="178" type="curve"/>
      <point x="249" y="224" type="line"/>
      <point x="189" y="226"/>
      <point x="166" y="246"/>
      <point x="166" y="284" type="curve" smooth="yes"/>
      <point x="166" y="333"/>
      <point x="208" y="393"/>
      <point x="208" y="452" type="curve" smooth="yes"/>
      <point x="208" y="530"/>
      <point x="150" y="570"/>
      <point x="46" y="584" type="curve"/>
      <point x="38" y="545" type="line"/>
      <point x="92" y="537"/>
      <point x="121" y="514"/>
      <point x="121" y="465" type="curve" smooth="yes"/>
      <point x="121" y="409"/>
      <point x="89" y="366"/>
      <point x="89" y="302" type="curve" smooth="yes"/>
      <point x="89" y="245"/>
      <point x="124" y="207"/>
      <point x="191" y="199" type="curve"/>
      <point x="191" y="210" type="line"/>
      <point x="125" y="202"/>
      <point x="89" y="157"/>
      <point x="89" y="99" type="curve" smooth="yes"/>
      <point x="89" y="35"/>
      <point x="121" y="-7"/>
    </contour>
  </outline>
</glyph>
<glyph name="exclamdown" format="1">
  <advance width="222"/>
  <unicode hex="00A1"/>
  <outline>
    <contour>
      <point x="93" y="178" type="line"/>
      <point x="86" y="70"/>
      <point x="57" y="-39"/>
      <point x="57" y="-112" type="curve" smooth="yes"/>
      <point x="57" y="-157"/>
      <point x="80" y="-182"/>
      <point x="111" y="-182" type="curve" smooth="yes"/>
      <point x="142" y="-182"/>
      <point x="165" y="-157"/>
      <point x="165" y="-112" type="curve" smooth="yes"/>
      <point x="165" y="-39"/>
      <point x="136" y="70"/>
      <point x="129" y="178" type="curve"/>
    </contour>
    <contour>
      <point x="111" y="356" type="curve" smooth="yes"/>
      <point x="77" y="356"/>
      <point x="51" y="327"/>
      <point x="51" y="290" type="curve" smooth="yes"/>
      <point x="51" y="253"/>
      <point x="77" y="223"/>
      <point x="111" y="223" type="curve" smooth="yes"/>
      <point x="145" y="223"/>
      <point x="171" y="253"/>
      <point x="171" y="290" type="curve" smooth="yes"/>
      <point x="171" y="327"/>
      <point x="145" y="356"/>
    </contour>
  </outline>
</glyph>
<glyph name="cent" format="1">
  <advance width="362"/>
  <unicode hex="00A2"/>
  <outline>
    <contour>
      <point x="205" y="-6" type="curve" smooth="yes"/>
      <point x="264" y="-6"/>
      <point x="315" y="25"/>
      <point x="345" y="88" type="curve"/>
      <point x="323" y="109" type="line"/>
      <point x="295" y="76"/>
      <point x="267" y="64"/>
      <point x="231" y="64" type="curve" smooth="yes"/>
      <point x="168" y="64"/>
      <point x="121" y="108"/>
      <point x="121" y="190" type="curve" smooth="yes"/>
      <point x="121" y="281"/>
      <point x="181" y="323"/>
      <point x="238" y="312" type="curve"/>
      <point x="208" y="321" type="line"/>
      <point x="255" y="273" type="line" smooth="yes"/>
      <point x="273" y="255"/>
      <point x="284" y="249"/>
      <point x="302" y="249" type="curve" smooth="yes"/>
      <point x="322" y="249"/>
      <point x="337" y="262"/>
      <point x="337" y="286" type="curve" smooth="yes"/>
      <point x="337" y="325"/>
      <point x="291" y="356"/>
      <point x="221" y="356" type="curve" smooth="yes"/>
      <point x="113" y="356"/>
      <point x="33" y="270"/>
      <point x="33" y="167" type="curve" smooth="yes"/>
      <point x="33" y="63"/>
      <point x="110" y="-6"/>
    </contour>
    <contour>
      <point x="194" y="-99" type="line"/>
      <point x="232" y="-99" type="line"/>
      <point x="232" y="448" type="line"/>
      <point x="194" y="448" type="line"/>
    </contour>
  </outline>
</glyph>
<glyph name="currency" format="1">
  <advance width="480"/>
  <unicode hex="00A4"/>
  <outline>
    <contour>
      <point x="240" y="65" type="curve" smooth="yes"/>
      <point x="347" y="65"/>
      <point x="433" y="154"/>
      <point x="433" y="263" type="curve" smooth="yes"/>
      <point x="433" y="373"/>
      <point x="347" y="462"/>
      <point x="240" y="462" type="curve" smooth="yes"/>
      <point x="133" y="462"/>
      <point x="47" y="373"/>
      <point x="47" y="263" type="curve" smooth="yes"/>
      <point x="47" y="154"/>
      <point x="133" y="65"/>
    </contour>
    <contour>
      <point x="55" y="36" type="line"/>
      <point x="149" y="137" type="line"/>
      <point x="115" y="179" type="line"/>
      <point x="20" y="76" type="line"/>
    </contour>
    <contour>
      <point x="423" y="37" type="line"/>
      <point x="459" y="76" type="line"/>
      <point x="365" y="182" type="line"/>
      <point x="330" y="140" type="line"/>
    </contour>
    <contour>
      <point x="240" y="109" type="curve" smooth="yes"/>
      <point x="182" y="109"/>
      <point x="135" y="178"/>
      <point x="135" y="263" type="curve" smooth="yes"/>
      <point x="135" y="348"/>
      <point x="182" y="417"/>
      <point x="240" y="416" type="curve" smooth="yes"/>
      <point x="298" y="416"/>
      <point x="344" y="348"/>
      <point x="344" y="263" type="curve" smooth="yes"/>
      <point x="344" y="178"/>
      <point x="298" y="109"/>
    </contour>
    <contour>
      <point x="107" y="359" type="line"/>
      <point x="142" y="399" type="line"/>
      <point x="56" y="491" type="line"/>
      <point x="20" y="451" type="line"/>
    </contour>
    <contour>
      <point x="372" y="355" type="line"/>
      <point x="460" y="450" type="line"/>
      <point x="422" y="492" type="line"/>
      <point x="335" y="397" type="line"/>
    </contour>
  </outline>
</glyph>
<glyph name="section" format="1">
  <advance width="355"/>
  <unicode hex="00A7"/>
  <outline>
    <contour>
      <point x="187" y="175" type="line"/>
      <point x="247" y="175"/>
      <point x="314" y="212"/>
      <point x="314" y="282" type="curve" smooth="yes"/>
      <point x="314" y="400"/>
      <point x="136" y="389"/>
      <point x="136" y="459" type="curve" smooth="yes"/>
      <point x="136" y="485"/>
      <point x="159" y="501"/>
      <point x="193" y="501" type="curve" smooth="yes"/>
      <point x="206" y="501"/>
      <point x="218" y="499"/>
      <point x="230" y="493" type="curve"/>
      <point x="235" y="477"/>
      <point x="241" y="459"/>
      <point x="247" y="443" type="curve"/>
      <point x="290" y="443" type="line"/>
      <point x="288" y="471"/>
      <point x="285" y="495"/>
      <point x="282" y="526" type="curve"/>
      <point x="260" y="535"/>
      <point x="224" y="541"/>
      <point x="195" y="541" type="curve" smooth="yes"/>
      <point x="115" y="541"/>
      <point x="56" y="497"/>
      <point x="56" y="438" type="curve" smooth="yes"/>
      <point x="56" y="324"/>
      <point x="239" y="342"/>
      <point x="239" y="254" type="curve" smooth="yes"/>
      <point x="239" y="219"/>
      <point x="213" y="198"/>
      <point x="175" y="190" type="curve"/>
    </contour>
    <contour>
      <point x="155" y="-6" type="curve" smooth="yes"/>
      <point x="239" y="-6"/>
      <point x="298" y="38"/>
      <point x="298" y="98" type="curve" smooth="yes"/>
      <point x="298" y="209"/>
      <point x="117" y="193"/>
      <point x="117" y="279" type="curve" smooth="yes"/>
      <point x="117" y="315"/>
      <point x="142" y="336"/>
      <point x="182" y="345" type="curve"/>
      <point x="170" y="360" type="line"/>
      <point x="110" y="359"/>
      <point x="41" y="321"/>
      <point x="41" y="248" type="curve" smooth="yes"/>
      <point x="41" y="135"/>
      <point x="218" y="145"/>
      <point x="218" y="77" type="curve" smooth="yes"/>
      <point x="218" y="52"/>
      <point x="195" y="36"/>
      <point x="161" y="36" type="curve" smooth="yes"/>
      <point x="145" y="36"/>
      <point x="129" y="39"/>
      <point x="118" y="45" type="curve"/>
      <point x="113" y="62"/>
      <point x="107" y="79"/>
      <point x="102" y="96" type="curve"/>
      <point x="58" y="96" type="line"/>
      <point x="60" y="68"/>
      <point x="62" y="41"/>
      <point x="65" y="11" type="curve"/>
      <point x="86" y="1"/>
      <point x="122" y="-6"/>
    </contour>
  </outline>
</glyph>
<glyph name="copyright" format="1">
  <advance width="481"/>
  <unicode hex="00A9"/>
  <outline>
    <contour>
      <point x="240" y="158" type="curve" smooth="yes"/>
      <point x="271" y="158"/>
      <point x="299" y="163"/>
      <point x="321" y="174" type="curve"/>
      <point x="327" y="177"/>
      <point x="337" y="210"/>
      <point x="337" y="217" type="curve"/>
      <point x="336" y="219"/>
      <point x="331" y="220"/>
      <point x="322" y="220" type="curve" smooth="yes"/>
      <point x="322" y="220"/>
      <point x="312" y="200"/>
      <point x="307" y="196" type="curve"/>
      <point x="297" y="187"/>
      <point x="280" y="183"/>
      <point x="256" y="183" type="curve" smooth="yes"/>
      <point x="213" y="183"/>
      <point x="178" y="222"/>
      <point x="178" y="277" type="curve" smooth="yes"/>
      <point x="178" y="322"/>
      <point x="207" y="360"/>
      <point x="247" y="360" type="curve" smooth="yes"/>
      <point x="290" y="360"/>
      <point x="314" y="338"/>
      <point x="318" y="318" type="curve"/>
      <point x="321" y="318"/>
      <point x="323" y="317"/>
      <point x="326" y="317" type="curve" smooth="yes"/>
      <point x="333" y="317"/>
      <point x="336" y="318"/>
      <point x="336" y="321" type="curve" smooth="yes"/>
      <point x="336" y="326"/>
      <point x="332" y="363"/>
      <point x="325" y="374" type="curve"/>
      <point x="299" y="382"/>
      <point x="271" y="385"/>
      <point x="241" y="385" type="curve" smooth="yes"/>
      <point x="176" y="385"/>
      <point x="129" y="333"/>
      <point x="129" y="269" type="curve" smooth="yes"/>
      <point x="129" y="208"/>
      <point x="178" y="158"/>
    </contour>
  </outline>
</glyph>
<glyph name="logicalnot" format="1">
  <advance width="480"/>
  <unicode hex="00AC"/>
  <outline>
    <contour>
      <point x="435" y="342" type="line"/>
      <point x="45" y="342" type="line"/>
      <point x="45" y="278" type="line"/>
      <point x="376" y="278" type="line"/>
      <point x="376" y="114" type="line"/>
      <point x="435" y="114" type="line"/>
    </contour>
  </outline>
</glyph>
<glyph name="degree" format="1">
  <advance width="301"/>
  <unicode hex="00B0"/>
  <outline>
    <contour>
      <point x="151" y="303" type="curve" smooth="yes"/>
      <point x="217" y="303"/>
      <point x="269" y="352"/>
      <point x="269" y="419" type="curve" smooth="yes"/>
      <point x="269" y="486"/>
      <point x="217" y="535"/>
      <point x="151" y="535" type="curve" smooth="yes"/>
      <point x="84" y="535"/>
      <point x="33" y="486"/>
      <point x="33" y="419" type="curve" smooth="yes"/>
      <point x="33" y="352"/>
      <point x="84" y="303"/>
    </contour>
    <contour>
      <point x="151" y="352" type="curve" smooth="yes"/>
      <point x="112" y="352"/>
      <point x="84" y="379"/>
      <point x="84" y="419" type="curve" smooth="yes"/>
      <point x="84" y="459"/>
      <point x="112" y="486"/>
      <point x="151" y="486" type="curve" smooth="yes"/>
      <point x="189" y="486"/>
      <point x="218" y="459"/>
      <point x="218" y="419" type="curve" smooth="yes"/>
      <point x="218" y="379"/>
      <point x="189" y="352"/>
    </contour>
  </outline>
</glyph>
<glyph name="plusminus" format="1">
  <advance width="480"/>
  <unicode hex="00B1"/>
  <outline>
    <contour>
      <point x="435" y="295" type="line"/>
      <point x="45" y="295" type="line"/>
      <point x="45" y="234" type="line"/>
      <point x="435" y="234" type="line"/>
    </contour>
    <contour>
      <point x="211" y="424" type="line"/>
      <point x="211" y="105" type="line"/>
      <point x="269" y="105" type="line"/>
      <point x="269" y="424" type="line"/>
    </contour>
    <contour>
      <point x="435" y="64" type="line"/>
      <point x="45" y="64" type="line"/>
      <point x="45" y="0" type="line"/>
      <point x="435" y="0" type="line"/>
    </contour>
  </outline>
</glyph>
<glyph name="paragraph" format="1">
  <advance width="478"/>
  <unicode hex="00B6"/>
  <outline>
    <contour>
      <point x="440" y="-3" type="curve"/>
      <point x="442" y="38" type="line"/>
      <point x="423" y="40"/>
      <point x="398" y="46"/>
      <point x="391" y="51" type="curve"/>
      <point x="388" y="57"/>
      <point x="385" y="94"/>
      <point x="385" y="185" type="curve" smooth="yes"/>
      <point x="385" y="342" type="line" smooth="yes"/>
      <point x="385" y="433"/>
      <point x="388" y="470"/>
      <point x="391" y="476" type="curve"/>
      <point x="398" y="482"/>
      <point x="425" y="487"/>
      <point x="446" y="488" type="curve"/>
      <point x="444" y="529" type="line"/>
      <point x="417" y="527"/>
      <point x="377" y="527"/>
      <point x="319" y="527" type="curve" smooth="yes"/>
      <point x="287" y="527"/>
      <point x="259" y="529"/>
      <point x="233" y="529" type="curve" smooth="yes"/>
      <point x="105" y="529"/>
      <point x="24" y="464"/>
      <point x="24" y="366" type="curve" smooth="yes"/>
      <point x="24" y="263"/>
      <point x="106" y="207"/>
      <point x="233" y="207" type="curve" smooth="yes"/>
      <point x="271" y="207"/>
      <point x="316" y="212"/>
      <point x="353" y="223" type="curve"/>
      <point x="353" y="277" type="line"/>
      <point x="315" y="263"/>
      <point x="279" y="257"/>
      <point x="236" y="257" type="curve" smooth="yes"/>
      <point x="159" y="257"/>
      <point x="115" y="301"/>
      <point x="115" y="376" type="curve" smooth="yes"/>
      <point x="115" y="445"/>
      <point x="159" y="485"/>
      <point x="225" y="485" type="curve" smooth="yes"/>
      <point x="235" y="485"/>
      <point x="244" y="485"/>
      <point x="254" y="484" type="curve"/>
      <point x="255" y="471"/>
      <point x="256" y="420"/>
      <point x="256" y="350" type="curve" smooth="yes"/>
      <point x="256" y="164" type="line" smooth="yes"/>
      <point x="256" y="94"/>
      <point x="253" y="57"/>
      <point x="249" y="52" type="curve"/>
      <point x="237" y="47"/>
      <point x="200" y="42"/>
      <point x="177" y="39" type="curve"/>
      <point x="179" y="-3" type="line"/>
      <point x="208" y="-1"/>
      <point x="258" y="1"/>
      <point x="310" y="1" type="curve" smooth="yes"/>
      <point x="365" y="1"/>
      <point x="415" y="-1"/>
    </contour>
    <contour>
      <point x="303" y="485" type="line"/>
      <point x="343" y="485" type="line"/>
      <point x="339" y="44" type="line"/>
      <point x="303" y="44" type="line"/>
    </contour>
  </outline>
</glyph>
<glyph name="questiondown" format="1">
  <advance width="294"/>
  <unicode hex="00BF"/>
  <outline>
    <contour>
      <point x="207" y="178" type="curve"/>
      <point x="169" y="178" type="line"/>
      <point x="172" y="162"/>
      <point x="173" y="154"/>
      <point x="173" y="145" type="curve" smooth="yes"/>
      <point x="173" y="87"/>
      <point x="35" y="84"/>
      <point x="35" y="-18" type="curve" smooth="yes"/>
      <point x="35" y="-108"/>
      <point x="115" y="-183"/>
      <point x="220" y="-183" type="curve" smooth="yes"/>
      <point x="263" y="-183"/>
      <point x="285" y="-163"/>
      <point x="285" y="-135" type="curve" smooth="yes"/>
      <point x="285" y="-108"/>
      <point x="265" y="-87"/>
      <point x="232" y="-87" type="curve" smooth="yes"/>
      <point x="206" y="-87"/>
      <point x="182" y="-100"/>
      <point x="158" y="-100" type="curve" smooth="yes"/>
      <point x="120" y="-100"/>
      <point x="95" y="-83"/>
      <point x="95" y="-58" type="curve" smooth="yes"/>
      <point x="95" y="-1"/>
      <point x="229" y="31"/>
      <point x="229" y="103" type="curve" smooth="yes"/>
      <point x="229" y="127"/>
      <point x="223" y="149"/>
    </contour>
    <contour>
      <point x="188" y="356" type="curve" smooth="yes"/>
      <point x="154" y="356"/>
      <point x="127" y="327"/>
      <point x="127" y="290" type="curve" smooth="yes"/>
      <point x="127" y="253"/>
      <point x="154" y="223"/>
      <point x="188" y="223" type="curve" smooth="yes"/>
      <point x="221" y="223"/>
      <point x="248" y="253"/>
      <point x="248" y="290" type="curve" smooth="yes"/>
      <point x="248" y="327"/>
      <point x="222" y="356"/>
    </contour>
  </outline>
</glyph>
<glyph name="germandbls" format="1">
  <advance width="483"/>
  <unicode hex="00DF"/>
  <outline>
    <contour>
      <point x="336" y="-6" type="curve" smooth="yes"/>
      <point x="414" y="-6"/>
      <point x="466" y="38"/>
      <point x="466" y="105" type="curve" smooth="yes"/>
      <point x="466" y="221"/>
      <point x="300" y="213"/>
      <point x="300" y="294" type="curve" smooth="yes"/>
      <point x="300" y="342"/>
      <point x="375" y="387"/>
      <point x="376" y="452" type="curve" smooth="yes"/>
      <point x="376" y="517"/>
      <point x="326" y="558"/>
      <point x="245" y="558" type="curve" smooth="yes"/>
      <point x="140" y="558"/>
      <point x="71" y="484"/>
      <point x="71" y="379" type="curve" smooth="yes"/>
      <point x="71" y="300" type="line"/>
      <point x="73" y="159" type="line" smooth="yes"/>
      <point x="74" y="87"/>
      <point x="71" y="54"/>
      <point x="70" y="48" type="curve"/>
      <point x="63" y="43"/>
      <point x="37" y="37"/>
      <point x="23" y="35" type="curve"/>
      <point x="25" y="-2" type="line"/>
      <point x="50" y="0"/>
      <point x="85" y="2"/>
      <point x="118" y="2" type="curve" smooth="yes"/>
      <point x="149" y="2"/>
      <point x="165" y="1"/>
      <point x="197" y="-2" type="curve"/>
      <point x="198" y="35" type="line"/>
      <point x="185" y="37"/>
      <point x="163" y="43"/>
      <point x="154" y="47" type="curve"/>
      <point x="153" y="55"/>
      <point x="151" y="90"/>
      <point x="150" y="178" type="curve" smooth="yes"/>
      <point x="149" y="407" type="line"/>
      <point x="149" y="476"/>
      <point x="181" y="516"/>
      <point x="237" y="516" type="curve" smooth="yes"/>
      <point x="278" y="516"/>
      <point x="308" y="493"/>
      <point x="308" y="440" type="curve" smooth="yes"/>
      <point x="308" y="363"/>
      <point x="228" y="327"/>
      <point x="228" y="261" type="curve" smooth="yes"/>
      <point x="228" y="148"/>
      <point x="392" y="162"/>
      <point x="392" y="79" type="curve" smooth="yes"/>
      <point x="392" y="53"/>
      <point x="371" y="36"/>
      <point x="342" y="36" type="curve" smooth="yes"/>
      <point x="324" y="36"/>
      <point x="303" y="40"/>
      <point x="284" y="52" type="curve"/>
      <point x="279" y="70"/>
      <point x="275" y="89"/>
      <point x="271" y="110" type="curve"/>
      <point x="228" y="110" type="line"/>
      <point x="228" y="76"/>
      <point x="229" y="51"/>
      <point x="231" y="20" type="curve"/>
      <point x="259" y="4"/>
      <point x="299" y="-6"/>
    </contour>
    <contour>
      <point x="13" y="300" type="line"/>
      <point x="109" y="300" type="line"/>
      <point x="109" y="348" type="line"/>
      <point x="71" y="350" type="line"/>
      <point x="51" y="343"/>
      <point x="33" y="337"/>
      <point x="13" y="334" type="curve"/>
    </contour>
  </outline>
</glyph>
<glyph name="ae" format="1">
  <advance width="572"/>
  <unicode hex="00E6"/>
  <outline>
    <contour>
      <point x="159" y="-6" type="curve" smooth="yes"/>
      <point x="199" y="-6"/>
      <point x="232" y="11"/>
      <point x="285" y="70" type="curve"/>
      <point x="261" y="102" type="line"/>
      <point x="234" y="71"/>
      <point x="213" y="58"/>
      <point x="185" y="58" type="curve" smooth="yes"/>
      <point x="154" y="58"/>
      <point x="124" y="79"/>
      <point x="124" y="105" type="curve" smooth="yes"/>
      <point x="124" y="125"/>
      <point x="137" y="137"/>
      <point x="163" y="142" type="curve" smooth="yes"/>
      <point x="535" y="202" type="line"/>
      <point x="535" y="294"/>
      <point x="484" y="356"/>
      <point x="405" y="356" type="curve" smooth="yes"/>
      <point x="352" y="356"/>
      <point x="309" y="328"/>
      <point x="284" y="285" type="curve"/>
      <point x="307" y="285" type="line"/>
      <point x="288" y="333"/>
      <point x="237" y="356"/>
      <point x="177" y="356" type="curve"/>
      <point x="123" y="349"/>
      <point x="42" y="302"/>
      <point x="42" y="262" type="curve" smooth="yes"/>
      <point x="42" y="231"/>
      <point x="76" y="216"/>
      <point x="119" y="227" type="curve"/>
      <point x="122" y="271" type="line" smooth="yes"/>
      <point x="123" y="297"/>
      <point x="129" y="304"/>
      <point x="153" y="304" type="curve" smooth="yes"/>
      <point x="197" y="304"/>
      <point x="238" y="273"/>
      <point x="238" y="216" type="curve" smooth="yes"/>
      <point x="238" y="165" type="line" smooth="yes"/>
      <point x="238" y="67"/>
      <point x="305" y="-6"/>
      <point x="399" y="-6" type="curve" smooth="yes"/>
      <point x="458" y="-6"/>
      <point x="508" y="25"/>
      <point x="537" y="87" type="curve"/>
      <point x="515" y="109" type="line"/>
      <point x="487" y="75"/>
      <point x="460" y="63"/>
      <point x="426" y="63" type="curve" smooth="yes"/>
      <point x="363" y="63"/>
      <point x="318" y="112"/>
      <point x="318" y="192" type="curve" smooth="yes"/>
      <point x="318" y="209" type="line" smooth="yes"/>
      <point x="318" y="280"/>
      <point x="352" y="315"/>
      <point x="394" y="315" type="curve" smooth="yes"/>
      <point x="434" y="315"/>
      <point x="459" y="283"/>
      <point x="459" y="229" type="curve" smooth="yes"/>
      <point x="459" y="204" type="line"/>
      <point x="471" y="230" type="line"/>
      <point x="144" y="176" type="line" smooth="yes"/>
      <point x="69" y="163"/>
      <point x="37" y="134"/>
      <point x="37" y="88" type="curve" smooth="yes"/>
      <point x="37" y="45"/>
      <point x="91" y="-6"/>
    </contour>
    <contour>
      <point x="278" y="0" type="move" name="bottom"/>
    </contour>
    <contour>
      <point x="278" y="349" type="move" name="top"/>
    </contour>
  </outline>
</glyph>
<glyph name="eth" format="1">
  <advance width="418"/>
  <unicode hex="00F0"/>
  <outline>
    <contour>
      <point x="313" y="295" type="curve"/>
      <point x="323" y="341" type="line"/>
      <point x="293" y="350"/>
      <point x="259" y="355"/>
      <point x="234" y="355" type="curve" smooth="yes"/>
      <point x="120" y="355"/>
      <point x="36" y="288"/>
      <point x="36" y="171" type="curve" smooth="yes"/>
      <point x="36" y="64"/>
      <point x="115" y="-6"/>
      <point x="211" y="-6" type="curve" smooth="yes"/>
      <point x="313" y="-6"/>
      <point x="382" y="73"/>
      <point x="382" y="218" type="curve" smooth="yes"/>
      <point x="382" y="367"/>
      <point x="278" y="512"/>
      <point x="139" y="550" type="curve"/>
      <point x="43" y="550" type="line"/>
      <point x="41" y="516" type="line"/>
      <point x="209" y="467"/>
      <point x="298" y="357"/>
      <point x="298" y="185" type="curve" smooth="yes"/>
      <point x="298" y="81"/>
      <point x="272" y="41"/>
      <point x="223" y="41" type="curve" smooth="yes"/>
      <point x="168" y="41"/>
      <point x="125" y="89"/>
      <point x="125" y="183" type="curve" smooth="yes"/>
      <point x="125" y="264"/>
      <point x="165" y="310"/>
      <point x="233" y="310" type="curve" smooth="yes"/>
      <point x="256" y="310"/>
      <point x="286" y="306"/>
    </contour>
    <contour>
      <point x="71" y="389" type="line"/>
      <point x="336" y="518" type="line"/>
      <point x="318" y="558" type="line"/>
      <point x="53" y="430" type="line"/>
    </contour>
  </outline>
</glyph>
<glyph name="divide" format="1">
  <advance width="480"/>
  <unicode hex="00F7"/>
  <outline>
    <contour>
      <point x="435" y="261" type="line"/>
      <point x="45" y="261" type="line"/>
      <point x="45" y="196" type="line"/>
      <point x="435" y="196" type="line"/>
    </contour>
    <contour>
      <point x="236" y="20" type="curve" smooth="yes"/>
      <point x="263" y="20"/>
      <point x="284" y="42"/>
      <point x="284" y="70" type="curve" smooth="yes"/>
      <point x="284" y="99"/>
      <point x="263" y="122"/>
      <point x="236" y="122" type="curve" smooth="yes"/>
      <point x="209" y="122"/>
      <point x="187" y="99"/>
      <point x="187" y="70" type="curve" smooth="yes"/>
      <point x="187" y="42"/>
      <point x="209" y="20"/>
    </contour>
    <contour>
      <point x="236" y="335" type="curve" smooth="yes"/>
      <point x="263" y="335"/>
      <point x="284" y="357"/>
      <point x="284" y="385" type="curve" smooth="yes"/>
      <point x="284" y="414"/>
      <point x="263" y="437"/>
      <point x="236" y="437" type="curve" smooth="yes"/>
      <point x="209" y="437"/>
      <point x="187" y="414"/>
      <point x="187" y="385" type="curve" smooth="yes"/>
      <point x="187" y="357"/>
      <point x="209" y="335"/>
    </contour>
  </outline>
</glyph>
<glyph name="aogonek" format="1">
  <advance width="387"/>
  <unicode hex="0105"/>
  <outline>
    <contour>
      <point x="370" y="-110" type="line"/>
      <point x="352" y="-128"/>
      <point x="334" y="-138"/>
      <point x="315" y="-138" type="curve" smooth="yes"/>
      <point x="288" y="-138"/>
      <point x="270" y="-121"/>
      <point x="270" y="-93" type="curve" smooth="yes"/>
      <point x="270" y="-61"/>
      <point x="293" y="-30"/>
      <point x="370" y="24" type="curve"/>
      <point x="370" y="54" type="line"/>
      <point x="355" y="56"/>
      <point x="329" y="60"/>
      <point x="319" y="65" type="curve"/>
      <point x="316" y="75"/>
      <point x="313" y="92"/>
      <point x="313" y="118" type="curve" smooth="yes"/>
      <point x="315" y="238" type="line"/>
      <point x="315" y="311"/>
      <point x="257" y="356"/>
      <point x="175" y="356" type="curve"/>
      <point x="120" y="349"/>
      <point x="40" y="302"/>
      <point x="40" y="262" type="curve" smooth="yes"/>
      <point x="40" y="231"/>
      <point x="74" y="216"/>
      <point x="117" y="227" type="curve"/>
      <point x="119" y="271" type="line" smooth="yes"/>
      <point x="121" y="297"/>
      <point x="127" y="304"/>
      <point x="151" y="304" type="curve" smooth="yes"/>
      <point x="193" y="304"/>
      <point x="234" y="274"/>
      <point x="234" y="237" type="curve" smooth="yes"/>
      <point x="234" y="204" type="line"/>
      <point x="111" y="166" type="line" smooth="yes"/>
      <point x="56" y="149"/>
      <point x="36" y="124"/>
      <point x="36" y="88" type="curve" smooth="yes"/>
      <point x="36" y="47"/>
      <point x="80" y="-6"/>
      <point x="149" y="-6" type="curve" smooth="yes"/>
      <point x="176" y="-6"/>
      <point x="210" y="9"/>
      <point x="250" y="56" type="curve"/>
      <point x="236" y="60" type="line"/>
      <point x="247" y="25" type="line" smooth="yes"/>
      <point x="255" y="1"/>
      <point x="274" y="-13"/>
      <point x="318" y="1" type="curve"/>
      <point x="324" y="10" type="line"/>
      <point x="251" y="-18"/>
      <point x="206" y="-57"/>
      <point x="206" y="-100" type="curve" smooth="yes"/>
      <point x="206" y="-145"/>
      <point x="245" y="-178"/>
      <point x="302" y="-178" type="curve" smooth="yes"/>
      <point x="338" y="-178"/>
      <point x="368" y="-163"/>
      <point x="389" y="-138" type="curve"/>
    </contour>
    <contour>
      <point x="234" y="81" type="line"/>
      <point x="216" y="64"/>
      <point x="197" y="58"/>
      <point x="179" y="58" type="curve" smooth="yes"/>
      <point x="151" y="58"/>
      <point x="123" y="81"/>
      <point x="123" y="108" type="curve" smooth="yes"/>
      <point x="123" y="129"/>
      <point x="133" y="141"/>
      <point x="159" y="146" type="curve" smooth="yes"/>
      <point x="234" y="161" type="line"/>
    </contour>
    <contour>
      <point x="185" y="349" type="move" name="top"/>
    </contour>
  </outline>
</glyph>
<glyph name="eogonek" format="1">
  <advance width="379"/>
  <unicode hex="0119"/>
  <outline>
    <contour>
      <point x="327" y="-110" type="line"/>
      <point x="309" y="-128"/>
      <point x="292" y="-138"/>
      <point x="272" y="-138" type="curve" smooth="yes"/>
      <point x="246" y="-138"/>
      <point x="228" y="-121"/>
      <point x="228" y="-92" type="curve" smooth="yes"/>
      <point x="228" y="-57"/>
      <point x="252" y="-26"/>
      <point x="309" y="34" type="curve" smooth="yes"/>
      <point x="323" y="50"/>
      <point x="336" y="68"/>
      <point x="346" y="87" type="curve"/>
      <point x="323" y="108" type="line"/>
      <point x="294" y="75"/>
      <point x="266" y="63"/>
      <point x="230" y="63" type="curve" smooth="yes"/>
      <point x="162" y="63"/>
      <point x="116" y="113"/>
      <point x="116" y="192" type="curve" smooth="yes"/>
      <point x="116" y="207" type="line" smooth="yes"/>
      <point x="116" y="280"/>
      <point x="155" y="315"/>
      <point x="199" y="315" type="curve" smooth="yes"/>
      <point x="243" y="315"/>
      <point x="269" y="282"/>
      <point x="269" y="228" type="curve" smooth="yes"/>
      <point x="269" y="204" type="line"/>
      <point x="280" y="221" type="line"/>
      <point x="103" y="221" type="line"/>
      <point x="103" y="181" type="line"/>
      <point x="343" y="181" type="line"/>
      <point x="343" y="198" type="line" smooth="yes"/>
      <point x="343" y="292"/>
      <point x="296" y="355"/>
      <point x="205" y="356" type="curve" smooth="yes"/>
      <point x="115" y="356"/>
      <point x="33" y="282"/>
      <point x="33" y="169" type="curve" smooth="yes"/>
      <point x="33" y="67"/>
      <point x="106" y="-6"/>
      <point x="203" y="-6" type="curve" smooth="yes"/>
      <point x="220" y="-6"/>
      <point x="239" y="-6"/>
      <point x="261" y="4" type="curve"/>
      <point x="263" y="13" type="line"/>
      <point x="196" y="-25"/>
      <point x="163" y="-62"/>
      <point x="163" y="-100" type="curve" smooth="yes"/>
      <point x="163" y="-145"/>
      <point x="203" y="-178"/>
      <point x="259" y="-178" type="curve" smooth="yes"/>
      <point x="295" y="-178"/>
      <point x="325" y="-163"/>
      <point x="346" y="-138" type="curve"/>
    </contour>
    <contour>
      <point x="198" y="349" type="move" name="top"/>
    </contour>
  </outline>
</glyph>
<glyph name="Iogonek" format="1">
  <advance width="271"/>
  <unicode hex="012E"/>
  <outline>
    <contour>
      <point x="178" y="185" type="curve" smooth="yes"/>
      <point x="178" y="342" type="line" smooth="yes"/>
      <point x="178" y="433"/>
      <point x="181" y="470"/>
      <point x="184" y="476" type="curve"/>
      <point x="191" y="482"/>
      <point x="218" y="488"/>
      <point x="240" y="489" type="curve"/>
      <point x="238" y="530" type="line"/>
      <point x="210" y="528"/>
      <point x="169" y="527"/>
      <point x="136" y="527" type="curve" smooth="yes"/>
      <point x="103" y="527"/>
      <point x="61" y="528"/>
      <point x="33" y="530" type="curve"/>
      <point x="31" y="489" type="line"/>
      <point x="53" y="488"/>
      <point x="80" y="482"/>
      <point x="87" y="476" type="curve"/>
      <point x="90" y="470"/>
      <point x="93" y="433"/>
      <point x="93" y="342" type="curve" smooth="yes"/>
      <point x="93" y="185" type="line" smooth="yes"/>
      <point x="93" y="94"/>
      <point x="90" y="57"/>
      <point x="87" y="51" type="curve"/>
      <point x="80" y="46"/>
      <point x="53" y="40"/>
      <point x="31" y="38" type="curve"/>
      <point x="33" y="-3" type="line"/>
      <point x="67" y="0"/>
      <point x="121" y="2"/>
      <point x="168" y="2" type="curve"/>
      <point x="168" y="10" type="line"/>
      <point x="87" y="-8"/>
      <point x="42" y="-54"/>
      <point x="42" y="-99" type="curve" smooth="yes"/>
      <point x="42" y="-144"/>
      <point x="84" y="-178"/>
      <point x="140" y="-178" type="curve" smooth="yes"/>
      <point x="176" y="-178"/>
      <point x="206" y="-163"/>
      <point x="227" y="-138" type="curve"/>
      <point x="208" y="-110" type="line"/>
      <point x="190" y="-128"/>
      <point x="172" y="-138"/>
      <point x="153" y="-138" type="curve" smooth="yes"/>
      <point x="125" y="-138"/>
      <point x="107" y="-121"/>
      <point x="107" y="-89" type="curve" smooth="yes"/>
      <point x="107" y="-44"/>
      <point x="155" y="0"/>
      <point x="238" y="0" type="curve"/>
      <point x="240" y="38" type="line"/>
      <point x="218" y="40"/>
      <point x="191" y="46"/>
      <point x="184" y="51" type="curve"/>
      <point x="181" y="57"/>
      <point x="178" y="94"/>
    </contour>
    <contour>
      <point x="136" y="528" type="move" name="top"/>
    </contour>
    <contour>
      <point x="16" y="528" type="move" name="topleft"/>
    </contour>
  </outline>
</glyph>
<glyph name="iogonek" format="1">
  <advance width="228"/>
  <unicode hex="012F"/>
  <outline>
    <contour>
      <point x="211" y="-2" type="curve"/>
      <point x="214" y="34" type="line"/>
      <point x="195" y="36"/>
      <point x="166" y="42"/>
      <point x="158" y="48" type="curve"/>
      <point x="156" y="54"/>
      <point x="153" y="82"/>
      <point x="153" y="131" type="curve" smooth="yes"/>
      <point x="153" y="233" type="line" smooth="yes"/>
      <point x="153" y="281"/>
      <point x="155" y="311"/>
      <point x="158" y="341" type="curve"/>
      <point x="142" y="354" type="line"/>
      <point x="104" y="341"/>
      <point x="61" y="329"/>
      <point x="16" y="321" type="curve"/>
      <point x="16" y="288" type="line"/>
      <point x="35" y="285"/>
      <point x="55" y="282"/>
      <point x="68" y="276" type="curve"/>
      <point x="71" y="256"/>
      <point x="75" y="232"/>
      <point x="75" y="190" type="curve" smooth="yes"/>
      <point x="74" y="130" type="line" smooth="yes"/>
      <point x="73" y="82"/>
      <point x="72" y="53"/>
      <point x="70" y="48" type="curve"/>
      <point x="62" y="42"/>
      <point x="36" y="36"/>
      <point x="17" y="34" type="curve"/>
      <point x="19" y="-2" type="line"/>
      <point x="50" y="0"/>
      <point x="86" y="2"/>
      <point x="115" y="2" type="curve" smooth="yes"/>
      <point x="159" y="2" type="line"/>
      <point x="150" y="10" type="line"/>
      <point x="71" y="-7"/>
      <point x="22" y="-54"/>
      <point x="22" y="-100" type="curve" smooth="yes"/>
      <point x="22" y="-145"/>
      <point x="62" y="-178"/>
      <point x="119" y="-178" type="curve" smooth="yes"/>
      <point x="154" y="-178"/>
      <point x="184" y="-163"/>
      <point x="206" y="-138" type="curve"/>
      <point x="186" y="-110" type="line"/>
      <point x="169" y="-128"/>
      <point x="151" y="-138"/>
      <point x="131" y="-138" type="curve" smooth="yes"/>
      <point x="105" y="-138"/>
      <point x="87" y="-121"/>
      <point x="87" y="-92" type="curve" smooth="yes"/>
      <point x="87" y="-55"/>
      <point x="131" y="-2"/>
    </contour>
    <component base="dotaccentcomb.i" xOffset="-126.032"/>
  </outline>
</glyph>
<glyph name="eng" format="1">
  <advance width="450"/>
  <unicode hex="014B"/>
  <outline>
    <contour>
      <point x="382" y="9" type="curve"/>
      <point x="381" y="213" type="line"/>
      <point x="381" y="306"/>
      <point x="327" y="356"/>
      <point x="266" y="356" type="curve" smooth="yes"/>
      <point x="225" y="356"/>
      <point x="188" y="337"/>
      <point x="152" y="296" type="curve"/>
      <point x="149" y="297" type="line"/>
      <point x="154" y="341" type="line"/>
      <point x="138" y="354" type="line"/>
      <point x="102" y="341"/>
      <point x="60" y="329"/>
      <point x="15" y="321" type="curve"/>
      <point x="15" y="288" type="line"/>
      <point x="34" y="285"/>
      <point x="54" y="282"/>
      <point x="67" y="276" type="curve"/>
      <point x="70" y="256"/>
      <point x="74" y="232"/>
      <point x="74" y="190" type="curve" smooth="yes"/>
      <point x="73" y="130" type="line" smooth="yes"/>
      <point x="72" y="82"/>
      <point x="71" y="53"/>
      <point x="69" y="48" type="curve"/>
      <point x="61" y="42"/>
      <point x="35" y="36"/>
      <point x="18" y="34" type="curve"/>
      <point x="21" y="-2" type="line"/>
      <point x="48" y="0"/>
      <point x="85" y="2"/>
      <point x="113" y="2" type="curve" smooth="yes"/>
      <point x="142" y="2"/>
      <point x="180" y="0"/>
      <point x="207" y="-2" type="curve"/>
      <point x="210" y="34" type="line"/>
      <point x="194" y="36"/>
      <point x="164" y="42"/>
      <point x="156" y="48" type="curve"/>
      <point x="155" y="54"/>
      <point x="152" y="82"/>
      <point x="152" y="131" type="curve" smooth="yes"/>
      <point x="152" y="250" type="line"/>
      <point x="173" y="276"/>
      <point x="202" y="289"/>
      <point x="230" y="289" type="curve" smooth="yes"/>
      <point x="268" y="289"/>
      <point x="304" y="263"/>
      <point x="304" y="201" type="curve"/>
      <point x="303" y="-10" type="line"/>
      <point x="303" y="-78"/>
      <point x="279" y="-119"/>
      <point x="228" y="-151" type="curve"/>
      <point x="245" y="-184" type="line"/>
      <point x="331" y="-148"/>
      <point x="382" y="-72"/>
    </contour>
  </outline>
</glyph>
<glyph name="OE" format="1">
  <advance width="833"/>
  <unicode hex="0152"/>
  <outline>
    <contour>
      <point x="348" y="-8" type="curve" smooth="yes"/>
      <point x="394" y="-8"/>
      <point x="436" y="0"/>
      <point x="471" y="0" type="curve" smooth="yes"/>
      <point x="682" y="0" type="line" smooth="yes"/>
      <point x="713" y="0"/>
      <point x="746" y="-2"/>
      <point x="774" y="-5" type="curve"/>
      <point x="811" y="131" type="line"/>
      <point x="768" y="140" type="line"/>
      <point x="749" y="101"/>
      <point x="733" y="70"/>
      <point x="722" y="50" type="curve"/>
      <point x="710" y="47"/>
      <point x="697" y="46"/>
      <point x="657" y="46" type="curve" smooth="yes"/>
      <point x="578" y="46" type="line" smooth="yes"/>
      <point x="550" y="46"/>
      <point x="533" y="48"/>
      <point x="517" y="50" type="curve"/>
      <point x="516" y="61"/>
      <point x="514" y="102"/>
      <point x="514" y="148" type="curve" smooth="yes"/>
      <point x="514" y="374" type="line" smooth="yes"/>
      <point x="514" y="421"/>
      <point x="516" y="471"/>
      <point x="517" y="481" type="curve"/>
      <point x="531" y="483"/>
      <point x="549" y="484"/>
      <point x="572" y="484" type="curve" smooth="yes"/>
      <point x="669" y="484" type="line" smooth="yes"/>
      <point x="680" y="484"/>
      <point x="692" y="483"/>
      <point x="703" y="481" type="curve"/>
      <point x="715" y="459"/>
      <point x="724" y="434"/>
      <point x="735" y="402" type="curve"/>
      <point x="778" y="408" type="line"/>
      <point x="758" y="532" type="line"/>
      <point x="729" y="530"/>
      <point x="690" y="528"/>
      <point x="660" y="528" type="curve" smooth="yes"/>
      <point x="462" y="528" type="line" smooth="yes"/>
      <point x="423" y="528"/>
      <point x="388" y="534"/>
      <point x="347" y="534" type="curve" smooth="yes"/>
      <point x="157" y="534"/>
      <point x="46" y="411"/>
      <point x="46" y="259" type="curve" smooth="yes"/>
      <point x="46" y="90"/>
      <point x="163" y="-8"/>
    </contour>
    <contour>
      <point x="357" y="45" type="curve" smooth="yes"/>
      <point x="228" y="45"/>
      <point x="149" y="130"/>
      <point x="149" y="272" type="curve" smooth="yes"/>
      <point x="149" y="393"/>
      <point x="218" y="483"/>
      <point x="341" y="483" type="curve" smooth="yes"/>
      <point x="374" y="483"/>
      <point x="401" y="479"/>
      <point x="425" y="472" type="curve"/>
      <point x="427" y="460"/>
      <point x="429" y="424"/>
      <point x="429" y="346" type="curve" smooth="yes"/>
      <point x="429" y="189" type="line" smooth="yes"/>
      <point x="429" y="106"/>
      <point x="428" y="70"/>
      <point x="427" y="56" type="curve"/>
      <point x="408" y="50"/>
      <point x="382" y="45"/>
    </contour>
    <contour>
      <point x="672" y="182" type="curve"/>
      <point x="713" y="182" type="line"/>
      <point x="711" y="212"/>
      <point x="710" y="244"/>
      <point x="710" y="271" type="curve" smooth="yes"/>
      <point x="710" y="299"/>
      <point x="711" y="329"/>
      <point x="713" y="359" type="curve"/>
      <point x="672" y="359" type="line"/>
      <point x="669" y="340"/>
      <point x="665" y="310"/>
      <point x="661" y="298" type="curve"/>
      <point x="654" y="297"/>
      <point x="638" y="295"/>
      <point x="618" y="295" type="curve" smooth="yes"/>
      <point x="551" y="295" type="line" smooth="yes"/>
      <point x="534" y="295"/>
      <point x="517" y="297"/>
      <point x="499" y="297" type="curve"/>
      <point x="499" y="245" type="line"/>
      <point x="517" y="246"/>
      <point x="534" y="247"/>
      <point x="551" y="247" type="curve" smooth="yes"/>
      <point x="618" y="247" type="line" smooth="yes"/>
      <point x="638" y="247"/>
      <point x="654" y="246"/>
      <point x="661" y="244" type="curve"/>
      <point x="665" y="232"/>
      <point x="669" y="201"/>
    </contour>
    <contour>
      <point x="472" y="0" type="move" name="bottom"/>
    </contour>
    <contour>
      <point x="472" y="528" type="move" name="top"/>
    </contour>
  </outline>
</glyph>
<glyph name="uogonek" format="1">
  <advance width="456"/>
  <unicode hex="0173"/>
  <outline>
    <contour>
      <point x="370" y="-178" type="curve" smooth="yes"/>
      <point x="406" y="-178"/>
      <point x="436" y="-163"/>
      <point x="458" y="-138" type="curve"/>
      <point x="438" y="-110" type="line"/>
      <point x="420" y="-128"/>
      <point x="403" y="-138"/>
      <point x="383" y="-138" type="curve" smooth="yes"/>
      <point x="357" y="-138"/>
      <point x="339" y="-121"/>
      <point x="339" y="-94" type="curve" smooth="yes"/>
      <point x="339" y="-61"/>
      <point x="364" y="-25"/>
      <point x="439" y="23" type="curve"/>
      <point x="439" y="55" type="line"/>
      <point x="423" y="58"/>
      <point x="395" y="62"/>
      <point x="385" y="67" type="curve"/>
      <point x="382" y="85"/>
      <point x="379" y="120"/>
      <point x="379" y="162" type="curve" smooth="yes"/>
      <point x="379" y="224" type="line" smooth="yes"/>
      <point x="379" y="275"/>
      <point x="380" y="311"/>
      <point x="381" y="341" type="curve"/>
      <point x="365" y="354" type="line"/>
      <point x="329" y="341"/>
      <point x="290" y="329"/>
      <point x="244" y="321" type="curve"/>
      <point x="244" y="288" type="line"/>
      <point x="265" y="285"/>
      <point x="282" y="281"/>
      <point x="297" y="275" type="curve"/>
      <point x="299" y="256"/>
      <point x="302" y="229"/>
      <point x="302" y="188" type="curve" smooth="yes"/>
      <point x="302" y="103" type="line"/>
      <point x="282" y="73"/>
      <point x="252" y="61"/>
      <point x="228" y="61" type="curve" smooth="yes"/>
      <point x="182" y="61"/>
      <point x="152" y="86"/>
      <point x="152" y="145" type="curve" smooth="yes"/>
      <point x="153" y="219" type="line" smooth="yes"/>
      <point x="153" y="267"/>
      <point x="154" y="311"/>
      <point x="157" y="341" type="curve"/>
      <point x="141" y="354" type="line"/>
      <point x="101" y="341"/>
      <point x="61" y="329"/>
      <point x="17" y="321" type="curve"/>
      <point x="17" y="288" type="line"/>
      <point x="35" y="285"/>
      <point x="56" y="282"/>
      <point x="69" y="276" type="curve"/>
      <point x="71" y="256"/>
      <point x="73" y="229"/>
      <point x="73" y="202" type="curve" smooth="yes"/>
      <point x="73" y="134" type="line" smooth="yes"/>
      <point x="73" y="40"/>
      <point x="127" y="-7"/>
      <point x="200" y="-7" type="curve" smooth="yes"/>
      <point x="237" y="-7"/>
      <point x="271" y="9"/>
      <point x="302" y="56" type="curve"/>
      <point x="304" y="55" type="line"/>
      <point x="303" y="3" type="line"/>
      <point x="315" y="-5" type="line"/>
      <point x="392" y="8" type="line"/>
      <point x="387" y="13" type="line"/>
      <point x="319" y="-16"/>
      <point x="274" y="-57"/>
      <point x="274" y="-100" type="curve" smooth="yes"/>
      <point x="274" y="-145"/>
      <point x="314" y="-178"/>
    </contour>
    <contour>
      <point x="228" y="349" type="move" name="top"/>
    </contour>
    <contour>
      <point x="365" y="349" type="move" name="topright"/>
    </contour>
  </outline>
</glyph>
<glyph name="Ohorn" format="1">
  <advance width="621"/>
  <unicode hex="01A0"/>
  <outline>
    <contour>
      <point x="602" y="582" type="curve" smooth="yes"/>
      <point x="602" y="629"/>
      <point x="566" y="638"/>
      <point x="522" y="631" type="curve"/>
      <point x="520" y="586" type="line" smooth="yes"/>
      <point x="519" y="546"/>
      <point x="497" y="523"/>
      <point x="455" y="523" type="curve" smooth="yes"/>
      <point x="418" y="523"/>
      <point x="376" y="536"/>
      <point x="323" y="536" type="curve" smooth="yes"/>
      <point x="160" y="536"/>
      <point x="45" y="419"/>
      <point x="45" y="260" type="curve" smooth="yes"/>
      <point x="45" y="102"/>
      <point x="157" y="-8"/>
      <point x="316" y="-8" type="curve" smooth="yes"/>
      <point x="451" y="-8"/>
      <point x="576" y="100"/>
      <point x="576" y="269" type="curve" smooth="yes"/>
      <point x="576" y="370"/>
      <point x="531" y="451"/>
      <point x="459" y="497" type="curve"/>
      <point x="436" y="485" type="line"/>
      <point x="541" y="462"/>
      <point x="602" y="524"/>
    </contour>
    <contour>
      <point x="324" y="46" type="curve" smooth="yes"/>
      <point x="221" y="46"/>
      <point x="147" y="143"/>
      <point x="147" y="280" type="curve" smooth="yes"/>
      <point x="147" y="406"/>
      <point x="207" y="486"/>
      <point x="307" y="486" type="curve" smooth="yes"/>
      <point x="408" y="486"/>
      <point x="476" y="389"/>
      <point x="476" y="247" type="curve" smooth="yes"/>
      <point x="476" y="122"/>
      <point x="418" y="46"/>
    </contour>
    <contour>
      <point x="310" y="0" type="move" name="bottom"/>
    </contour>
    <contour>
      <point x="310" y="264" type="move" name="center"/>
    </contour>
    <contour>
      <point x="310" y="528" type="move" name="top"/>
    </contour>
    <contour>
      <point x="16" y="528" type="move" name="topleft"/>
    </contour>
  </outline>
</glyph>
<glyph name="ohorn" format="1">
  <advance width="422"/>
  <unicode hex="01A1"/>
  <outline>
    <contour>
      <point x="406" y="385" type="curve" smooth="yes"/>
      <point x="406" y="418"/>
      <point x="372" y="434"/>
      <point x="329" y="425" type="curve"/>
      <point x="327" y="379" type="line" smooth="yes"/>
      <point x="325" y="354"/>
      <point x="318" y="343"/>
      <point x="298" y="343" type="curve" smooth="yes"/>
      <point x="274" y="343"/>
      <point x="258" y="356"/>
      <point x="210" y="356" type="curve" smooth="yes"/>
      <point x="119" y="356"/>
      <point x="34" y="287"/>
      <point x="34" y="172" type="curve" smooth="yes"/>
      <point x="34" y="67"/>
      <point x="107" y="-6"/>
      <point x="214" y="-6" type="curve" smooth="yes"/>
      <point x="311" y="-6"/>
      <point x="388" y="75"/>
      <point x="388" y="178" type="curve" smooth="yes"/>
      <point x="388" y="242"/>
      <point x="361" y="295"/>
      <point x="317" y="326" type="curve"/>
      <point x="304" y="307" type="line"/>
      <point x="353" y="306"/>
      <point x="406" y="339"/>
    </contour>
    <contour>
      <point x="222" y="41" type="curve" smooth="yes"/>
      <point x="165" y="41"/>
      <point x="123" y="104"/>
      <point x="123" y="192" type="curve" smooth="yes"/>
      <point x="123" y="265"/>
      <point x="156" y="311"/>
      <point x="206" y="311" type="curve" smooth="yes"/>
      <point x="262" y="311"/>
      <point x="300" y="249"/>
      <point x="300" y="156" type="curve" smooth="yes"/>
      <point x="300" y="85"/>
      <point x="270" y="41"/>
    </contour>
    <contour>
      <point x="211" y="0" type="move" name="bottom"/>
    </contour>
    <contour>
      <point x="211" y="175" type="move" name="center"/>
    </contour>
    <contour>
      <point x="260" y="0" type="move" name="ogonek"/>
    </contour>
    <contour>
      <point x="211" y="349" type="move" name="top"/>
    </contour>
  </outline>
</glyph>
<glyph name="Uhorn" format="1">
  <advance width="591"/>
  <unicode hex="01AF"/>
  <outline>
    <contour>
      <point x="304" y="-8" type="curve" smooth="yes"/>
      <point x="416" y="-8"/>
      <point x="501" y="62"/>
      <point x="501" y="215" type="curve" smooth="yes"/>
      <point x="501" y="326" type="line" smooth="yes"/>
      <point x="501" y="421"/>
      <point x="504" y="470"/>
      <point x="508" y="496" type="curve"/>
      <point x="497" y="484" type="line"/>
      <point x="565" y="489"/>
      <point x="612" y="524"/>
      <point x="612" y="582" type="curve" smooth="yes"/>
      <point x="612" y="629"/>
      <point x="576" y="638"/>
      <point x="532" y="631" type="curve"/>
      <point x="531" y="586" type="line" smooth="yes"/>
      <point x="529" y="546"/>
      <point x="512" y="527"/>
      <point x="468" y="527" type="curve" smooth="yes"/>
      <point x="439" y="527"/>
      <point x="411" y="528"/>
      <point x="382" y="529" type="curve"/>
      <point x="381" y="488" type="line"/>
      <point x="403" y="488"/>
      <point x="430" y="482"/>
      <point x="437" y="476" type="curve"/>
      <point x="440" y="470"/>
      <point x="443" y="423"/>
      <point x="443" y="326" type="curve" smooth="yes"/>
      <point x="443" y="222" type="line" smooth="yes"/>
      <point x="443" y="104"/>
      <point x="392" y="60"/>
      <point x="317" y="60" type="curve" smooth="yes"/>
      <point x="226" y="60"/>
      <point x="178" y="108"/>
      <point x="177" y="218" type="curve" smooth="yes"/>
      <point x="177" y="342" type="line" smooth="yes"/>
      <point x="177" y="433"/>
      <point x="180" y="465"/>
      <point x="184" y="476" type="curve"/>
      <point x="191" y="482"/>
      <point x="218" y="488"/>
      <point x="240" y="488" type="curve"/>
      <point x="238" y="529" type="line"/>
      <point x="209" y="528"/>
      <point x="168" y="527"/>
      <point x="134" y="527" type="curve" smooth="yes"/>
      <point x="101" y="527"/>
      <point x="59" y="528"/>
      <point x="31" y="529" type="curve"/>
      <point x="29" y="488" type="line"/>
      <point x="51" y="488"/>
      <point x="78" y="482"/>
      <point x="85" y="476" type="curve"/>
      <point x="88" y="470"/>
      <point x="91" y="433"/>
      <point x="91" y="342" type="curve" smooth="yes"/>
      <point x="91" y="206" type="line" smooth="yes"/>
      <point x="91" y="69"/>
      <point x="171" y="-8"/>
    </contour>
    <contour>
      <point x="310" y="0" type="move" name="bottom"/>
    </contour>
    <contour>
      <point x="532" y="8" type="move" name="ogonek"/>
    </contour>
    <contour>
      <point x="311" y="528" type="move" name="top"/>
    </contour>
  </outline>
</glyph>
<glyph name="uhorn" format="1">
  <advance width="456"/>
  <unicode hex="01B0"/>
  <outline>
    <contour>
      <point x="319" y="-10" type="line"/>
      <point x="353" y="3"/>
      <point x="393" y="15"/>
      <point x="439" y="23" type="curve"/>
      <point x="439" y="55" type="line"/>
      <point x="423" y="58"/>
      <point x="395" y="62"/>
      <point x="385" y="67" type="curve"/>
      <point x="382" y="85"/>
      <point x="379" y="120"/>
      <point x="379" y="162" type="curve" smooth="yes"/>
      <point x="379" y="339" type="line"/>
      <point x="352" y="310" type="line"/>
      <point x="421" y="320"/>
      <point x="465" y="352"/>
      <point x="465" y="391" type="curve" smooth="yes"/>
      <point x="465" y="423"/>
      <point x="430" y="440"/>
      <point x="388" y="431" type="curve"/>
      <point x="386" y="393" type="line" smooth="yes"/>
      <point x="385" y="366"/>
      <point x="371" y="352"/>
      <point x="345" y="346" type="curve" smooth="yes"/>
      <point x="317" y="337"/>
      <point x="280" y="327"/>
      <point x="244" y="321" type="curve"/>
      <point x="244" y="288" type="line"/>
      <point x="265" y="285"/>
      <point x="282" y="281"/>
      <point x="297" y="275" type="curve"/>
      <point x="299" y="256"/>
      <point x="302" y="229"/>
      <point x="302" y="188" type="curve" smooth="yes"/>
      <point x="302" y="103" type="line"/>
      <point x="282" y="73"/>
      <point x="252" y="61"/>
      <point x="228" y="61" type="curve" smooth="yes"/>
      <point x="182" y="61"/>
      <point x="152" y="86"/>
      <point x="152" y="145" type="curve" smooth="yes"/>
      <point x="153" y="219" type="line" smooth="yes"/>
      <point x="153" y="267"/>
      <point x="154" y="311"/>
      <point x="157" y="341" type="curve"/>
      <point x="141" y="354" type="line"/>
      <point x="101" y="341"/>
      <point x="61" y="329"/>
      <point x="17" y="321" type="curve"/>
      <point x="17" y="288" type="line"/>
      <point x="35" y="285"/>
      <point x="56" y="282"/>
      <point x="69" y="276" type="curve"/>
      <point x="71" y="256"/>
      <point x="73" y="229"/>
      <point x="73" y="202" type="curve" smooth="yes"/>
      <point x="73" y="134" type="line" smooth="yes"/>
      <point x="73" y="40"/>
      <point x="127" y="-7"/>
      <point x="200" y="-7" type="curve" smooth="yes"/>
      <point x="237" y="-7"/>
      <point x="271" y="9"/>
      <point x="302" y="56" type="curve"/>
      <point x="304" y="55" type="line"/>
      <point x="303" y="2" type="line"/>
    </contour>
    <contour>
      <point x="228" y="0" type="move" name="bottom"/>
    </contour>
    <contour>
      <point x="349" y="0" type="move" name="ogonek"/>
    </contour>
    <contour>
      <point x="228" y="349" type="move" name="top"/>
    </contour>
  </outline>
</glyph>
<glyph name="gravecomb" format="1">
  <advance width="480"/>
  <unicode hex="0300"/>
  <outline>
    <contour>
      <point x="220" y="386" type="line"/>
      <point x="260" y="401" type="line"/>
      <point x="181" y="542" type="line"/>
      <point x="102" y="523" type="line"/>
    </contour>
    <contour>
      <point x="240" y="349" type="move" name="_top"/>
    </contour>
    <contour>
      <point x="240" y="550" type="move" name="top"/>
    </contour>
  </outline>
</glyph>
<glyph name="hookabovecomb" format="1">
  <advance width="480"/>
  <unicode hex="0309"/>
  <outline>
    <contour>
      <point x="242" y="536" type="curve" smooth="yes"/>
      <point x="194" y="536"/>
      <point x="163" y="514"/>
      <point x="163" y="491" type="curve" smooth="yes"/>
      <point x="163" y="478"/>
      <point x="172" y="469"/>
      <point x="186" y="469" type="curve" smooth="yes"/>
      <point x="199" y="469"/>
      <point x="205" y="474"/>
      <point x="216" y="484" type="curve" smooth="yes"/>
      <point x="246" y="517" type="line"/>
      <point x="215" y="506" type="line"/>
      <point x="242" y="513"/>
      <point x="261" y="510"/>
      <point x="261" y="488" type="curve" smooth="yes"/>
      <point x="261" y="466"/>
      <point x="225" y="448"/>
      <point x="225" y="407" type="curve" smooth="yes"/>
      <point x="225" y="394" type="line"/>
      <point x="255" y="394" type="line"/>
      <point x="255" y="434"/>
      <point x="322" y="434"/>
      <point x="322" y="483" type="curve" smooth="yes"/>
      <point x="322" y="516"/>
      <point x="290" y="536"/>
    </contour>
    <contour>
      <point x="240" y="349" type="move" name="_top"/>
    </contour>
    <contour>
      <point x="240" y="550" type="move" name="top"/>
    </contour>
  </outline>
</glyph>
<glyph name="pi" format="1">
  <advance width="526"/>
  <unicode hex="03C0"/>
  <outline>
    <contour>
      <point x="400" y="-9" type="curve" smooth="yes"/>
      <point x="446" y="-9"/>
      <point x="482" y="17"/>
      <point x="506" y="69" type="curve"/>
      <point x="483" y="93" type="line"/>
      <point x="464" y="69"/>
      <point x="445" y="57"/>
      <point x="426" y="57" type="curve" smooth="yes"/>
      <point x="397" y="57"/>
      <point x="380" y="76"/>
      <point x="381" y="122" type="curve" smooth="yes"/>
      <point x="386" y="329" type="line"/>
      <point x="307" y="328" type="line"/>
      <point x="299" y="105" type="line" smooth="yes"/>
      <point x="297" y="35"/>
      <point x="340" y="-9"/>
    </contour>
    <contour>
      <point x="83" y="-8" type="curve" smooth="yes"/>
      <point x="152" y="-8"/>
      <point x="186" y="50"/>
      <point x="194" y="161" type="curve" smooth="yes"/>
      <point x="207" y="334" type="line"/>
      <point x="150" y="334" type="line"/>
      <point x="136" y="138" type="line" smooth="yes"/>
      <point x="131" y="59"/>
      <point x="118" y="25"/>
      <point x="83" y="25" type="curve"/>
      <point x="114" y="21" type="line"/>
      <point x="77" y="61" type="line" smooth="yes"/>
      <point x="63" y="75"/>
      <point x="53" y="80"/>
      <point x="38" y="80" type="curve" smooth="yes"/>
      <point x="21" y="80"/>
      <point x="8" y="69"/>
      <point x="8" y="49" type="curve" smooth="yes"/>
      <point x="8" y="17"/>
      <point x="39" y="-8"/>
    </contour>
    <contour>
      <point x="53" y="279" type="line"/>
      <point x="85" y="296"/>
      <point x="116" y="303"/>
      <point x="152" y="303" type="curve" smooth="yes"/>
      <point x="391" y="303" type="line" smooth="yes"/>
      <point x="430" y="303"/>
      <point x="448" y="303"/>
      <point x="468" y="302" type="curve"/>
      <point x="473" y="343"/>
      <point x="478" y="380"/>
      <point x="483" y="409" type="curve"/>
      <point x="440" y="409" type="line"/>
      <point x="434" y="389"/>
      <point x="427" y="368"/>
      <point x="420" y="353" type="curve"/>
      <point x="402" y="350"/>
      <point x="386" y="349"/>
      <point x="367" y="349" type="curve" smooth="yes"/>
      <point x="176" y="349" type="line" smooth="yes"/>
      <point x="120" y="349"/>
      <point x="73" y="343"/>
      <point x="38" y="325" type="curve"/>
    </contour>
  </outline>
</glyph>
<glyph name="quoteleft" format="1">
  <advance width="212"/>
  <unicode hex="2018"/>
  <outline>
    <contour>
      <point x="172" y="558" type="line"/>
      <point x="91" y="522"/>
      <point x="42" y="448"/>
      <point x="42" y="369" type="curve" smooth="yes"/>
      <point x="42" y="301"/>
      <point x="75" y="274"/>
      <point x="107" y="274" type="curve" smooth="yes"/>
      <point x="141" y="274"/>
      <point x="165" y="300"/>
      <point x="165" y="333" type="curve" smooth="yes"/>
      <point x="165" y="390"/>
      <point x="111" y="386"/>
      <point x="111" y="438" type="curve" smooth="yes"/>
      <point x="111" y="474"/>
      <point x="135" y="504"/>
      <point x="185" y="528" type="curve"/>
    </contour>
  </outline>
</glyph>
<glyph name="daggerdbl" format="1">
  <advance width="382"/>
  <unicode hex="2021"/>
  <outline>
    <contour>
      <point x="311" y="204" type="curve" smooth="yes"/>
      <point x="282" y="204"/>
      <point x="240" y="187"/>
      <point x="208" y="180" type="curve"/>
      <point x="216" y="210"/>
      <point x="224" y="238"/>
      <point x="236" y="275" type="curve"/>
      <point x="224" y="312"/>
      <point x="216" y="341"/>
      <point x="208" y="371" type="curve"/>
      <point x="240" y="364"/>
      <point x="282" y="347"/>
      <point x="311" y="347" type="curve" smooth="yes"/>
      <point x="338" y="347"/>
      <point x="352" y="365"/>
      <point x="352" y="389" type="curve" smooth="yes"/>
      <point x="352" y="413"/>
      <point x="338" y="431"/>
      <point x="311" y="431" type="curve" smooth="yes"/>
      <point x="281" y="431"/>
      <point x="239" y="413"/>
      <point x="206" y="407" type="curve"/>
      <point x="211" y="440"/>
      <point x="228" y="484"/>
      <point x="228" y="513" type="curve" smooth="yes"/>
      <point x="228" y="544"/>
      <point x="212" y="558"/>
      <point x="191" y="558" type="curve" smooth="yes"/>
      <point x="170" y="558"/>
      <point x="154" y="544"/>
      <point x="154" y="513" type="curve" smooth="yes"/>
      <point x="154" y="484"/>
      <point x="171" y="440"/>
      <point x="175" y="407" type="curve"/>
      <point x="143" y="413"/>
      <point x="101" y="431"/>
      <point x="71" y="431" type="curve" smooth="yes"/>
      <point x="43" y="431"/>
      <point x="30" y="413"/>
      <point x="30" y="389" type="curve" smooth="yes"/>
      <point x="30" y="365"/>
      <point x="43" y="347"/>
      <point x="71" y="347" type="curve" smooth="yes"/>
      <point x="100" y="347"/>
      <point x="142" y="364"/>
      <point x="174" y="371" type="curve"/>
      <point x="166" y="341"/>
      <point x="158" y="312"/>
      <point x="146" y="275" type="curve"/>
      <point x="158" y="238"/>
      <point x="166" y="210"/>
      <point x="174" y="180" type="curve"/>
      <point x="142" y="187"/>
      <point x="100" y="204"/>
      <point x="71" y="204" type="curve" smooth="yes"/>
      <point x="43" y="204"/>
      <point x="30" y="186"/>
      <point x="30" y="162" type="curve" smooth="yes"/>
      <point x="30" y="138"/>
      <point x="43" y="120"/>
      <point x="71" y="120" type="curve" smooth="yes"/>
      <point x="101" y="120"/>
      <point x="143" y="138"/>
      <point x="175" y="144" type="curve"/>
      <point x="171" y="110"/>
      <point x="154" y="67"/>
      <point x="154" y="38" type="curve" smooth="yes"/>
      <point x="154" y="7"/>
      <point x="170" y="-7"/>
      <point x="191" y="-7" type="curve" smooth="yes"/>
      <point x="212" y="-7"/>
      <point x="228" y="7"/>
      <point x="228" y="38" type="curve" smooth="yes"/>
      <point x="228" y="67"/>
      <point x="211" y="110"/>
      <point x="206" y="144" type="curve"/>
      <point x="239" y="138"/>
      <point x="281" y="120"/>
      <point x="311" y="120" type="curve" smooth="yes"/>
      <point x="338" y="120"/>
      <point x="352" y="138"/>
      <point x="352" y="162" type="curve" smooth="yes"/>
      <point x="352" y="186"/>
      <point x="338" y="204"/>
    </contour>
  </outline>
</glyph>
<glyph name="perthousand" format="1">
  <advance width="1017"/>
  <unicode hex="2030"/>
  <outline>
    <contour>
      <point x="835" y="-7" type="curve" smooth="yes"/>
      <point x="914" y="-7"/>
      <point x="980" y="53"/>
      <point x="980" y="132" type="curve" smooth="yes"/>
      <point x="980" y="214"/>
      <point x="917" y="271"/>
      <point x="835" y="271" type="curve" smooth="yes"/>
      <point x="758" y="271"/>
      <point x="691" y="210"/>
      <point x="691" y="132" type="curve" smooth="yes"/>
      <point x="691" y="50"/>
      <point x="752" y="-7"/>
    </contour>
    <contour>
      <point x="835" y="53" type="curve" smooth="yes"/>
      <point x="791" y="53"/>
      <point x="758" y="85"/>
      <point x="758" y="133" type="curve" smooth="yes"/>
      <point x="758" y="180"/>
      <point x="791" y="212"/>
      <point x="835" y="212" type="curve" smooth="yes"/>
      <point x="880" y="212"/>
      <point x="915" y="181"/>
      <point x="915" y="133" type="curve" smooth="yes"/>
      <point x="915" y="85"/>
      <point x="880" y="53"/>
    </contour>
    <component base="percent"/>
  </outline>
</glyph>
<glyph name="second" format="1">
  <advance width="372"/>
  <unicode hex="2033"/>
  <outline>
    <contour>
      <point x="102" y="558" type="curve" smooth="yes"/>
      <point x="71" y="558"/>
      <point x="47" y="532"/>
      <point x="47" y="483" type="curve" smooth="yes"/>
      <point x="47" y="443"/>
      <point x="74" y="345"/>
      <point x="87" y="290" type="curve"/>
      <point x="117" y="290" type="line"/>
      <point x="130" y="345"/>
      <point x="157" y="443"/>
      <point x="157" y="483" type="curve" smooth="yes"/>
      <point x="157" y="532"/>
      <point x="133" y="558"/>
    </contour>
    <contour>
      <point x="270" y="558" type="curve" smooth="yes"/>
      <point x="239" y="558"/>
      <point x="215" y="532"/>
      <point x="215" y="483" type="curve" smooth="yes"/>
      <point x="215" y="443"/>
      <point x="242" y="345"/>
      <point x="255" y="290" type="curve"/>
      <point x="286" y="290" type="line"/>
      <point x="298" y="345"/>
      <point x="325" y="443"/>
      <point x="325" y="483" type="curve" smooth="yes"/>
      <point x="325" y="532"/>
      <point x="301" y="558"/>
    </contour>
  </outline>
</glyph>
<glyph name="guilsinglright" format="1">
  <advance width="310"/>
  <unicode hex="203A"/>
  <outline>
    <contour>
      <point x="52" y="309" type="line"/>
      <point x="185" y="147" type="line"/>
      <point x="185" y="209" type="line"/>
      <point x="52" y="47" type="line"/>
      <point x="77" y="16" type="line"/>
      <point x="248" y="159" type="line"/>
      <point x="248" y="197" type="line"/>
      <point x="77" y="340" type="line"/>
    </contour>
  </outline>
</glyph>
<glyph name="franc" format="1">
  <advance width="455"/>
  <unicode hex="20A3"/>
  <outline>
    <contour>
      <point x="38" y="-3" type="line"/>
      <point x="63" y="-1"/>
      <point x="114" y="1"/>
      <point x="145" y="1" type="curve" smooth="yes"/>
      <point x="175" y="1"/>
      <point x="227" y="-1"/>
      <point x="255" y="-3" type="curve"/>
      <point x="256" y="39" type="line"/>
      <point x="234" y="42"/>
      <point x="197" y="47"/>
      <point x="184" y="51" type="curve"/>
      <point x="181" y="57"/>
      <point x="178" y="94"/>
      <point x="178" y="164" type="curve" smooth="yes"/>
      <point x="178" y="374" type="line" smooth="yes"/>
      <point x="178" y="421"/>
      <point x="179" y="470"/>
      <point x="180" y="480" type="curve"/>
      <point x="192" y="483"/>
      <point x="216" y="484"/>
      <point x="234" y="484" type="curve" smooth="yes"/>
      <point x="322" y="484" type="line" smooth="yes"/>
      <point x="333" y="484"/>
      <point x="345" y="483"/>
      <point x="356" y="481" type="curve"/>
      <point x="368" y="459"/>
      <point x="377" y="434"/>
      <point x="388" y="402" type="curve"/>
      <point x="430" y="408" type="line"/>
      <point x="411" y="532" type="line"/>
      <point x="382" y="530"/>
      <point x="343" y="528"/>
      <point x="313" y="528" type="curve" smooth="yes"/>
      <point x="137" y="528" type="line" smooth="yes"/>
      <point x="107" y="528"/>
      <point x="62" y="529"/>
      <point x="34" y="530" type="curve"/>
      <point x="32" y="489" type="line"/>
      <point x="54" y="488"/>
      <point x="81" y="482"/>
      <point x="87" y="476" type="curve"/>
      <point x="91" y="470"/>
      <point x="94" y="433"/>
      <point x="94" y="342" type="curve" smooth="yes"/>
      <point x="94" y="185" type="line" smooth="yes"/>
      <point x="94" y="94"/>
      <point x="91" y="57"/>
      <point x="87" y="51" type="curve"/>
      <point x="81" y="46"/>
      <point x="55" y="40"/>
      <point x="36" y="38" type="curve"/>
    </contour>
    <contour>
      <point x="326" y="214" type="curve"/>
      <point x="366" y="214" type="line"/>
      <point x="365" y="234"/>
      <point x="364" y="258"/>
      <point x="364" y="285" type="curve" smooth="yes"/>
      <point x="364" y="312"/>
      <point x="365" y="334"/>
      <point x="366" y="355" type="curve"/>
      <point x="326" y="355" type="line"/>
      <point x="323" y="342"/>
      <point x="319" y="321"/>
      <point x="315" y="311" type="curve"/>
      <point x="307" y="310"/>
      <point x="292" y="309"/>
      <point x="272" y="309" type="curve" smooth="yes"/>
      <point x="203" y="309" type="line" smooth="yes"/>
      <point x="186" y="309"/>
      <point x="169" y="310"/>
      <point x="155" y="311" type="curve"/>
      <point x="155" y="258" type="line"/>
      <point x="169" y="259"/>
      <point x="186" y="261"/>
      <point x="203" y="261" type="curve" smooth="yes"/>
      <point x="272" y="261" type="line" smooth="yes"/>
      <point x="292" y="261"/>
      <point x="307" y="259"/>
      <point x="315" y="258" type="curve"/>
      <point x="319" y="249"/>
      <point x="323" y="227"/>
    </contour>
    <contour>
      <point x="14" y="113" type="line"/>
      <point x="346" y="113" type="line"/>
      <point x="346" y="159" type="line"/>
      <point x="14" y="159" type="line"/>
    </contour>
  </outline>
</glyph>
<glyph name="peseta" format="1">
  <advance width="508"/>
  <unicode hex="20A7"/>
  <outline>
    <contour>
      <point x="37" y="-3" type="line"/>
      <point x="63" y="-1"/>
      <point x="113" y="1"/>
      <point x="144" y="1" type="curve" smooth="yes"/>
      <point x="175" y="1"/>
      <point x="225" y="-1"/>
      <point x="253" y="-3" type="curve"/>
      <point x="255" y="39" type="line"/>
      <point x="232" y="42"/>
      <point x="196" y="47"/>
      <point x="183" y="52" type="curve"/>
      <point x="180" y="57"/>
      <point x="177" y="94"/>
      <point x="177" y="164" type="curve" smooth="yes"/>
      <point x="177" y="350" type="line" smooth="yes"/>
      <point x="177" y="420"/>
      <point x="178" y="470"/>
      <point x="179" y="481" type="curve"/>
      <point x="191" y="484"/>
      <point x="203" y="485"/>
      <point x="224" y="485" type="curve" smooth="yes"/>
      <point x="292" y="485"/>
      <point x="337" y="440"/>
      <point x="337" y="362" type="curve" smooth="yes"/>
      <point x="337" y="293"/>
      <point x="297" y="257"/>
      <point x="237" y="257" type="curve" smooth="yes"/>
      <point x="207" y="257"/>
      <point x="187" y="262"/>
      <point x="163" y="270" type="curve"/>
      <point x="163" y="216" type="line"/>
      <point x="182" y="212"/>
      <point x="213" y="208"/>
      <point x="235" y="208" type="curve" smooth="yes"/>
      <point x="341" y="208"/>
      <point x="427" y="276"/>
      <point x="427" y="374" type="curve" smooth="yes"/>
      <point x="427" y="473"/>
      <point x="355" y="529"/>
      <point x="234" y="529" type="curve" smooth="yes"/>
      <point x="198" y="529"/>
      <point x="170" y="527"/>
      <point x="145" y="527" type="curve" smooth="yes"/>
      <point x="101" y="527"/>
      <point x="61" y="527"/>
      <point x="33" y="529" type="curve"/>
      <point x="31" y="488" type="line"/>
      <point x="53" y="487"/>
      <point x="80" y="482"/>
      <point x="87" y="476" type="curve"/>
      <point x="90" y="470"/>
      <point x="93" y="433"/>
      <point x="93" y="342" type="curve" smooth="yes"/>
      <point x="93" y="185" type="line" smooth="yes"/>
      <point x="93" y="94"/>
      <point x="90" y="57"/>
      <point x="87" y="51" type="curve"/>
      <point x="80" y="46"/>
      <point x="54" y="40"/>
      <point x="35" y="38" type="curve"/>
    </contour>
    <contour>
      <point x="14" y="348" type="line"/>
      <point x="494" y="348" type="line"/>
      <point x="494" y="393" type="line"/>
      <point x="14" y="393" type="line"/>
    </contour>
  </outline>
</glyph>
<glyph name="emptyset" format="1">
  <advance width="480"/>
  <unicode hex="2205"/>
  <outline>
    <contour>
      <point x="23" y="10" type="line"/>
      <point x="62" y="-17" type="line"/>
      <point x="125" y="65" type="line"/>
      <point x="160" y="46"/>
      <point x="199" y="35"/>
      <point x="241" y="35" type="curve" smooth="yes"/>
      <point x="370" y="35"/>
      <point x="477" y="137"/>
      <point x="477" y="261" type="curve" smooth="yes"/>
      <point x="477" y="327"/>
      <point x="448" y="384"/>
      <point x="404" y="425" type="curve"/>
      <point x="467" y="505" type="line"/>
      <point x="428" y="535" type="line"/>
      <point x="365" y="454" type="line"/>
      <point x="329" y="476"/>
      <point x="285" y="488"/>
      <point x="241" y="488" type="curve" smooth="yes"/>
      <point x="105" y="488"/>
      <point x="3" y="381"/>
      <point x="3" y="261" type="curve" smooth="yes"/>
      <point x="3" y="191"/>
      <point x="36" y="131"/>
      <point x="85" y="91" type="curve"/>
    </contour>
    <contour>
      <point x="116" y="133" type="line"/>
      <point x="80" y="165"/>
      <point x="59" y="210"/>
      <point x="59" y="261" type="curve" smooth="yes"/>
      <point x="59" y="360"/>
      <point x="138" y="435"/>
      <point x="241" y="435" type="curve" smooth="yes"/>
      <point x="276" y="435"/>
      <point x="308" y="426"/>
      <point x="334" y="411" type="curve"/>
    </contour>
    <contour>
      <point x="241" y="87" type="curve" smooth="yes"/>
      <point x="209" y="87"/>
      <point x="180" y="94"/>
      <point x="155" y="106" type="curve"/>
      <point x="373" y="382" type="line"/>
      <point x="403" y="350"/>
      <point x="422" y="308"/>
      <point x="422" y="261" type="curve" smooth="yes"/>
      <point x="422" y="159"/>
      <point x="339" y="87"/>
    </contour>
  </outline>
</glyph>
<glyph name="product" format="1">
  <advance width="564"/>
  <unicode hex="220F"/>
  <outline>
    <contour>
      <point x="470" y="185" type="curve" smooth="yes"/>
      <point x="470" y="342" type="line" smooth="yes"/>
      <point x="470" y="433"/>
      <point x="474" y="470"/>
      <point x="477" y="476" type="curve"/>
      <point x="484" y="482"/>
      <point x="511" y="488"/>
      <point x="532" y="489" type="curve"/>
      <point x="530" y="530" type="line"/>
      <point x="503" y="528"/>
      <point x="461" y="528"/>
      <point x="428" y="528" type="curve" smooth="yes"/>
      <point x="136" y="528" type="line" smooth="yes"/>
      <point x="103" y="528"/>
      <point x="61" y="528"/>
      <point x="33" y="530" type="curve"/>
      <point x="31" y="489" type="line"/>
      <point x="53" y="488"/>
      <point x="80" y="482"/>
      <point x="87" y="476" type="curve"/>
      <point x="90" y="470"/>
      <point x="93" y="433"/>
      <point x="93" y="342" type="curve" smooth="yes"/>
      <point x="93" y="185" type="line" smooth="yes"/>
      <point x="93" y="94"/>
      <point x="90" y="57"/>
      <point x="87" y="51" type="curve"/>
      <point x="80" y="46"/>
      <point x="53" y="40"/>
      <point x="31" y="38" type="curve"/>
      <point x="33" y="-3" type="line"/>
      <point x="61" y="-1"/>
      <point x="103" y="2"/>
      <point x="136" y="2" type="curve" smooth="yes"/>
      <point x="169" y="2"/>
      <point x="210" y="-1"/>
      <point x="237" y="-3" type="curve"/>
      <point x="239" y="38" type="line"/>
      <point x="218" y="40"/>
      <point x="191" y="46"/>
      <point x="184" y="51" type="curve"/>
      <point x="181" y="57"/>
      <point x="178" y="94"/>
      <point x="178" y="185" type="curve" smooth="yes"/>
      <point x="178" y="342" type="line" smooth="yes"/>
      <point x="178" y="427"/>
      <point x="181" y="463"/>
      <point x="184" y="474" type="curve"/>
      <point x="209" y="476"/>
      <point x="245" y="476"/>
      <point x="282" y="476" type="curve" smooth="yes"/>
      <point x="319" y="476"/>
      <point x="354" y="476"/>
      <point x="379" y="474" type="curve"/>
      <point x="383" y="463"/>
      <point x="385" y="427"/>
      <point x="385" y="342" type="curve" smooth="yes"/>
      <point x="385" y="185" type="line" smooth="yes"/>
      <point x="385" y="94"/>
      <point x="382" y="57"/>
      <point x="379" y="51" type="curve"/>
      <point x="372" y="46"/>
      <point x="346" y="40"/>
      <point x="324" y="38" type="curve"/>
      <point x="326" y="-3" type="line"/>
      <point x="354" y="-1"/>
      <point x="395" y="2"/>
      <point x="428" y="2" type="curve" smooth="yes"/>
      <point x="461" y="2"/>
      <point x="503" y="-1"/>
      <point x="530" y="-3" type="curve"/>
      <point x="532" y="38" type="line"/>
      <point x="511" y="40"/>
      <point x="484" y="46"/>
      <point x="477" y="51" type="curve"/>
      <point x="474" y="57"/>
      <point x="470" y="94"/>
    </contour>
  </outline>
</glyph>
<glyph name="infinity" format="1">
  <advance width="480"/>
  <unicode hex="221E"/>
  <outline>
    <contour>
      <point x="32" y="227" type="curve" smooth="yes"/>
      <point x="32" y="153"/>
      <point x="75" y="104"/>
      <point x="138" y="104" type="curve" smooth="yes"/>
      <point x="186" y="104"/>
      <point x="228" y="139"/>
      <point x="245" y="198" type="curve"/>
      <point x="232" y="210" type="line"/>
      <point x="206" y="179"/>
      <point x="177" y="166"/>
      <point x="143" y="166" type="curve" smooth="yes"/>
      <point x="102" y="166"/>
      <point x="72" y="193"/>
      <point x="72" y="236" type="curve" smooth="yes"/>
      <point x="72" y="273"/>
      <point x="92" y="296"/>
      <point x="129" y="296" type="curve" smooth="yes"/>
      <point x="164" y="296"/>
      <point x="187" y="268"/>
      <point x="212" y="220" type="curve" smooth="yes"/>
      <point x="249" y="145"/>
      <point x="280" y="104"/>
      <point x="333" y="104" type="curve" smooth="yes"/>
      <point x="398" y="104"/>
      <point x="448" y="157"/>
      <point x="448" y="235" type="curve" smooth="yes"/>
      <point x="448" y="309"/>
      <point x="405" y="358"/>
      <point x="342" y="358" type="curve" smooth="yes"/>
      <point x="294" y="358"/>
      <point x="252" y="324"/>
      <point x="235" y="264" type="curve"/>
      <point x="248" y="252" type="line"/>
      <point x="274" y="284"/>
      <point x="303" y="296"/>
      <point x="337" y="296" type="curve" smooth="yes"/>
      <point x="383" y="296"/>
      <point x="408" y="266"/>
      <point x="408" y="226" type="curve" smooth="yes"/>
      <point x="408" y="189"/>
      <point x="388" y="166"/>
      <point x="351" y="166" type="curve" smooth="yes"/>
      <point x="315" y="166"/>
      <point x="292" y="195"/>
      <point x="261" y="258" type="curve" smooth="yes"/>
      <point x="232" y="318"/>
      <point x="196" y="358"/>
      <point x="147" y="358" type="curve" smooth="yes"/>
      <point x="81" y="358"/>
      <point x="32" y="306"/>
    </contour>
  </outline>
</glyph>
<glyph name="approxequal" format="1">
  <advance width="480"/>
  <unicode hex="2248"/>
  <outline>
    <contour>
      <point x="406" y="351" type="line"/>
      <point x="390" y="322"/>
      <point x="370" y="306"/>
      <point x="342" y="306" type="curve" smooth="yes"/>
      <point x="296" y="306"/>
      <point x="218" y="369"/>
      <point x="150" y="369" type="curve" smooth="yes"/>
      <point x="103" y="369"/>
      <point x="64" y="337"/>
      <point x="45" y="283" type="curve"/>
      <point x="74" y="263" type="line"/>
      <point x="89" y="292"/>
      <point x="111" y="308"/>
      <point x="138" y="308" type="curve" smooth="yes"/>
      <point x="184" y="308"/>
      <point x="262" y="245"/>
      <point x="330" y="245" type="curve" smooth="yes"/>
      <point x="377" y="245"/>
      <point x="416" y="277"/>
      <point x="435" y="330" type="curve"/>
    </contour>
    <contour>
      <point x="406" y="191" type="line"/>
      <point x="390" y="162"/>
      <point x="370" y="146"/>
      <point x="342" y="146" type="curve" smooth="yes"/>
      <point x="296" y="146"/>
      <point x="218" y="209"/>
      <point x="150" y="209" type="curve" smooth="yes"/>
      <point x="103" y="209"/>
      <point x="64" y="177"/>
      <point x="45" y="123" type="curve"/>
      <point x="74" y="103" type="line"/>
      <point x="89" y="132"/>
      <point x="111" y="148"/>
      <point x="138" y="148" type="curve" smooth="yes"/>
      <point x="184" y="148"/>
      <point x="262" y="85"/>
      <point x="330" y="85" type="curve" smooth="yes"/>
      <point x="377" y="85"/>
      <point x="416" y="117"/>
      <point x="435" y="170" type="curve"/>
    </contour>
  </outline>
</glyph>
<glyph name="lessequal" format="1">
  <advance width="480"/>
  <unicode hex="2264"/>
  <outline>
    <contour>
      <point x="45" y="230" type="line"/>
      <point x="435" y="98" type="line"/>
      <point x="435" y="166" type="line"/>
      <point x="70" y="287" type="line"/>
      <point x="70" y="243" type="line"/>
      <point x="435" y="363" type="line"/>
      <point x="435" y="431" type="line"/>
      <point x="45" y="299" type="line"/>
    </contour>
    <contour>
      <point x="435" y="64" type="line"/>
      <point x="45" y="64" type="line"/>
      <point x="45" y="0" type="line"/>
      <point x="435" y="0" type="line"/>
    </contour>
  </outline>
</glyph>
<glyph name="greaterequal" format="1">
  <advance width="480"/>
  <unicode hex="2265"/>
  <outline>
    <contour>
      <point x="435" y="230" type="line"/>
      <point x="435" y="299" type="line"/>
      <point x="45" y="431" type="line"/>
      <point x="45" y="363" type="line"/>
      <point x="410" y="243" type="line"/>
      <point x="410" y="287" type="line"/>
      <point x="45" y="166" type="line"/>
      <point x="45" y="98" type="line"/>
    </contour>
    <contour>
      <point x="435" y="64" type="line"/>
      <point x="45" y="64" type="line"/>
      <point x="45" y="0" type="line"/>
      <point x="435" y="0" type="line"/>
    </contour>
  </outline>
</glyph>
<glyph name="lozenge" format="1">
  <advance width="480"/>
  <unicode hex="25CA"/>
  <outline>
    <contour>
      <point x="442" y="223" type="line"/>
      <point x="271" y="606" type="line"/>
      <point x="209" y="606" type="line"/>
      <point x="38" y="223" type="line"/>
      <point x="209" y="-160" type="line"/>
      <point x="271" y="-160" type="line"/>
    </contour>
    <contour>
      <point x="374" y="223" type="line"/>
      <point x="240" y="-79" type="line"/>
      <point x="106" y="223" type="line"/>
      <point x="240" y="526" type="line"/>
    </contour>
  </outline>
</glyph>
<glyph name="Oogonek" format="1">
  <advance width="621"/>
  <outline>
    <contour>
      <point x="335" y="-178" type="curve" smooth="yes"/>
      <point x="371" y="-178"/>
      <point x="401" y="-163"/>
      <point x="423" y="-138" type="curve"/>
      <point x="403" y="-110" type="line"/>
      <point x="385" y="-128"/>
      <point x="368" y="-138"/>
      <point x="348" y="-138" type="curve" smooth="yes"/>
      <point x="322" y="-138"/>
      <point x="304" y="-121"/>
      <point x="304" y="-93" type="curve" smooth="yes"/>
      <point x="304" y="-61"/>
      <point x="327" y="-21"/>
      <point x="407" y="10" type="curve" smooth="yes"/>
      <point x="502" y="47"/>
      <point x="576" y="141"/>
      <point x="576" y="269" type="curve" smooth="yes"/>
      <point x="576" y="427"/>
      <point x="470" y="536"/>
      <point x="318" y="536" type="curve" smooth="yes"/>
      <point x="162" y="536"/>
      <point x="45" y="419"/>
      <point x="45" y="260" type="curve" smooth="yes"/>
      <point x="45" y="102"/>
      <point x="157" y="-8"/>
      <point x="316" y="-8" type="curve" smooth="yes"/>
      <point x="341" y="-8" type="line"/>
      <point x="367" y="18" type="line"/>
      <point x="286" y="-11"/>
      <point x="239" y="-54"/>
      <point x="239" y="-100" type="curve" smooth="yes"/>
      <point x="239" y="-145"/>
      <point x="279" y="-178"/>
    </contour>
    <contour>
      <point x="324" y="46" type="curve" smooth="yes"/>
      <point x="221" y="46"/>
      <point x="147" y="143"/>
      <point x="147" y="280" type="curve" smooth="yes"/>
      <point x="147" y="406"/>
      <point x="207" y="486"/>
      <point x="307" y="486" type="curve" smooth="yes"/>
      <point x="408" y="486"/>
      <point x="476" y="389"/>
      <point x="476" y="247" type="curve" smooth="yes"/>
      <point x="476" y="122"/>
      <point x="418" y="46"/>
    </contour>
    <contour>
      <point x="310" y="264" type="move" name="center"/>
    </contour>
    <contour>
      <point x="310" y="528" type="move" name="top"/>
    </contour>
    <contour>
      <point x="16" y="528" type="move" name="topleft"/>
    </contour>
    <contour>
      <point x="605" y="528" type="move" name="topright"/>
    </contour>
  </outline>
</glyph>
<glyph name="acutecomb_dotaccentcomb" format="1">
  <advance width="480"/>
  <outline>
    <contour>
      <point x="259" y="386" type="line"/>
      <point x="377" y="523" type="line"/>
      <point x="300" y="542" type="line"/>
      <point x="221" y="401" type="line"/>
    </contour>
    <contour>
      <point x="230" y="535" type="curve" smooth="yes"/>
      <point x="257" y="535"/>
      <point x="275" y="557"/>
      <point x="275" y="583" type="curve" smooth="yes"/>
      <point x="275" y="608"/>
      <point x="257" y="631"/>
      <point x="230" y="631" type="curve" smooth="yes"/>
      <point x="201" y="631"/>
      <point x="182" y="608"/>
      <point x="182" y="583" type="curve" smooth="yes"/>
      <point x="182" y="557"/>
      <point x="201" y="535"/>
    </contour>
    <contour>
      <point x="240" y="349" type="move" name="_top"/>
    </contour>
  </outline>
</glyph>
<glyph name="brevebelowcomb" format="1">
  <advance width="480"/>
  <outline>
    <contour>
      <point x="318" y="-58" type="line"/>
      <point x="311" y="-97"/>
      <point x="283" y="-120"/>
      <point x="242" y="-120" type="curve" smooth="yes"/>
      <point x="203" y="-120"/>
      <point x="175" y="-97"/>
      <point x="166" y="-58" type="curve"/>
      <point x="124" y="-73" type="line"/>
      <point x="131" y="-140"/>
      <point x="174" y="-182"/>
      <point x="241" y="-182" type="curve" smooth="yes"/>
      <point x="308" y="-182"/>
      <point x="349" y="-140"/>
      <point x="356" y="-73" type="curve"/>
    </contour>
    <contour>
      <point x="240" y="0" type="move" name="_bottom"/>
    </contour>
    <contour>
      <point x="240" y="-176" type="move" name="bottom"/>
    </contour>
  </outline>
</glyph>
<glyph name="brevecomb_acutecomb" format="1">
  <advance width="480"/>
  <outline>
    <contour>
      <point x="318" y="542" type="line"/>
      <point x="311" y="486"/>
      <point x="283" y="456"/>
      <point x="242" y="456" type="curve" smooth="yes"/>
      <point x="203" y="456"/>
      <point x="175" y="486"/>
      <point x="166" y="542" type="curve"/>
      <point x="124" y="527" type="line"/>
      <point x="127" y="445"/>
      <point x="174" y="394"/>
      <point x="241" y="394" type="curve" smooth="yes"/>
      <point x="308" y="394"/>
      <point x="353" y="445"/>
      <point x="356" y="527" type="curve"/>
    </contour>
    <contour>
      <point x="251" y="508" type="line"/>
      <point x="347" y="614" type="line"/>
      <point x="270" y="632" type="line"/>
      <point x="213" y="523" type="line"/>
    </contour>
    <contour>
      <point x="240" y="349" type="move" name="_top"/>
    </contour>
  </outline>
</glyph>
<glyph name="brevecomb_hookabovecomb" format="1">
  <advance width="480"/>
  <outline>
    <contour>
      <point x="318" y="526" type="line"/>
      <point x="311" y="486"/>
      <point x="283" y="456"/>
      <point x="242" y="456" type="curve" smooth="yes"/>
      <point x="203" y="456"/>
      <point x="175" y="486"/>
      <point x="166" y="526" type="curve"/>
      <point x="124" y="511" type="line"/>
      <point x="127" y="445"/>
      <point x="174" y="394"/>
      <point x="241" y="394" type="curve" smooth="yes"/>
      <point x="308" y="394"/>
      <point x="353" y="445"/>
      <point x="356" y="511" type="curve"/>
    </contour>
    <contour>
      <point x="242" y="632" type="curve" smooth="yes"/>
      <point x="194" y="632"/>
      <point x="163" y="610"/>
      <point x="163" y="587" type="curve" smooth="yes"/>
      <point x="163" y="574"/>
      <point x="172" y="565"/>
      <point x="186" y="565" type="curve" smooth="yes"/>
      <point x="199" y="565"/>
      <point x="205" y="570"/>
      <point x="216" y="580" type="curve" smooth="yes"/>
      <point x="246" y="613" type="line"/>
      <point x="215" y="602" type="line"/>
      <point x="242" y="609"/>
      <point x="261" y="606"/>
      <point x="261" y="584" type="curve" smooth="yes"/>
      <point x="261" y="562"/>
      <point x="225" y="544"/>
      <point x="225" y="509" type="curve" smooth="yes"/>
      <point x="225" y="495" type="line"/>
      <point x="255" y="495" type="line"/>
      <point x="255" y="530"/>
      <point x="322" y="531"/>
      <point x="322" y="581" type="curve" smooth="yes"/>
      <point x="322" y="614"/>
      <point x="290" y="632"/>
    </contour>
    <contour>
      <point x="240" y="349" type="move" name="_top"/>
    </contour>
  </outline>
</glyph>
<glyph name="brevecomb_tildecomb.case" format="1">
  <advance width="480"/>
  <outline>
    <contour>
      <point x="240" y="573" type="curve" smooth="yes"/>
      <point x="313" y="573"/>
      <point x="367" y="609"/>
      <point x="379" y="666" type="curve"/>
      <point x="341" y="681" type="line"/>
      <point x="332" y="652"/>
      <point x="295" y="633"/>
      <point x="242" y="633" type="curve" smooth="yes"/>
      <point x="190" y="633"/>
      <point x="153" y="652"/>
      <point x="141" y="681" type="curve"/>
      <point x="100" y="666" type="line"/>
      <point x="112" y="609"/>
      <point x="168" y="573"/>
    </contour>
    <contour>
      <point x="295" y="690" type="curve" smooth="yes"/>
      <point x="334" y="690"/>
      <point x="365" y="717"/>
      <point x="382" y="763" type="curve"/>
      <point x="353" y="780" type="line"/>
      <point x="339" y="762"/>
      <point x="326" y="752"/>
      <point x="305" y="752" type="curve" smooth="yes"/>
      <point x="271" y="752"/>
      <point x="224" y="781"/>
      <point x="184" y="781" type="curve" smooth="yes"/>
      <point x="145" y="781"/>
      <point x="114" y="754"/>
      <point x="97" y="708" type="curve"/>
      <point x="126" y="690" type="line"/>
      <point x="140" y="708"/>
      <point x="153" y="719"/>
      <point x="175" y="719" type="curve" smooth="yes"/>
      <point x="208" y="719"/>
      <point x="255" y="690"/>
    </contour>
    <contour>
      <point x="240" y="528" type="move" name="_top"/>
    </contour>
  </outline>
</glyph>
<glyph name="breveinvertedcomb" format="1">
  <advance width="480"/>
  <outline>
    <contour>
      <point x="163" y="386" type="line"/>
      <point x="170" y="442"/>
      <point x="199" y="471"/>
      <point x="239" y="471" type="curve" smooth="yes"/>
      <point x="278" y="471"/>
      <point x="307" y="442"/>
      <point x="315" y="386" type="curve"/>
      <point x="356" y="401" type="line"/>
      <point x="353" y="483"/>
      <point x="308" y="534"/>
      <point x="242" y="534" type="curve" smooth="yes"/>
      <point x="175" y="534"/>
      <point x="127" y="483"/>
      <point x="124" y="401" type="curve"/>
    </contour>
    <contour>
      <point x="240" y="349" type="move" name="_top"/>
    </contour>
    <contour>
      <point x="240" y="550" type="move" name="top"/>
    </contour>
  </outline>
</glyph>
<glyph name="bulletoperator" format="1">
  <advance width="480"/>
  <outline>
    <contour>
      <point x="240" y="112" type="curve" smooth="yes"/>
      <point x="274" y="112"/>
      <point x="300" y="140"/>
      <point x="300" y="177" type="curve" smooth="yes"/>
      <point x="300" y="215"/>
      <point x="274" y="244"/>
      <point x="240" y="244" type="curve" smooth="yes"/>
      <point x="206" y="244"/>
      <point x="180" y="215"/>
      <point x="180" y="177" type="curve" smooth="yes"/>
      <point x="180" y="140"/>
      <point x="206" y="112"/>
    </contour>
  </outline>
</glyph>
<glyph name="caroncomb.alt" format="1">
  <advance width="480"/>
  <outline>
    <contour>
      <point x="224" y="376" type="line"/>
      <point x="274" y="405"/>
      <point x="306" y="455"/>
      <point x="306" y="497" type="curve" smooth="yes"/>
      <point x="306" y="535"/>
      <point x="282" y="554"/>
      <point x="251" y="554" type="curve" smooth="yes"/>
      <point x="227" y="554"/>
      <point x="208" y="537"/>
      <point x="208" y="514" type="curve" smooth="yes"/>
      <point x="208" y="470"/>
      <point x="248" y="478"/>
      <point x="248" y="451" type="curve" smooth="yes"/>
      <point x="248" y="437"/>
      <point x="238" y="419"/>
      <point x="209" y="399" type="curve"/>
    </contour>
    <contour>
      <point x="208" y="550" type="move" name="_topright"/>
    </contour>
  </outline>
</glyph>
<glyph name="caroncomb" format="1">
  <advance width="480"/>
  <outline>
    <contour>
      <point x="359" y="527" type="line"/>
      <point x="321" y="542" type="line"/>
      <point x="216" y="428" type="line"/>
      <point x="266" y="428" type="line"/>
      <point x="159" y="542" type="line"/>
      <point x="121" y="527" type="line"/>
      <point x="205" y="396" type="line"/>
      <point x="275" y="396" type="line"/>
    </contour>
    <contour>
      <point x="240" y="349" type="move" name="_top"/>
    </contour>
    <contour>
      <point x="240" y="550" type="move" name="top"/>
    </contour>
  </outline>
</glyph>
<glyph name="cedillacomb.case" format="1">
  <advance width="480"/>
  <outline>
    <contour>
      <point x="224" y="-178" type="curve" smooth="yes"/>
      <point x="280" y="-178"/>
      <point x="323" y="-145"/>
      <point x="323" y="-101" type="curve" smooth="yes"/>
      <point x="323" y="-59"/>
      <point x="284" y="-35"/>
      <point x="231" y="-35" type="curve"/>
      <point x="227" y="-56" type="line"/>
      <point x="279" y="10" type="line"/>
      <point x="236" y="10" type="line"/>
      <point x="189" y="-68" type="line"/>
      <point x="202" y="-83" type="line"/>
      <point x="240" y="-79"/>
      <point x="264" y="-91"/>
      <point x="264" y="-113" type="curve" smooth="yes"/>
      <point x="264" y="-130"/>
      <point x="248" y="-143"/>
      <point x="225" y="-143" type="curve" smooth="yes"/>
      <point x="203" y="-143"/>
      <point x="182" y="-135"/>
      <point x="164" y="-123" type="curve"/>
      <point x="148" y="-157" type="line"/>
      <point x="170" y="-171"/>
      <point x="197" y="-178"/>
    </contour>
    <contour>
      <point x="240" y="0" type="move" name="_bottom"/>
    </contour>
  </outline>
</glyph>
<glyph name="circumflexcomb_acutecomb" format="1">
  <advance width="480"/>
  <outline>
    <contour>
      <point x="359" y="401" type="line"/>
      <point x="275" y="532" type="line"/>
      <point x="205" y="532" type="line"/>
      <point x="121" y="401" type="line"/>
      <point x="159" y="386" type="line"/>
      <point x="265" y="500" type="line"/>
      <point x="215" y="500" type="line"/>
      <point x="321" y="386" type="line"/>
    </contour>
    <contour>
      <point x="347" y="508" type="line"/>
      <point x="443" y="614" type="line"/>
      <point x="366" y="632" type="line"/>
      <point x="309" y="523" type="line"/>
    </contour>
    <contour>
      <point x="240" y="349" type="move" name="_top"/>
    </contour>
  </outline>
</glyph>
<glyph name="circumflexcomb_hookabovecomb.case" format="1">
  <advance width="480"/>
  <outline>
    <contour>
      <point x="383" y="591" type="line"/>
      <point x="275" y="674" type="line"/>
      <point x="205" y="674" type="line"/>
      <point x="97" y="591" type="line"/>
      <point x="130" y="569" type="line"/>
      <point x="265" y="637" type="line"/>
      <point x="215" y="637" type="line"/>
      <point x="350" y="569" type="line"/>
    </contour>
    <contour>
      <point x="344" y="780" type="curve" smooth="yes"/>
      <point x="297" y="780"/>
      <point x="266" y="759"/>
      <point x="266" y="735" type="curve" smooth="yes"/>
      <point x="266" y="722"/>
      <point x="275" y="714"/>
      <point x="289" y="714" type="curve" smooth="yes"/>
      <point x="301" y="714"/>
      <point x="307" y="718"/>
      <point x="319" y="729" type="curve" smooth="yes"/>
      <point x="349" y="761" type="line"/>
      <point x="318" y="750" type="line"/>
      <point x="344" y="757"/>
      <point x="363" y="754"/>
      <point x="363" y="732" type="curve" smooth="yes"/>
      <point x="363" y="710"/>
      <point x="328" y="696"/>
      <point x="328" y="667" type="curve" smooth="yes"/>
      <point x="328" y="655" type="line"/>
      <point x="358" y="655" type="line"/>
      <point x="358" y="684"/>
      <point x="425" y="685"/>
      <point x="425" y="730" type="curve" smooth="yes"/>
      <point x="425" y="762"/>
      <point x="393" y="780"/>
    </contour>
    <contour>
      <point x="240" y="528" type="move" name="_top"/>
    </contour>
  </outline>
</glyph>
<glyph name="circumflexcomb_hookabovecomb" format="1">
  <advance width="480"/>
  <outline>
    <contour>
      <point x="359" y="401" type="line"/>
      <point x="275" y="532" type="line"/>
      <point x="205" y="532" type="line"/>
      <point x="121" y="401" type="line"/>
      <point x="159" y="386" type="line"/>
      <point x="265" y="500" type="line"/>
      <point x="215" y="500" type="line"/>
      <point x="321" y="386" type="line"/>
    </contour>
    <contour>
      <point x="344" y="632" type="curve" smooth="yes"/>
      <point x="297" y="632"/>
      <point x="266" y="610"/>
      <point x="266" y="587" type="curve" smooth="yes"/>
      <point x="266" y="574"/>
      <point x="275" y="565"/>
      <point x="289" y="565" type="curve" smooth="yes"/>
      <point x="301" y="565"/>
      <point x="307" y="570"/>
      <point x="319" y="580" type="curve" smooth="yes"/>
      <point x="349" y="613" type="line"/>
      <point x="318" y="602" type="line"/>
      <point x="344" y="609"/>
      <point x="363" y="606"/>
      <point x="363" y="584" type="curve" smooth="yes"/>
      <point x="363" y="562"/>
      <point x="328" y="544"/>
      <point x="328" y="503" type="curve" smooth="yes"/>
      <point x="328" y="490" type="line"/>
      <point x="358" y="490" type="line"/>
      <point x="358" y="530"/>
      <point x="425" y="530"/>
      <point x="425" y="579" type="curve" smooth="yes"/>
      <point x="425" y="612"/>
      <point x="393" y="632"/>
    </contour>
    <contour>
      <point x="240" y="349" type="move" name="_top"/>
    </contour>
  </outline>
</glyph>
<glyph name="commaaccentcomb.alt" format="1">
  <advance width="480"/>
  <outline>
    <contour>
      <point x="183" y="-232" type="line"/>
      <point x="252" y="-214"/>
      <point x="290" y="-165"/>
      <point x="290" y="-119" type="curve" smooth="yes"/>
      <point x="290" y="-78"/>
      <point x="265" y="-59"/>
      <point x="235" y="-59" type="curve" smooth="yes"/>
      <point x="209" y="-59"/>
      <point x="190" y="-76"/>
      <point x="190" y="-99" type="curve" smooth="yes"/>
      <point x="190" y="-143"/>
      <point x="233" y="-135"/>
      <point x="233" y="-162" type="curve" smooth="yes"/>
      <point x="233" y="-178"/>
      <point x="215" y="-195"/>
      <point x="173" y="-206" type="curve"/>
    </contour>
    <contour>
      <point x="240" y="0" type="move" name="_bottom"/>
    </contour>
    <contour>
      <point x="240" y="-176" type="move" name="bottom"/>
    </contour>
  </outline>
</glyph>
<glyph name="dblgravecomb.case" format="1">
  <advance width="480"/>
  <outline>
    <contour>
      <point x="277" y="569" type="line"/>
      <point x="310" y="582" type="line"/>
      <point x="275" y="680" type="line"/>
      <point x="212" y="666" type="line"/>
    </contour>
    <contour>
      <point x="170" y="569" type="line"/>
      <point x="203" y="582" type="line"/>
      <point x="168" y="680" type="line"/>
      <point x="105" y="666" type="line"/>
    </contour>
    <contour>
      <point x="240" y="528" type="move" name="_top"/>
    </contour>
    <contour>
      <point x="240" y="696" type="move" name="top"/>
    </contour>
  </outline>
</glyph>
<glyph name="dblgravecomb" format="1">
  <advance width="480"/>
  <outline>
    <contour>
      <point x="233" y="386" type="line"/>
      <point x="267" y="400" type="line"/>
      <point x="216" y="542" type="line"/>
      <point x="152" y="527" type="line"/>
    </contour>
    <contour>
      <point x="213" y="386" type="line"/>
      <point x="247" y="400" type="line"/>
      <point x="195" y="542" type="line"/>
      <point x="132" y="527" type="line"/>
    </contour>
    <contour>
      <point x="240" y="349" type="move" name="_top"/>
    </contour>
    <contour>
      <point x="240" y="550" type="move" name="top"/>
    </contour>
  </outline>
</glyph>
<glyph name="dieresiscomb" format="1">
  <advance width="480"/>
  <outline>
    <contour>
      <point x="172" y="413" type="curve" smooth="yes"/>
      <point x="200" y="413"/>
      <point x="218" y="436"/>
      <point x="218" y="462" type="curve" smooth="yes"/>
      <point x="218" y="489"/>
      <point x="200" y="512"/>
      <point x="172" y="512" type="curve" smooth="yes"/>
      <point x="143" y="512"/>
      <point x="124" y="489"/>
      <point x="124" y="462" type="curve" smooth="yes"/>
      <point x="124" y="436"/>
      <point x="143" y="413"/>
    </contour>
    <contour>
      <point x="309" y="413" type="curve" smooth="yes"/>
      <point x="337" y="413"/>
      <point x="356" y="436"/>
      <point x="356" y="462" type="curve" smooth="yes"/>
      <point x="356" y="489"/>
      <point x="337" y="512"/>
      <point x="309" y="512" type="curve" smooth="yes"/>
      <point x="280" y="512"/>
      <point x="262" y="489"/>
      <point x="262" y="462" type="curve" smooth="yes"/>
      <point x="262" y="436"/>
      <point x="280" y="413"/>
    </contour>
    <contour>
      <point x="240" y="349" type="move" name="_top"/>
    </contour>
    <contour>
      <point x="240" y="531" type="move" name="top"/>
    </contour>
  </outline>
</glyph>
<glyph name="dieresiscomb_acutecomb" format="1">
  <advance width="480"/>
  <outline>
    <contour>
      <point x="172" y="413" type="curve" smooth="yes"/>
      <point x="200" y="413"/>
      <point x="218" y="435"/>
      <point x="218" y="461" type="curve" smooth="yes"/>
      <point x="218" y="487"/>
      <point x="200" y="509"/>
      <point x="172" y="509" type="curve" smooth="yes"/>
      <point x="143" y="509"/>
      <point x="125" y="487"/>
      <point x="125" y="461" type="curve" smooth="yes"/>
      <point x="125" y="435"/>
      <point x="143" y="413"/>
    </contour>
    <contour>
      <point x="309" y="413" type="curve" smooth="yes"/>
      <point x="337" y="413"/>
      <point x="355" y="435"/>
      <point x="355" y="461" type="curve" smooth="yes"/>
      <point x="355" y="487"/>
      <point x="337" y="509"/>
      <point x="309" y="509" type="curve" smooth="yes"/>
      <point x="281" y="509"/>
      <point x="262" y="487"/>
      <point x="262" y="461" type="curve" smooth="yes"/>
      <point x="262" y="435"/>
      <point x="281" y="413"/>
    </contour>
    <contour>
      <point x="259" y="516" type="line"/>
      <point x="351" y="614" type="line"/>
      <point x="274" y="632" type="line"/>
      <point x="221" y="531" type="line"/>
    </contour>
    <contour>
      <point x="240" y="349" type="move" name="_top"/>
    </contour>
  </outline>
</glyph>
<glyph name="dieresiscomb_macroncomb.case" format="1">
  <advance width="480"/>
  <outline>
    <contour>
      <point x="102" y="767" type="line"/>
      <point x="102" y="714" type="line"/>
      <point x="378" y="714" type="line"/>
      <point x="378" y="767" type="line"/>
    </contour>
    <contour>
      <point x="156" y="577" type="curve" smooth="yes"/>
      <point x="184" y="577"/>
      <point x="202" y="600"/>
      <point x="202" y="626" type="curve" smooth="yes"/>
      <point x="202" y="653"/>
      <point x="184" y="676"/>
      <point x="156" y="676" type="curve" smooth="yes"/>
      <point x="127" y="676"/>
      <point x="108" y="653"/>
      <point x="108" y="626" type="curve" smooth="yes"/>
      <point x="108" y="600"/>
      <point x="127" y="577"/>
    </contour>
    <contour>
      <point x="325" y="577" type="curve" smooth="yes"/>
      <point x="353" y="577"/>
      <point x="372" y="600"/>
      <point x="372" y="626" type="curve" smooth="yes"/>
      <point x="372" y="653"/>
      <point x="353" y="676"/>
      <point x="325" y="676" type="curve" smooth="yes"/>
      <point x="296" y="676"/>
      <point x="278" y="653"/>
      <point x="278" y="626" type="curve" smooth="yes"/>
      <point x="278" y="600"/>
      <point x="296" y="577"/>
    </contour>
    <contour>
      <point x="240" y="528" type="move" name="_top"/>
    </contour>
  </outline>
</glyph>
<glyph name="dieresiscomb_macroncomb" format="1">
  <advance width="480"/>
  <outline>
    <contour>
      <point x="172" y="413" type="curve" smooth="yes"/>
      <point x="200" y="413"/>
      <point x="218" y="436"/>
      <point x="218" y="462" type="curve" smooth="yes"/>
      <point x="218" y="489"/>
      <point x="200" y="512"/>
      <point x="172" y="512" type="curve" smooth="yes"/>
      <point x="143" y="512"/>
      <point x="124" y="489"/>
      <point x="124" y="462" type="curve" smooth="yes"/>
      <point x="124" y="436"/>
      <point x="143" y="413"/>
    </contour>
    <contour>
      <point x="309" y="413" type="curve" smooth="yes"/>
      <point x="337" y="413"/>
      <point x="356" y="436"/>
      <point x="356" y="462" type="curve" smooth="yes"/>
      <point x="356" y="489"/>
      <point x="337" y="512"/>
      <point x="309" y="512" type="curve" smooth="yes"/>
      <point x="280" y="512"/>
      <point x="262" y="489"/>
      <point x="262" y="462" type="curve" smooth="yes"/>
      <point x="262" y="436"/>
      <point x="280" y="413"/>
    </contour>
    <contour>
      <point x="121" y="602" type="line"/>
      <point x="121" y="549" type="line"/>
      <point x="359" y="549" type="line"/>
      <point x="359" y="602" type="line"/>
    </contour>
    <contour>
      <point x="240" y="349" type="move" name="_top"/>
    </contour>
  </outline>
</glyph>
<glyph name="divisionslash" format="1">
  <advance width="480"/>
  <outline>
    <contour>
      <point x="121" y="0" type="line"/>
      <point x="183" y="0" type="line"/>
      <point x="358" y="528" type="line"/>
      <point x="296" y="528" type="line"/>
    </contour>
  </outline>
</glyph>
<glyph name="dotaccentcomb.case" format="1">
  <advance width="480"/>
  <outline>
    <contour>
      <point x="241" y="573" type="curve" smooth="yes"/>
      <point x="271" y="573"/>
      <point x="291" y="598"/>
      <point x="291" y="626" type="curve" smooth="yes"/>
      <point x="291" y="655"/>
      <point x="271" y="680"/>
      <point x="241" y="680" type="curve" smooth="yes"/>
      <point x="210" y="680"/>
      <point x="189" y="655"/>
      <point x="189" y="626" type="curve" smooth="yes"/>
      <point x="189" y="598"/>
      <point x="210" y="573"/>
    </contour>
    <contour>
      <point x="240" y="528" type="move" name="_top"/>
    </contour>
    <contour>
      <point x="240" y="678" type="move" name="top"/>
    </contour>
  </outline>
</glyph>
<glyph name="dotaccentcomb" format="1">
  <advance width="480"/>
  <outline>
    <contour>
      <point x="241" y="409" type="curve" smooth="yes"/>
      <point x="271" y="409"/>
      <point x="291" y="434"/>
      <point x="291" y="462" type="curve" smooth="yes"/>
      <point x="291" y="491"/>
      <point x="271" y="516"/>
      <point x="241" y="516" type="curve" smooth="yes"/>
      <point x="210" y="516"/>
      <point x="189" y="491"/>
      <point x="189" y="462" type="curve" smooth="yes"/>
      <point x="189" y="434"/>
      <point x="210" y="409"/>
    </contour>
    <contour>
      <point x="240" y="349" type="move" name="_top"/>
    </contour>
    <contour>
      <point x="240" y="531" type="move" name="top"/>
    </contour>
  </outline>
</glyph>
<glyph name="dotaccentcomb_macroncomb" format="1">
  <advance width="480"/>
  <outline>
    <contour>
      <point x="241" y="413" type="curve" smooth="yes"/>
      <point x="269" y="413"/>
      <point x="287" y="436"/>
      <point x="287" y="462" type="curve" smooth="yes"/>
      <point x="287" y="489"/>
      <point x="269" y="512"/>
      <point x="241" y="512" type="curve" smooth="yes"/>
      <point x="212" y="512"/>
      <point x="193" y="489"/>
      <point x="193" y="462" type="curve" smooth="yes"/>
      <point x="193" y="436"/>
      <point x="212" y="413"/>
    </contour>
    <contour>
      <point x="121" y="602" type="line"/>
      <point x="121" y="549" type="line"/>
      <point x="359" y="549" type="line"/>
      <point x="359" y="602" type="line"/>
    </contour>
    <contour>
      <point x="240" y="349" type="move" name="_top"/>
    </contour>
  </outline>
</glyph>
